999
dxflib 2.0.4.8
  0
SECTION
  2
HEADER
  9
$ACADVER
  1
AC1015
  9
$HANDSEED
  5
FFFF
  9
$DIMASZ
 40
2.0
  9
$GRIDUNIT
 10
0.0
 20
0.0
  9
$DIMADEC
 70
1
  9
$DIMGAP
 40
2.0
  9
$SPLINESEGS
 70
8
  9
$AUPREC
 70
1
  9
$LUNITS
 70
5
  9
$DIMEXO
 40
2.0
  9
$INSUNITS
 70
1
  9
$DIMLUNIT
 70
5
  9
$GRIDMODE
 70
1
  9
$DIMTXT
 40
2.0
  9
$LUPREC
 70
1
  9
$PSVPSCALE
 40
0.0127385559739625
  9
$DIMSTYLE
  2
Standard
  9
$PLIMMAX
 10
11.0
 20
8.5
  9
$PLIMMIN
 10
0.0
 20
0.0
  9
$DIMEXE
 40
2.0
  9
$PINSBASE
 10
3.3684158317560589
 20
1.7405044697003005
 30
0.0
  9
$DIMAUNIT
 70
0
  9
$AUNITS
 70
0
  0
ENDSEC
  0
SECTION
  2
TABLES
  0
TABLE
  2
VPORT
  5
8
100
AcDbSymbolTable
 70
1
  0
VPORT
  5
30
100
AcDbSymbolTableRecord
100
AcDbViewportTableRecord
  2
*Active
 70
0
 10
0.0
 20
0.0
 11
1.0
 21
1.0
 12
286.3055555555554861
 22
148.5
 13
0.0
 23
0.0
 14
10.0
 24
10.0
 15
10.0
 25
10.0
 16
0.0
 26
0.0
 36
1.0
 17
0.0
 27
0.0
 37
0.0
 40
297.0
 41
1.92798353909465
 42
50.0
 43
0.0
 44
0.0
 50
0.0
 51
0.0
 71
0
 72
100
 73
1
 74
3
 75
1
 76
1
 77
0
 78
0
281
0
 65
1
110
0.0
120
0.0
130
0.0
111
1.0
121
0.0
131
0.0
112
0.0
122
1.0
132
0.0
 79
0
146
0.0
  0
ENDTAB
  0
TABLE
  2
LTYPE
  5
5
100
AcDbSymbolTable
 70
21
  0
LTYPE
  5
14
100
AcDbSymbolTableRecord
100
AcDbLinetypeTableRecord
  2
ByBlock
 70
0
  3

 72
65
 73
0
 40
0.0
  0
LTYPE
  5
15
100
AcDbSymbolTableRecord
100
AcDbLinetypeTableRecord
  2
ByLayer
 70
0
  3

 72
65
 73
0
 40
0.0
  0
LTYPE
  5
16
100
AcDbSymbolTableRecord
100
AcDbLinetypeTableRecord
  2
CONTINUOUS
 70
0
  3
Solid line
 72
65
 73
0
 40
0.0
  0
LTYPE
  5
31
100
AcDbSymbolTableRecord
100
AcDbLinetypeTableRecord
  2
DOT
 70
0
  3
Dot . . . . . . . . . . . . . . . . . . . . . .
 72
65
 73
2
 40
6.3499999999999996
 49
0.0
 74
0
 49
-6.3499999999999996
 74
0
  0
LTYPE
  5
32
100
AcDbSymbolTableRecord
100
AcDbLinetypeTableRecord
  2
DOT2
 70
0
  3
Dot (.5x) .....................................
 72
65
 73
2
 40
3.1749999999999998
 49
0.0
 74
0
 49
-3.1749999999999998
 74
0
  0
LTYPE
  5
33
100
AcDbSymbolTableRecord
100
AcDbLinetypeTableRecord
  2
DOTX2
 70
0
  3
Dot (2x) .  .  .  .  .  .  .  .  .  .  .  .  .
 72
65
 73
2
 40
12.6999999999999993
 49
0.0
 74
0
 49
-12.6999999999999993
 74
0
  0
LTYPE
  5
34
100
AcDbSymbolTableRecord
100
AcDbLinetypeTableRecord
  2
DASHED
 70
0
  3
Dashed __ __ __ __ __ __ __ __ __ __ __ __ __ _
 72
65
 73
2
 40
19.0500000000000007
 49
12.6999999999999993
 74
0
 49
-6.3499999999999996
 74
0
  0
LTYPE
  5
35
100
AcDbSymbolTableRecord
100
AcDbLinetypeTableRecord
  2
DASHED2
 70
0
  3
Dashed (.5x) _ _ _ _ _ _ _ _ _ _ _ _ _ _ _ _ _
 72
65
 73
2
 40
9.5250000000000004
 49
6.3499999999999996
 74
0
 49
-3.1749999999999998
 74
0
  0
LTYPE
  5
36
100
AcDbSymbolTableRecord
100
AcDbLinetypeTableRecord
  2
DASHEDX2
 70
0
  3
Dashed (2x) ____  ____  ____  ____  ____  ___
 72
65
 73
2
 40
38.1000000000000014
 49
25.3999999999999986
 74
0
 49
-12.6999999999999993
 74
0
  0
LTYPE
  5
37
100
AcDbSymbolTableRecord
100
AcDbLinetypeTableRecord
  2
DASHDOT
 70
0
  3
Dash dot __ . __ . __ . __ . __ . __ . __ . __
 72
65
 73
4
 40
25.3999999999999986
 49
12.6999999999999993
 74
0
 49
-6.3499999999999996
 74
0
 49
0.0
 74
0
 49
-6.3499999999999996
 74
0
  0
LTYPE
  5
38
100
AcDbSymbolTableRecord
100
AcDbLinetypeTableRecord
  2
DASHDOT2
 70
0
  3
Dash dot (.5x) _._._._._._._._._._._._._._._.
 72
65
 73
4
 40
12.6999999999999993
 49
6.3499999999999996
 74
0
 49
-3.1749999999999998
 74
0
 49
0.0
 74
0
 49
-3.1749999999999998
 74
0
  0
LTYPE
  5
39
100
AcDbSymbolTableRecord
100
AcDbLinetypeTableRecord
  2
DASHDOTX2
 70
0
  3
Dash dot (2x) ____  .  ____  .  ____  .  ___
 72
65
 73
4
 40
50.7999999999999972
 49
25.3999999999999986
 74
0
 49
-12.6999999999999993
 74
0
 49
0.0
 74
0
 49
-12.6999999999999993
 74
0
  0
LTYPE
  5
3A
100
AcDbSymbolTableRecord
100
AcDbLinetypeTableRecord
  2
DIVIDE
 70
0
  3
Divide ____ . . ____ . . ____ . . ____ . . ____
 72
65
 73
6
 40
31.75
 49
12.6999999999999993
 74
0
 49
-6.3499999999999996
 74
0
 49
0.0
 74
0
 49
-6.3499999999999996
 74
0
 49
0.0
 74
0
 49
-6.3499999999999996
 74
0
  0
LTYPE
  5
3B
100
AcDbSymbolTableRecord
100
AcDbLinetypeTableRecord
  2
DIVIDE2
 70
0
  3
Divide (.5x) __..__..__..__..__..__..__..__.._
 72
65
 73
6
 40
15.875
 49
6.3499999999999996
 74
0
 49
-3.1749999999999998
 74
0
 49
0.0
 74
0
 49
-3.1749999999999998
 74
0
 49
0.0
 74
0
 49
-3.1749999999999998
 74
0
  0
LTYPE
  5
3C
100
AcDbSymbolTableRecord
100
AcDbLinetypeTableRecord
  2
DIVIDEX2
 70
0
  3
Divide (2x) ________  .  .  ________  .  .  _
 72
65
 73
6
 40
63.5
 49
25.3999999999999986
 74
0
 49
-12.6999999999999993
 74
0
 49
0.0
 74
0
 49
-12.6999999999999993
 74
0
 49
0.0
 74
0
 49
-12.6999999999999993
 74
0
  0
LTYPE
  5
3D
100
AcDbSymbolTableRecord
100
AcDbLinetypeTableRecord
  2
CENTER
 70
0
  3
Center ____ _ ____ _ ____ _ ____ _ ____ _ ____
 72
65
 73
4
 40
50.7999999999999972
 49
31.75
 74
0
 49
-6.3499999999999996
 74
0
 49
6.3499999999999996
 74
0
 49
-6.3499999999999996
 74
0
  0
LTYPE
  5
3E
100
AcDbSymbolTableRecord
100
AcDbLinetypeTableRecord
  2
CENTER2
 70
0
  3
Center (.5x) ___ _ ___ _ ___ _ ___ _ ___ _ ___
 72
65
 73
4
 40
28.5749999999999993
 49
19.0500000000000007
 74
0
 49
-3.1749999999999998
 74
0
 49
3.1749999999999998
 74
0
 49
-3.1749999999999998
 74
0
  0
LTYPE
  5
3F
100
AcDbSymbolTableRecord
100
AcDbLinetypeTableRecord
  2
CENTERX2
 70
0
  3
Center (2x) ________  __  ________  __  _____
 72
65
 73
4
 40
101.5999999999999943
 49
63.5
 74
0
 49
-12.6999999999999993
 74
0
 49
12.6999999999999993
 74
0
 49
-12.6999999999999993
 74
0
  0
LTYPE
  5
40
100
AcDbSymbolTableRecord
100
AcDbLinetypeTableRecord
  2
BORDER
 70
0
  3
Border __ __ . __ __ . __ __ . __ __ . __ __ .
 72
65
 73
6
 40
44.4500000000000028
 49
12.6999999999999993
 74
0
 49
-6.3499999999999996
 74
0
 49
12.6999999999999993
 74
0
 49
-6.3499999999999996
 74
0
 49
0.0
 74
0
 49
-6.3499999999999996
 74
0
  0
LTYPE
  5
41
100
AcDbSymbolTableRecord
100
AcDbLinetypeTableRecord
  2
BORDER2
 70
0
  3
Border (.5x) __.__.__.__.__.__.__.__.__.__.__.
 72
65
 73
6
 40
22.2250000000000014
 49
6.3499999999999996
 74
0
 49
-3.1749999999999998
 74
0
 49
6.3499999999999996
 74
0
 49
-3.1749999999999998
 74
0
 49
0.0
 74
0
 49
-3.1749999999999998
 74
0
  0
LTYPE
  5
42
100
AcDbSymbolTableRecord
100
AcDbLinetypeTableRecord
  2
BORDERX2
 70
0
  3
Border (2x) ____  ____  .  ____  ____  .  ___
 72
65
 73
6
 40
88.9000000000000057
 49
25.3999999999999986
 74
0
 49
-12.6999999999999993
 74
0
 49
25.3999999999999986
 74
0
 49
-12.6999999999999993
 74
0
 49
0.0
 74
0
 49
-12.6999999999999993
 74
0
  0
ENDTAB
  0
TABLE
  2
LAYER
  5
2
100
AcDbSymbolTable
 70
16
  0
LAYER
  5
10
100
AcDbSymbolTableRecord
100
AcDbLayerTableRecord
  2
0
 70
0
 62
7
  6
CONTINUOUS
370
0
390
F
  0
LAYER
  5
43
100
AcDbSymbolTableRecord
100
AcDbLayerTableRecord
  2
foundation
 70
0
 62
3
  6
DASHED2
370
35
390
F
  0
LAYER
  5
44
100
AcDbSymbolTableRecord
100
AcDbLayerTableRecord
  2
partition_wall
 70
0
 62
6
  6
CONTINUOUS
370
35
390
F
  0
LAYER
  5
45
100
AcDbSymbolTableRecord
100
AcDbLayerTableRecord
  2
girders_posts
 70
0
 62
1
  6
CONTINUOUS
370
13
390
F
  0
LAYER
  5
46
100
AcDbSymbolTableRecord
100
AcDbLayerTableRecord
  2
plumbing
 70
0
 62
140
  6
DOT2
370
13
390
F
  0
LAYER
  5
47
100
AcDbSymbolTableRecord
100
AcDbLayerTableRecord
  2
heating
 70
0
 62
8
  6
DIVIDE2
370
13
390
F
  0
LAYER
  5
48
100
AcDbSymbolTableRecord
100
AcDbLayerTableRecord
  2
stairs
 70
0
 62
7
  6
DOT
370
13
390
F
  0
LAYER
  5
49
100
AcDbSymbolTableRecord
100
AcDbLayerTableRecord
  2
text
 70
0
 62
7
  6
CONTINUOUS
370
13
390
F
  0
LAYER
  5
4A
100
AcDbSymbolTableRecord
100
AcDbLayerTableRecord
  2
electrical
 70
0
 62
4
  6
CONTINUOUS
370
13
390
F
  0
LAYER
  5
4B
100
AcDbSymbolTableRecord
100
AcDbLayerTableRecord
  2
fixtures
 70
0
 62
2
  6
CONTINUOUS
370
35
390
F
  0
LAYER
  5
4C
100
AcDbSymbolTableRecord
100
AcDbLayerTableRecord
  2
dimensions
 70
0
 62
8
  6
CONTINUOUS
370
0
390
F
  0
LAYER
  5
4D
100
AcDbSymbolTableRecord
100
AcDbLayerTableRecord
  2
ceiling
 70
0
 62
9
  6
CONTINUOUS
370
13
390
F
  0
LAYER
  5
4E
100
AcDbSymbolTableRecord
100
AcDbLayerTableRecord
  2
furniture
 70
0
 62
3
  6
CONTINUOUS
370
13
390
F
  0
LAYER
  5
4F
100
AcDbSymbolTableRecord
100
AcDbLayerTableRecord
  2
lighting
 70
0
 62
131
  6
CONTINUOUS
370
35
390
F
  0
LAYER
  5
50
100
AcDbSymbolTableRecord
100
AcDbLayerTableRecord
  2
lighting_text
 70
0
 62
7
  6
CONTINUOUS
370
13
390
F
  0
LAYER
  5
51
100
AcDbSymbolTableRecord
100
AcDbLayerTableRecord
  2
scale
 70
0
 62
7
  6
CONTINUOUS
370
18
390
F
  0
ENDTAB
  0
TABLE
  2
STYLE
  5
3
100
AcDbSymbolTable
 70
1
  0
STYLE
  5
11
100
AcDbSymbolTableRecord
100
AcDbTextStyleTableRecord
  2
Standard
 70
0
 40
0.0
 41
0.75
 50
0.0
 71
0
 42
2.5
  3
txt
  4

  0
ENDTAB
  0
TABLE
  2
VIEW
  5
6
100
AcDbSymbolTable
 70
0
  0
ENDTAB
  0
TABLE
  2
UCS
  5
7
100
AcDbSymbolTable
 70
0
  0
ENDTAB
  0
TABLE
  2
APPID
  5
9
100
AcDbSymbolTable
 70
1
  0
APPID
  5
12
100
AcDbSymbolTableRecord
100
AcDbRegAppTableRecord
  2
ACAD
 70
0
  0
ENDTAB
  0
TABLE
  2
DIMSTYLE
  5
A
100
AcDbSymbolTable
 70
1
100
AcDbDimStyleTable
 71
0
  0
DIMSTYLE
105
27
100
AcDbSymbolTableRecord
100
AcDbDimStyleTableRecord
  2
Standard
 41
2.0
 42
2.0
 43
3.75
 44
2.0
 70
0
 73
0
 74
0
 77
1
 78
8
140
2.0
141
2.5
143
0.03937007874016
147
2.0
171
3
172
1
271
2
272
2
274
3
278
44
283
0
284
8
340
11
  0
ENDTAB
  0
TABLE
  2
BLOCK_RECORD
  5
1
100
AcDbSymbolTable
 70
1
  0
BLOCK_RECORD
  5
1F
100
AcDbSymbolTableRecord
100
AcDbBlockTableRecord
  2
*Model_Space
340
22
  0
BLOCK_RECORD
  5
1B
100
AcDbSymbolTableRecord
100
AcDbBlockTableRecord
  2
*Paper_Space
340
1E
  0
BLOCK_RECORD
  5
23
100
AcDbSymbolTableRecord
100
AcDbBlockTableRecord
  2
*Paper_Space0
340
26
  0
ENDTAB
  0
ENDSEC
  0
SECTION
  2
BLOCKS
  0
BLOCK
  5
20
100
AcDbEntity
  8
0
100
AcDbBlockBegin
  2
*Model_Space
 70
0
 10
0.0
 20
0.0
 30
0.0
  3
*Model_Space
  1

  0
ENDBLK
  5
21
100
AcDbEntity
  8
0
100
AcDbBlockEnd
  0
BLOCK
  5
1C
100
AcDbEntity
 67
1
  8
0
100
AcDbBlockBegin
  2
*Paper_Space
 70
0
 10
0.0
 20
0.0
 30
0.0
  3
*Paper_Space
  1

  0
ENDBLK
  5
1D
100
AcDbEntity
 67
1
  8
0
100
AcDbBlockEnd
  0
BLOCK
  5
24
100
AcDbEntity
  8
0
100
AcDbBlockBegin
  2
*Paper_Space0
 70
0
 10
0.0
 20
0.0
 30
0.0
  3
*Paper_Space0
  1

  0
ENDBLK
  5
25
100
AcDbEntity
  8
0
100
AcDbBlockEnd
  0
ENDSEC
  0
SECTION
  2
ENTITIES
  0
LINE
  5
52
100
AcDbEntity
100
AcDbLine
  8
foundation
 62
256
370
-1
  6
ByLayer
 10
0.0
 20
0.0
 30
0.0
 11
160.0
 21
0.0
 31
0.0
  0
LINE
  5
53
100
AcDbEntity
100
AcDbLine
  8
foundation
 62
256
370
-1
  6
ByLayer
 10
160.0
 20
0.0
 30
0.0
 11
160.0
 21
-7.5
 31
0.0
  0
LINE
  5
54
100
AcDbEntity
100
AcDbLine
  8
foundation
 62
256
370
-1
  6
ByLayer
 10
160.0
 20
-7.5
 30
0.0
 11
144.0
 21
-7.5
 31
0.0
  0
LINE
  5
55
100
AcDbEntity
100
AcDbLine
  8
foundation
 62
256
370
-1
  6
ByLayer
 10
144.0
 20
-7.5
 30
0.0
 11
144.0
 21
-63.5
 31
0.0
  0
LINE
  5
56
100
AcDbEntity
100
AcDbLine
  8
foundation
 62
256
370
-1
  6
ByLayer
 10
144.0
 20
-63.5
 30
0.0
 11
296.0
 21
-63.5
 31
0.0
  0
LINE
  5
57
100
AcDbEntity
100
AcDbLine
  8
foundation
 62
256
370
-1
  6
ByLayer
 10
296.0
 20
-63.5
 30
0.0
 11
296.0
 21
-59.5
 31
0.0
  0
LINE
  5
58
100
AcDbEntity
100
AcDbLine
  8
foundation
 62
256
370
-1
  6
ByLayer
 10
296.0
 20
-59.5
 30
0.0
 11
311.5
 21
-59.5
 31
0.0
  0
LINE
  5
59
100
AcDbEntity
100
AcDbLine
  8
foundation
 62
256
370
-1
  6
ByLayer
 10
311.5
 20
-59.5
 30
0.0
 11
311.5
 21
-63.5
 31
0.0
  0
LINE
  5
5A
100
AcDbEntity
100
AcDbLine
  8
foundation
 62
256
370
-1
  6
ByLayer
 10
311.5
 20
-63.5
 30
0.0
 11
448.5
 21
-63.5
 31
0.0
  0
LINE
  5
5B
100
AcDbEntity
100
AcDbLine
  8
foundation
 62
256
370
-1
  6
ByLayer
 10
448.5
 20
-63.5
 30
0.0
 11
448.5
 21
16.5
 31
0.0
  0
LINE
  5
5C
100
AcDbEntity
100
AcDbLine
  8
foundation
 62
256
370
-1
  6
ByLayer
 10
448.5
 20
16.5
 30
0.0
 11
472.25
 21
16.5
 31
0.0
  0
LINE
  5
5D
100
AcDbEntity
100
AcDbLine
  8
foundation
 62
256
370
-1
  6
ByLayer
 10
472.25
 20
16.5
 30
0.0
 11
472.25
 21
148.5
 31
0.0
  0
LINE
  5
5E
100
AcDbEntity
100
AcDbLine
  8
foundation
 62
256
370
-1
  6
ByLayer
 10
472.25
 20
148.5
 30
0.0
 11
448.5
 21
148.5
 31
0.0
  0
LINE
  5
5F
100
AcDbEntity
100
AcDbLine
  8
foundation
 62
256
370
-1
  6
ByLayer
 10
448.5
 20
148.5
 30
0.0
 11
448.5
 21
232.5
 31
0.0
  0
LINE
  5
60
100
AcDbEntity
100
AcDbLine
  8
foundation
 62
256
370
-1
  6
ByLayer
 10
448.5
 20
232.5
 30
0.0
 11
472.5
 21
232.5
 31
0.0
  0
LINE
  5
61
100
AcDbEntity
100
AcDbLine
  8
foundation
 62
256
370
-1
  6
ByLayer
 10
472.5
 20
232.5
 30
0.0
 11
472.5
 21
366.5
 31
0.0
  0
LINE
  5
62
100
AcDbEntity
100
AcDbLine
  8
foundation
 62
256
370
-1
  6
ByLayer
 10
472.5
 20
366.5
 30
0.0
 11
448.5
 21
366.5
 31
0.0
  0
LINE
  5
63
100
AcDbEntity
100
AcDbLine
  8
foundation
 62
256
370
-1
  6
ByLayer
 10
448.5
 20
366.5
 30
0.0
 11
448.5
 21
446.5
 31
0.0
  0
LINE
  5
64
100
AcDbEntity
100
AcDbLine
  8
foundation
 62
256
370
-1
  6
ByLayer
 10
448.5
 20
446.5
 30
0.0
 11
320.5
 21
446.5
 31
0.0
  0
LINE
  5
65
100
AcDbEntity
100
AcDbLine
  8
foundation
 62
256
370
-1
  6
ByLayer
 10
320.5
 20
446.5
 30
0.0
 11
320.5
 21
442.5
 31
0.0
  0
LINE
  5
66
100
AcDbEntity
100
AcDbLine
  8
foundation
 62
256
370
-1
  6
ByLayer
 10
320.5
 20
442.5
 30
0.0
 11
305.0
 21
442.5
 31
0.0
  0
LINE
  5
67
100
AcDbEntity
100
AcDbLine
  8
foundation
 62
256
370
-1
  6
ByLayer
 10
305.0
 20
442.5
 30
0.0
 11
305.0
 21
462.5
 31
0.0
  0
LINE
  5
68
100
AcDbEntity
100
AcDbLine
  8
foundation
 62
256
370
-1
  6
ByLayer
 10
305.0
 20
462.5
 30
0.0
 11
153.0
 21
462.5
 31
0.0
  0
LINE
  5
69
100
AcDbEntity
100
AcDbLine
  8
foundation
 62
256
370
-1
  6
ByLayer
 10
153.0
 20
462.5
 30
0.0
 11
153.0
 21
458.5
 31
0.0
  0
LINE
  5
6A
100
AcDbEntity
100
AcDbLine
  8
foundation
 62
256
370
-1
  6
ByLayer
 10
153.0
 20
458.5
 30
0.0
 11
137.5
 21
458.5
 31
0.0
  0
LINE
  5
6B
100
AcDbEntity
100
AcDbLine
  8
foundation
 62
256
370
-1
  6
ByLayer
 10
137.5
 20
458.5
 30
0.0
 11
137.5
 21
462.5
 31
0.0
  0
LINE
  5
6C
100
AcDbEntity
100
AcDbLine
  8
foundation
 62
256
370
-1
  6
ByLayer
 10
137.5
 20
462.5
 30
0.0
 11
41.5
 21
462.5
 31
0.0
  0
LINE
  5
6D
100
AcDbEntity
100
AcDbLine
  8
foundation
 62
256
370
-1
  6
ByLayer
 10
41.5
 20
462.5
 30
0.0
 11
41.5
 21
469.75
 31
0.0
  0
LINE
  5
6E
100
AcDbEntity
100
AcDbLine
  8
foundation
 62
256
370
-1
  6
ByLayer
 10
41.5
 20
469.75
 30
0.0
 11
1.25
 21
469.75
 31
0.0
  0
LINE
  5
6F
100
AcDbEntity
100
AcDbLine
  8
foundation
 62
256
370
-1
  6
ByLayer
 10
1.25
 20
469.75
 30
0.0
 11
1.25
 21
462.5
 31
0.0
  0
LINE
  5
70
100
AcDbEntity
100
AcDbLine
  8
foundation
 62
256
370
-1
  6
ByLayer
 10
1.25
 20
462.5
 30
0.0
 11
-10.5
 21
462.5
 31
0.0
  0
LINE
  5
71
100
AcDbEntity
100
AcDbLine
  8
foundation
 62
256
370
-1
  6
ByLayer
 10
-10.5
 20
462.5
 30
0.0
 11
-10.5
 21
458.5
 31
0.0
  0
LINE
  5
72
100
AcDbEntity
100
AcDbLine
  8
foundation
 62
256
370
-1
  6
ByLayer
 10
-10.5
 20
458.5
 30
0.0
 11
-26.0
 21
458.5
 31
0.0
  0
LINE
  5
73
100
AcDbEntity
100
AcDbLine
  8
foundation
 62
256
370
-1
  6
ByLayer
 10
-26.0
 20
458.5
 30
0.0
 11
-26.0
 21
462.5
 31
0.0
  0
LINE
  5
74
100
AcDbEntity
100
AcDbLine
  8
foundation
 62
256
370
-1
  6
ByLayer
 10
0.0
 20
0.0
 30
0.0
 11
0.0
 21
316.5
 31
0.0
  0
LINE
  5
75
100
AcDbEntity
100
AcDbLine
  8
foundation
 62
256
370
-1
  6
ByLayer
 10
0.0
 20
316.5
 30
0.0
 11
-16.0
 21
316.5
 31
0.0
  0
LINE
  5
76
100
AcDbEntity
100
AcDbLine
  8
foundation
 62
256
370
-1
  6
ByLayer
 10
-16.0
 20
316.5
 30
0.0
 11
-16.0
 21
320.5
 31
0.0
  0
LINE
  5
77
100
AcDbEntity
100
AcDbLine
  8
foundation
 62
256
370
-1
  6
ByLayer
 10
-16.0
 20
320.5
 30
0.0
 11
-31.25
 21
320.5
 31
0.0
  0
LINE
  5
78
100
AcDbEntity
100
AcDbLine
  8
foundation
 62
256
370
-1
  6
ByLayer
 10
-31.25
 20
320.5
 30
0.0
 11
-31.25
 21
316.5
 31
0.0
  0
LINE
  5
79
100
AcDbEntity
100
AcDbLine
  8
foundation
 62
256
370
-1
  6
ByLayer
 10
-26.0
 20
462.5
 30
0.0
 11
-107.75
 21
462.5137573078065998
 31
0.0
  0
LINE
  5
7A
100
AcDbEntity
100
AcDbLine
  8
foundation
 62
256
370
-1
  6
ByLayer
 10
-31.25
 20
316.5
 30
0.0
 11
-107.75
 21
316.4712024232926524
 31
0.0
  0
LINE
  5
7B
100
AcDbEntity
100
AcDbLine
  8
foundation
 62
256
370
-1
  6
ByLayer
 10
-107.75
 20
316.4712024232926524
 30
0.0
 11
-107.75
 21
462.5137573078065998
 31
0.0
  0
LINE
  5
7C
100
AcDbEntity
100
AcDbLine
  8
partition_wall
 62
256
370
-1
  6
ByLayer
 10
472.0
 20
366.0
 30
0.0
 11
472.0
 21
233.0
 31
0.0
  0
LINE
  5
7D
100
AcDbEntity
100
AcDbLine
  8
partition_wall
 62
256
370
-1
  6
ByLayer
 10
472.0
 20
233.0
 30
0.0
 11
448.0
 21
233.0
 31
0.0
  0
LINE
  5
7E
100
AcDbEntity
100
AcDbLine
  8
partition_wall
 62
256
370
-1
  6
ByLayer
 10
448.0
 20
233.0
 30
0.0
 11
448.0
 21
148.0
 31
0.0
  0
LINE
  5
7F
100
AcDbEntity
100
AcDbLine
  8
partition_wall
 62
256
370
-1
  6
ByLayer
 10
448.0
 20
148.0
 30
0.0
 11
471.75
 21
148.0
 31
0.0
  0
LINE
  5
80
100
AcDbEntity
100
AcDbLine
  8
partition_wall
 62
256
370
-1
  6
ByLayer
 10
471.75
 20
148.0
 30
0.0
 11
471.75
 21
17.0
 31
0.0
  0
LINE
  5
81
100
AcDbEntity
100
AcDbLine
  8
partition_wall
 62
256
370
-1
  6
ByLayer
 10
471.75
 20
17.0
 30
0.0
 11
448.0
 21
17.0
 31
0.0
  0
LINE
  5
82
100
AcDbEntity
100
AcDbLine
  8
partition_wall
 62
256
370
-1
  6
ByLayer
 10
448.0
 20
17.0
 30
0.0
 11
448.0
 21
-63.0
 31
0.0
  0
LINE
  5
83
100
AcDbEntity
100
AcDbLine
  8
partition_wall
 62
256
370
-1
  6
ByLayer
 10
448.0
 20
-63.0
 30
0.0
 11
312.0
 21
-63.0
 31
0.0
  0
LINE
  5
84
100
AcDbEntity
100
AcDbLine
  8
partition_wall
 62
256
370
-1
  6
ByLayer
 10
312.0
 20
-63.0
 30
0.0
 11
312.0
 21
-59.0
 31
0.0
  0
LINE
  5
85
100
AcDbEntity
100
AcDbLine
  8
partition_wall
 62
256
370
-1
  6
ByLayer
 10
444.0
 20
-59.0
 30
0.0
 11
444.0
 21
21.0
 31
0.0
  0
LINE
  5
86
100
AcDbEntity
100
AcDbLine
  8
partition_wall
 62
256
370
-1
  6
ByLayer
 10
444.0
 20
21.0
 30
0.0
 11
467.75
 21
21.0
 31
0.0
  0
LINE
  5
87
100
AcDbEntity
100
AcDbLine
  8
partition_wall
 62
256
370
-1
  6
ByLayer
 10
467.75
 20
21.0
 30
0.0
 11
467.75
 21
144.0
 31
0.0
  0
LINE
  5
88
100
AcDbEntity
100
AcDbLine
  8
partition_wall
 62
256
370
-1
  6
ByLayer
 10
467.75
 20
144.0
 30
0.0
 11
444.0
 21
144.0
 31
0.0
  0
LINE
  5
89
100
AcDbEntity
100
AcDbLine
  8
partition_wall
 62
256
370
-1
  6
ByLayer
 10
444.0
 20
144.0
 30
0.0
 11
444.0
 21
237.0
 31
0.0
  0
LINE
  5
8A
100
AcDbEntity
100
AcDbLine
  8
partition_wall
 62
256
370
-1
  6
ByLayer
 10
444.0
 20
237.0
 30
0.0
 11
468.0
 21
237.0
 31
0.0
  0
LINE
  5
8B
100
AcDbEntity
100
AcDbLine
  8
partition_wall
 62
256
370
-1
  6
ByLayer
 10
468.0
 20
237.0
 30
0.0
 11
468.0
 21
362.0
 31
0.0
  0
LINE
  5
8C
100
AcDbEntity
100
AcDbLine
  8
girders_posts
 62
256
370
-1
  6
ByLayer
 10
311.25
 20
447.0
 30
0.0
 11
305.75
 21
447.0
 31
0.0
  0
LINE
  5
8D
100
AcDbEntity
100
AcDbLine
  8
girders_posts
 62
256
370
-1
  6
ByLayer
 10
305.75
 20
447.0
 30
0.0
 11
305.75
 21
-64.25
 31
0.0
  0
LINE
  5
8E
100
AcDbEntity
100
AcDbLine
  8
girders_posts
 62
256
370
-1
  6
ByLayer
 10
311.25
 20
-64.25
 30
0.0
 11
311.25
 21
447.0
 31
0.0
  0
LINE
  5
8F
100
AcDbEntity
100
AcDbLine
  8
girders_posts
 62
256
370
-1
  6
ByLayer
 10
305.75
 20
-64.25
 30
0.0
 11
311.25
 21
-64.25
 31
0.0
  0
LINE
  5
90
100
AcDbEntity
100
AcDbLine
  8
girders_posts
 62
256
370
-1
  6
ByLayer
 10
151.5
 20
464.0
 30
0.0
 11
146.0
 21
464.0
 31
0.0
  0
LINE
  5
91
100
AcDbEntity
100
AcDbLine
  8
girders_posts
 62
256
370
-1
  6
ByLayer
 10
146.0
 20
464.0
 30
0.0
 11
146.0
 21
-8.0
 31
0.0
  0
LINE
  5
92
100
AcDbEntity
100
AcDbLine
  8
girders_posts
 62
256
370
-1
  6
ByLayer
 10
-17.5
 20
462.5
 30
0.0
 11
-23.0
 21
462.5
 31
0.0
  0
LINE
  5
93
100
AcDbEntity
100
AcDbLine
  8
girders_posts
 62
256
370
-1
  6
ByLayer
 10
-23.0
 20
462.5
 30
0.0
 11
-23.0
 21
316.5
 31
0.0
  0
LINE
  5
94
100
AcDbEntity
100
AcDbLine
  8
girders_posts
 62
256
370
-1
  6
ByLayer
 10
-23.0
 20
316.5
 30
0.0
 11
-17.5
 21
316.5
 31
0.0
  0
LINE
  5
95
100
AcDbEntity
100
AcDbLine
  8
girders_posts
 62
256
370
-1
  6
ByLayer
 10
-17.5
 20
316.5
 30
0.0
 11
-17.5
 21
462.5
 31
0.0
  0
LINE
  5
96
100
AcDbEntity
100
AcDbLine
  8
girders_posts
 62
256
370
-1
  6
ByLayer
 10
151.5
 20
-8.0
 30
0.0
 11
151.5
 21
464.0
 31
0.0
  0
LINE
  5
97
100
AcDbEntity
100
AcDbLine
  8
girders_posts
 62
256
370
-1
  6
ByLayer
 10
146.0
 20
-8.0
 30
0.0
 11
151.5
 21
-8.0
 31
0.0
  0
CIRCLE
  5
98
100
AcDbEntity
100
AcDbCircle
  8
plumbing
 62
256
370
-1
  6
ByLayer
 10
441.5
 20
410.5
 30
0.0
 40
6.0
  0
CIRCLE
  5
99
100
AcDbEntity
100
AcDbCircle
  8
plumbing
 62
256
370
-1
  6
ByLayer
 10
441.5
 20
410.5
 30
0.0
 40
5.4083269131959844
  0
CIRCLE
  5
9A
100
AcDbEntity
100
AcDbCircle
  8
plumbing
 62
256
370
-1
  6
ByLayer
 10
302.0
 20
454.75
 30
0.0
 40
1.75
  0
CIRCLE
  5
9B
100
AcDbEntity
100
AcDbCircle
  8
plumbing
 62
256
370
-1
  6
ByLayer
 10
302.0
 20
448.75
 30
0.0
 40
1.75
  0
CIRCLE
  5
9C
100
AcDbEntity
100
AcDbCircle
  8
plumbing
 62
256
370
-1
  6
ByLayer
 10
185.0
 20
330.0
 30
0.0
 40
11.5
  0
CIRCLE
  5
9D
100
AcDbEntity
100
AcDbCircle
  8
plumbing
 62
256
370
-1
  6
ByLayer
 10
195.0
 20
412.5
 30
0.0
 40
1.25
  0
CIRCLE
  5
9E
100
AcDbEntity
100
AcDbCircle
  8
plumbing
 62
256
370
-1
  6
ByLayer
 10
232.0
 20
445.25
 30
0.0
 40
2.25
  0
CIRCLE
  5
9F
100
AcDbEntity
100
AcDbCircle
  8
plumbing
 62
256
370
-1
  6
ByLayer
 10
152.0
 20
-11.0
 30
0.0
 40
2.0
  0
LINE
  5
A0
100
AcDbEntity
100
AcDbLine
  8
heating
 62
256
370
-1
  6
ByLayer
 10
248.0
 20
-64.0
 30
0.0
 11
248.0
 21
-64.0
 31
0.0
  0
LINE
  5
A1
100
AcDbEntity
100
AcDbLine
  8
heating
 62
256
370
-1
  6
ByLayer
 10
248.0
 20
-64.0
 30
0.0
 11
248.0
 21
-64.0
 31
0.0
  0
LINE
  5
A2
100
AcDbEntity
100
AcDbLine
  8
heating
 62
256
370
-1
  6
ByLayer
 10
248.0
 20
-64.0
 30
0.0
 11
248.0
 21
-64.0
 31
0.0
  0
LINE
  5
A3
100
AcDbEntity
100
AcDbLine
  8
heating
 62
256
370
-1
  6
ByLayer
 10
323.0
 20
250.0
 30
0.0
 11
312.0
 21
250.0
 31
0.0
  0
LINE
  5
A4
100
AcDbEntity
100
AcDbLine
  8
heating
 62
256
370
-1
  6
ByLayer
 10
176.4378953279255597
 20
2.5
 30
0.0
 11
159.0
 21
2.5
 31
0.0
  0
LINE
  5
A5
100
AcDbEntity
100
AcDbLine
  8
heating
 62
256
370
-1
  6
ByLayer
 10
194.1028062671347527
 20
-55.1512782202291589
 30
0.0
 11
180.0
 21
-55.1512782202291589
 31
0.0
  0
LINE
  5
A6
100
AcDbEntity
100
AcDbLine
  8
heating
 62
256
370
-1
  6
ByLayer
 10
204.0
 20
-8.0
 30
0.0
 11
234.5990454595684298
 21
-38.5990454595684369
 31
0.0
  0
LINE
  5
A7
100
AcDbEntity
100
AcDbLine
  8
heating
 62
256
370
-1
  6
ByLayer
 10
210.0
 20
-2.0
 30
0.0
 11
246.5406670531189661
 21
-38.5406670531189661
 31
0.0
  0
LINE
  5
A8
100
AcDbEntity
100
AcDbLine
  8
heating
 62
256
370
-1
  6
ByLayer
 10
234.5990454595684298
 20
-38.5990454595684369
 30
0.0
 11
234.6358017531520943
 21
-63.5
 31
0.0
  0
LINE
  5
A9
100
AcDbEntity
100
AcDbLine
  8
heating
 62
256
370
-1
  6
ByLayer
 10
246.5406670531189661
 20
-38.5406670531189661
 30
0.0
 11
246.402542556065896
 21
-63.5
 31
0.0
  0
MTEXT
  5
AA
100
AcDbEntity
100
AcDbMText
  8
text
 62
256
370
-1
  6
ByLayer
 10
166.0
 20
340.0
 30
0.0
 40
6.0
 41
100.0
 71
1
 72
2
  1
hot\~water\Ptank
  7
normallatin1
 50
0.0
 73
1
 44
1.0
  0
MTEXT
  5
AB
100
AcDbEntity
100
AcDbMText
  8
text
 62
256
370
-1
  6
ByLayer
 10
224.0
 20
264.0
 30
0.0
 40
6.0
 41
100.0
 71
1
 72
2
  1
stairs
  7
normallatin1
 50
0.0
 73
1
 44
1.0
  0
MTEXT
  5
AC
100
AcDbEntity
100
AcDbMText
  8
text
 62
256
370
-1
  6
ByLayer
 10
108.0
 20
-32.6666666666666643
 30
0.0
 40
6.0
 41
100.0
 71
1
 72
2
  1
electrical\Pservice
  7
normallatin1
 50
0.0
 73
1
 44
1.0
  0
CIRCLE
  5
AD
100
AcDbEntity
100
AcDbCircle
  8
girders_posts
 62
256
370
-1
  6
ByLayer
 10
308.5
 20
317.5
 30
0.0
 40
2.1213203435596424
  0
CIRCLE
  5
AE
100
AcDbEntity
100
AcDbCircle
  8
girders_posts
 62
256
370
-1
  6
ByLayer
 10
308.5
 20
192.5
 30
0.0
 40
2.1213203435596424
  0
CIRCLE
  5
AF
100
AcDbEntity
100
AcDbCircle
  8
girders_posts
 62
256
370
-1
  6
ByLayer
 10
308.5
 20
66.0
 30
0.0
 40
2.1213203435596424
  0
LINE
  5
B0
100
AcDbEntity
100
AcDbLine
  8
plumbing
 62
256
370
-1
  6
ByLayer
 10
300.2535276589754858
 20
448.6389398269565163
 30
0.0
 11
303.0
 21
448.6389398269565163
 31
0.0
  0
LINE
  5
B1
100
AcDbEntity
100
AcDbLine
  8
plumbing
 62
256
370
-1
  6
ByLayer
 10
303.0
 20
448.6389398269565163
 30
0.0
 11
303.0
 21
382.0
 31
0.0
  0
LINE
  5
B2
100
AcDbEntity
100
AcDbLine
  8
plumbing
 62
256
370
-1
  6
ByLayer
 10
303.0
 20
382.0
 30
0.0
 11
300.2535276589754858
 21
382.0
 31
0.0
  0
LINE
  5
B3
100
AcDbEntity
100
AcDbLine
  8
plumbing
 62
256
370
-1
  6
ByLayer
 10
300.2535276589754858
 20
382.0
 30
0.0
 11
300.2535276589754858
 21
448.6389398269565163
 31
0.0
  0
LINE
  5
B4
100
AcDbEntity
100
AcDbLine
  8
heating
 62
256
370
-1
  6
ByLayer
 10
424.0
 20
446.0
 30
0.0
 11
445.0525588832576318
 21
441.0
 31
0.0
  0
LINE
  5
B5
100
AcDbEntity
100
AcDbLine
  8
heating
 62
256
370
-1
  6
ByLayer
 10
442.0525588832576318
 20
435.803847577293368
 30
0.0
 11
421.0
 21
440.803847577293368
 31
0.0
  0
LINE
  5
B6
100
AcDbEntity
100
AcDbLine
  8
heating
 62
256
370
-1
  6
ByLayer
 10
421.0
 20
440.803847577293368
 30
0.0
 11
424.0
 21
446.0
 31
0.0
  0
LINE
  5
B7
100
AcDbEntity
100
AcDbLine
  8
heating
 62
256
370
-1
  6
ByLayer
 10
442.0525588832576318
 20
435.803847577293368
 30
0.0
 11
445.0525588832576318
 21
441.0
 31
0.0
  0
MTEXT
  5
B8
100
AcDbEntity
100
AcDbMText
  8
text
 62
256
370
-1
  6
ByLayer
 10
434.0
 20
450.0
 30
0.0
 40
3.0
 41
100.0
 71
1
 72
2
  1
overhead\Pdryer\~vent
  7
normallatin1
 50
0.0
 73
1
 44
1.0
  0
LINE
  5
B9
100
AcDbEntity
100
AcDbLine
  8
partition_wall
 62
256
370
-1
  6
ByLayer
 10
212.0
 20
233.0
 30
0.0
 11
212.0
 21
350.0
 31
0.0
  0
LINE
  5
BA
100
AcDbEntity
100
AcDbLine
  8
partition_wall
 62
256
370
-1
  6
ByLayer
 10
321.0
 20
442.0
 30
0.0
 11
321.0
 21
444.0
 31
0.0
  0
LINE
  5
BB
100
AcDbEntity
100
AcDbLine
  8
partition_wall
 62
256
370
-1
  6
ByLayer
 10
321.0
 20
444.0
 30
0.0
 11
433.5
 21
444.0
 31
0.0
  0
LINE
  5
BC
100
AcDbEntity
100
AcDbLine
  8
partition_wall
 62
256
370
-1
  6
ByLayer
 10
302.0
 20
442.0
 30
0.0
 11
321.0
 21
442.0
 31
0.0
  0
LINE
  5
BD
100
AcDbEntity
100
AcDbLine
  8
partition_wall
 62
256
370
-1
  6
ByLayer
 10
216.0
 20
194.0
 30
0.0
 11
216.0
 21
229.0
 31
0.0
  0
LINE
  5
BE
100
AcDbEntity
100
AcDbLine
  8
partition_wall
 62
256
370
-1
  6
ByLayer
 10
253.0
 20
229.0
 30
0.0
 11
253.0
 21
194.0
 31
0.0
  0
LINE
  5
BF
100
AcDbEntity
100
AcDbLine
  8
fixtures
 62
256
370
-1
  6
ByLayer
 10
222.0251705381383829
 20
456.7588525212207173
 30
0.0
 11
241.9289421394108786
 21
456.7588525212207173
 31
0.0
  0
LINE
  5
C0
100
AcDbEntity
100
AcDbLine
  8
fixtures
 62
256
370
-1
  6
ByLayer
 10
241.9289421394108786
 20
456.7588525212207173
 30
0.0
 11
241.9289421394108786
 21
448.816032868130776
 31
0.0
  0
LINE
  5
C1
100
AcDbEntity
100
AcDbLine
  8
fixtures
 62
256
370
-1
  6
ByLayer
 10
241.9289421394108786
 20
448.816032868130776
 30
0.0
 11
222.0251705381383829
 21
448.816032868130776
 31
0.0
  0
LINE
  5
C2
100
AcDbEntity
100
AcDbLine
  8
fixtures
 62
256
370
-1
  6
ByLayer
 10
222.0251705381383829
 20
448.816032868130776
 30
0.0
 11
222.0251705381383829
 21
456.7588525212207173
 31
0.0
  0
ELLIPSE
  5
C3
100
AcDbEntity
100
AcDbEllipse
  8
fixtures
 62
256
370
-1
  6
ByLayer
 10
232.0237788073222305
 20
441.1535480263262912
 30
0.0
 11
0.0
 21
-8.2231544643754546
 31
0.0
 40
0.761363636363641
 41
0.0
 42
6.2831853071795862
  0
MTEXT
  5
C4
100
AcDbEntity
100
AcDbMText
  8
text
 62
256
370
-1
  6
ByLayer
 10
224.0
 20
454.0
 30
0.0
 40
3.0
 41
100.0
 71
1
 72
2
  1
commode
  7
normallatin1
 50
0.0
 73
1
 44
1.0
  0
LINE
  5
C5
100
AcDbEntity
100
AcDbLine
  8
fixtures
 62
256
370
-1
  6
ByLayer
 10
274.0
 20
457.75
 30
0.0
 11
297.75
 21
457.75
 31
0.0
  0
MTEXT
  5
C6
100
AcDbEntity
100
AcDbMText
  8
text
 62
256
370
-1
  6
ByLayer
 10
165.3332666666666455
 20
184.6666666666666572
 30
0.0
 40
6.0
 41
100.0
 71
1
 72
2
  1
overhead\Pductwork
  7
normallatin1
 50
0.0
 73
1
 44
1.0
  0
LINE
  5
C7
100
AcDbEntity
100
AcDbLine
  8
fixtures
 62
256
370
-1
  6
ByLayer
 10
427.0
 20
438.0
 30
0.0
 11
396.0
 21
438.0
 31
0.0
  0
LINE
  5
C8
100
AcDbEntity
100
AcDbLine
  8
fixtures
 62
256
370
-1
  6
ByLayer
 10
396.0
 20
438.0
 30
0.0
 11
396.0
 21
409.0
 31
0.0
  0
LINE
  5
C9
100
AcDbEntity
100
AcDbLine
  8
fixtures
 62
256
370
-1
  6
ByLayer
 10
396.0
 20
409.0
 30
0.0
 11
427.0
 21
409.0
 31
0.0
  0
LINE
  5
CA
100
AcDbEntity
100
AcDbLine
  8
fixtures
 62
256
370
-1
  6
ByLayer
 10
427.0
 20
409.0
 30
0.0
 11
427.0
 21
438.0
 31
0.0
  0
LINE
  5
CB
100
AcDbEntity
100
AcDbLine
  8
fixtures
 62
256
370
-1
  6
ByLayer
 10
427.0
 20
409.0
 30
0.0
 11
427.0
 21
403.0
 31
0.0
  0
LINE
  5
CC
100
AcDbEntity
100
AcDbLine
  8
fixtures
 62
256
370
-1
  6
ByLayer
 10
427.0
 20
403.0
 30
0.0
 11
396.0
 21
403.0
 31
0.0
  0
LINE
  5
CD
100
AcDbEntity
100
AcDbLine
  8
fixtures
 62
256
370
-1
  6
ByLayer
 10
396.0
 20
403.0
 30
0.0
 11
396.0
 21
409.0
 31
0.0
  0
MTEXT
  5
CE
100
AcDbEntity
100
AcDbMText
  8
text
 62
256
370
-1
  6
ByLayer
 10
408.0
 20
420.0
 30
0.0
 40
3.0
 41
100.0
 71
1
 72
2
  1
fridge
  7
normallatin1
 50
0.0
 73
0
 44
1.0
  0
LINE
  5
CF
100
AcDbEntity
100
AcDbLine
  8
fixtures
 62
256
370
-1
  6
ByLayer
 10
397.0
 20
403.0
 30
0.0
 11
397.0
 21
401.75
 31
0.0
  0
ARC
  5
D0
100
AcDbEntity
  8
fixtures
 62
256
370
-1
  6
ByLayer
100
AcDbCircle
 10
397.5
 20
401.75
 30
0.0
 40
0.5
100
AcDbArc
 50
180.0
 51
270.0
  0
LINE
  5
D1
100
AcDbEntity
100
AcDbLine
  8
fixtures
 62
256
370
-1
  6
ByLayer
 10
398.0
 20
401.75
 30
0.0
 11
398.0
 21
403.0
 31
0.0
  0
LINE
  5
D2
100
AcDbEntity
100
AcDbLine
  8
fixtures
 62
256
370
-1
  6
ByLayer
 10
397.5
 20
401.25
 30
0.0
 11
397.5
 21
401.25
 31
0.0
  0
ARC
  5
D3
100
AcDbEntity
  8
fixtures
 62
256
370
-1
  6
ByLayer
100
AcDbCircle
 10
397.5
 20
401.75
 30
0.0
 40
0.5
100
AcDbArc
 50
270.0
 51
0.0
  0
LINE
  5
D4
100
AcDbEntity
100
AcDbLine
  8
partition_wall
 62
256
370
-1
  6
ByLayer
 10
472.0
 20
366.0
 30
0.0
 11
448.0
 21
366.0
 31
0.0
  0
LINE
  5
D5
100
AcDbEntity
100
AcDbLine
  8
partition_wall
 62
256
370
-1
  6
ByLayer
 10
468.0
 20
362.0
 30
0.0
 11
444.0
 21
362.0
 31
0.0
  0
LINE
  5
D6
100
AcDbEntity
100
AcDbLine
  8
partition_wall
 62
256
370
-1
  6
ByLayer
 10
448.0
 20
403.0
 30
0.0
 11
448.0
 21
366.0
 31
0.0
  0
LINE
  5
D7
100
AcDbEntity
100
AcDbLine
  8
partition_wall
 62
256
370
-1
  6
ByLayer
 10
444.0
 20
399.0
 30
0.0
 11
444.0
 21
362.0
 31
0.0
  0
LINE
  5
D8
100
AcDbEntity
100
AcDbLine
  8
fixtures
 62
256
370
-1
  6
ByLayer
 10
399.1875
 20
350.0
 30
0.0
 11
327.1875
 21
350.0
 31
0.0
  0
LINE
  5
D9
100
AcDbEntity
100
AcDbLine
  8
fixtures
 62
256
370
-1
  6
ByLayer
 10
399.1875
 20
371.0
 30
0.0
 11
399.1875
 21
350.0
 31
0.0
  0
ARC
  5
DA
100
AcDbEntity
  8
fixtures
 62
256
370
-1
  6
ByLayer
100
AcDbCircle
 10
395.1875
 20
371.0
 30
0.0
 40
4.0
100
AcDbArc
 50
0.0
 51
90.0
  0
ARC
  5
DB
100
AcDbEntity
  8
fixtures
 62
256
370
-1
  6
ByLayer
100
AcDbCircle
 10
404.0
 20
347.0
 30
0.0
 40
4.0
100
AcDbArc
 50
0.0
 51
90.0
  0
LINE
  5
DC
100
AcDbEntity
100
AcDbLine
  8
fixtures
 62
256
370
-1
  6
ByLayer
 10
408.0
 20
347.0
 30
0.0
 11
408.0
 21
336.0
 31
0.0
  0
ARC
  5
DD
100
AcDbEntity
  8
fixtures
 62
256
370
-1
  6
ByLayer
100
AcDbCircle
 10
404.0
 20
336.0
 30
0.0
 40
4.0
100
AcDbArc
 50
270.0
 51
0.0
  0
LINE
  5
DE
100
AcDbEntity
100
AcDbLine
  8
fixtures
 62
256
370
-1
  6
ByLayer
 10
404.0
 20
332.0
 30
0.0
 11
322.0
 21
332.0
 31
0.0
  0
ARC
  5
DF
100
AcDbEntity
  8
fixtures
 62
256
370
-1
  6
ByLayer
100
AcDbCircle
 10
322.0
 20
336.0
 30
0.0
 40
4.0
100
AcDbArc
 50
180.0
 51
270.0
  0
LINE
  5
E0
100
AcDbEntity
100
AcDbLine
  8
fixtures
 62
256
370
-1
  6
ByLayer
 10
327.125
 20
375.0
 30
0.0
 11
395.1875
 21
375.0
 31
0.0
  0
LINE
  5
E1
100
AcDbEntity
100
AcDbLine
  8
fixtures
 62
256
370
-1
  6
ByLayer
 10
327.1250000000000568
 20
439.875
 30
0.0
 11
327.1249999999998295
 21
375.0
 31
0.0
  0
LINE
  5
E2
100
AcDbEntity
100
AcDbLine
  8
partition_wall
 62
256
370
-1
  6
ByLayer
 10
177.0
 20
387.0
 30
0.0
 11
177.0
 21
390.25
 31
0.0
  0
LINE
  5
E3
100
AcDbEntity
100
AcDbLine
  8
partition_wall
 62
256
370
-1
  6
ByLayer
 10
177.0
 20
357.0
 30
0.0
 11
177.0
 21
354.0
 31
0.0
  0
POINT
  5
E4
100
AcDbEntity
100
AcDbPoint
  8
partition_wall
 62
256
370
-1
  6
ByLayer
 10
293.5
 20
354.0
 30
0.0
  0
LINE
  5
E5
100
AcDbEntity
100
AcDbLine
  8
partition_wall
 62
256
370
-1
  6
ByLayer
 10
293.5
 20
354.0
 30
0.0
 11
298.0
 21
354.0
 31
0.0
  0
LINE
  5
E6
100
AcDbEntity
100
AcDbLine
  8
partition_wall
 62
256
370
-1
  6
ByLayer
 10
212.0
 20
350.0
 30
0.0
 11
173.0
 21
350.0
 31
0.0
  0
LINE
  5
E7
100
AcDbEntity
100
AcDbLine
  8
partition_wall
 62
256
370
-1
  6
ByLayer
 10
249.5
 20
354.0
 30
0.0
 11
263.5
 21
354.0
 31
0.0
  0
LINE
  5
E8
100
AcDbEntity
100
AcDbLine
  8
partition_wall
 62
256
370
-1
  6
ByLayer
 10
298.0
 20
390.25
 30
0.0
 11
298.0
 21
354.0
 31
0.0
  0
LINE
  5
E9
100
AcDbEntity
100
AcDbLine
  8
fixtures
 62
256
370
-1
  6
ByLayer
 10
297.75
 20
457.75
 30
0.0
 11
297.75
 21
395.125
 31
0.0
  0
LINE
  5
EA
100
AcDbEntity
100
AcDbLine
  8
fixtures
 62
256
370
-1
  6
ByLayer
 10
297.75
 20
395.125
 30
0.0
 11
274.0
 21
395.125
 31
0.0
  0
LINE
  5
EB
100
AcDbEntity
100
AcDbLine
  8
fixtures
 62
256
370
-1
  6
ByLayer
 10
274.0
 20
395.125
 30
0.0
 11
274.0
 21
457.75
 31
0.0
  0
LINE
  5
EC
100
AcDbEntity
100
AcDbLine
  8
plumbing
 62
256
370
-1
  6
ByLayer
 10
299.5
 20
456.5
 30
0.0
 11
301.5
 21
456.5
 31
0.0
  0
LINE
  5
ED
100
AcDbEntity
100
AcDbLine
  8
plumbing
 62
256
370
-1
  6
ByLayer
 10
301.5
 20
456.5
 30
0.0
 11
301.5
 21
453.0
 31
0.0
  0
LINE
  5
EE
100
AcDbEntity
100
AcDbLine
  8
plumbing
 62
256
370
-1
  6
ByLayer
 10
301.5
 20
453.0
 30
0.0
 11
299.5
 21
453.0
 31
0.0
  0
LINE
  5
EF
100
AcDbEntity
100
AcDbLine
  8
plumbing
 62
256
370
-1
  6
ByLayer
 10
299.5
 20
453.0
 30
0.0
 11
299.5
 21
456.5
 31
0.0
  0
LINE
  5
F0
100
AcDbEntity
100
AcDbLine
  8
fixtures
 62
256
370
-1
  6
ByLayer
 10
213.0
 20
395.0
 30
0.0
 11
177.125
 21
395.0
 31
0.0
  0
POINT
  5
F1
100
AcDbEntity
100
AcDbPoint
  8
plumbing
 62
256
370
-1
  6
ByLayer
 10
177.0
 20
394.875
 30
0.0
  0
LINE
  5
F2
100
AcDbEntity
100
AcDbLine
  8
partition_wall
 62
256
370
-1
  6
ByLayer
 10
177.0
 20
430.875
 30
0.0
 11
213.5
 21
430.875
 31
0.0
  0
LINE
  5
F3
100
AcDbEntity
100
AcDbLine
  8
partition_wall
 62
256
370
-1
  6
ByLayer
 10
177.0
 20
394.875
 30
0.0
 11
177.0
 21
430.875
 31
0.0
  0
LINE
  5
F4
100
AcDbEntity
100
AcDbLine
  8
fixtures
 62
256
370
-1
  6
ByLayer
 10
213.0
 20
430.75
 30
0.0
 11
213.0
 21
395.0
 31
0.0
  0
LINE
  5
F5
100
AcDbEntity
100
AcDbLine
  8
fixtures
 62
256
370
-1
  6
ByLayer
 10
177.125
 20
430.75
 30
0.0
 11
213.0
 21
430.75
 31
0.0
  0
LINE
  5
F6
100
AcDbEntity
100
AcDbLine
  8
fixtures
 62
256
370
-1
  6
ByLayer
 10
177.125
 20
395.0
 30
0.0
 11
177.125
 21
430.75
 31
0.0
  0
LINE
  5
F7
100
AcDbEntity
100
AcDbLine
  8
fixtures
 62
256
370
-1
  6
ByLayer
 10
177.125
 20
395.0
 30
0.0
 11
213.0
 21
430.75
 31
0.0
  0
LINE
  5
F8
100
AcDbEntity
100
AcDbLine
  8
fixtures
 62
256
370
-1
  6
ByLayer
 10
177.125
 20
430.75
 30
0.0
 11
213.0
 21
395.0
 31
0.0
  0
LINE
  5
F9
100
AcDbEntity
100
AcDbLine
  8
partition_wall
 62
256
370
-1
  6
ByLayer
 10
199.5
 20
458.0
 30
0.0
 11
298.0
 21
458.0
 31
0.0
  0
LINE
  5
FA
100
AcDbEntity
100
AcDbLine
  8
fixtures
 62
256
370
-1
  6
ByLayer
 10
274.0
 20
410.0
 30
0.0
 11
297.75
 21
410.0
 31
0.0
  0
LINE
  5
FB
100
AcDbEntity
100
AcDbLine
  8
fixtures
 62
256
370
-1
  6
ByLayer
 10
274.0
 20
422.0
 30
0.0
 11
297.75
 21
422.0
 31
0.0
  0
MTEXT
  5
FC
100
AcDbEntity
100
AcDbMText
  8
text
 62
256
370
-1
  6
ByLayer
 10
276.0
 20
414.0
 30
0.0
 40
1.0
 41
100.0
 71
1
 72
2
  1
12"\~base
  7
normallatin1
 50
0.0
 73
0
 44
1.0
  0
MTEXT
  5
FD
100
AcDbEntity
100
AcDbMText
  8
text
 62
256
370
-1
  6
ByLayer
 10
276.0
 20
456.0
 30
0.0
 40
2.0
 41
100.0
 71
1
 72
2
  1
drain\~service\Paccess
  7
normallatin1
 50
0.0
 73
0
 44
1.0
  0
MTEXT
  5
FE
100
AcDbEntity
100
AcDbMText
  8
text
 62
256
370
-1
  6
ByLayer
 10
276.0
 20
426.0
 30
0.0
 40
1.0
 41
100.0
 71
1
 72
2
  1
36"\~base
  7
normallatin1
 50
0.0
 73
0
 44
1.0
  0
MTEXT
  5
FF
100
AcDbEntity
100
AcDbMText
  8
text
 62
256
370
-1
  6
ByLayer
 10
276.0
 20
400.0
 30
0.0
 40
1.0
 41
100.0
 71
1
 72
2
  1
no\~base
  7
normallatin1
 50
0.0
 73
0
 44
1.0
  0
LINE
  5
100
100
AcDbEntity
100
AcDbLine
  8
fixtures
 62
256
370
-1
  6
ByLayer
 10
212.0
 20
458.0
 30
0.0
 11
212.0
 21
435.0
 31
0.0
  0
CIRCLE
  5
101
100
AcDbEntity
100
AcDbCircle
  8
plumbing
 62
256
370
-1
  6
ByLayer
 10
416.0
 20
70.0
 30
0.0
 40
2.0
  0
MTEXT
  5
102
100
AcDbEntity
100
AcDbMText
  8
text
 62
256
370
-1
  6
ByLayer
 10
417.0
 20
68.0
 30
0.0
 40
2.0
 41
100.0
 71
1
 72
2
  1
under-floor\Pabs\~drain\Pservice\Paccess
  7
normallatin1
 50
0.0
 73
0
 44
1.0
  0
LINE
  5
103
100
AcDbEntity
100
AcDbLine
  8
partition_wall
 62
256
370
-1
  6
ByLayer
 10
298.0
 20
394.875
 30
0.0
 11
298.0
 21
458.0
 31
0.0
  0
LINE
  5
104
100
AcDbEntity
100
AcDbLine
  8
partition_wall
 62
256
370
-1
  6
ByLayer
 10
234.0
 20
394.875
 30
0.0
 11
234.0
 21
390.25
 31
0.0
  0
LINE
  5
105
100
AcDbEntity
100
AcDbLine
  8
partition_wall
 62
256
370
-1
  6
ByLayer
 10
264.0
 20
394.875
 30
0.0
 11
264.0
 21
390.25
 31
0.0
  0
LINE
  5
106
100
AcDbEntity
100
AcDbLine
  8
partition_wall
 62
256
370
-1
  6
ByLayer
 10
177.0
 20
390.25
 30
0.0
 11
234.0
 21
390.25
 31
0.0
  0
LINE
  5
107
100
AcDbEntity
100
AcDbLine
  8
partition_wall
 62
256
370
-1
  6
ByLayer
 10
177.0
 20
394.875
 30
0.0
 11
234.0
 21
394.875
 31
0.0
  0
LINE
  5
108
100
AcDbEntity
100
AcDbLine
  8
partition_wall
 62
256
370
-1
  6
ByLayer
 10
264.0
 20
394.875
 30
0.0
 11
298.0
 21
394.875
 31
0.0
  0
LINE
  5
109
100
AcDbEntity
100
AcDbLine
  8
partition_wall
 62
256
370
-1
  6
ByLayer
 10
264.0
 20
390.25
 30
0.0
 11
298.0
 21
390.25
 31
0.0
  0
LINE
  5
10A
100
AcDbEntity
100
AcDbLine
  8
partition_wall
 62
256
370
-1
  6
ByLayer
 10
267.3762886940357362
 20
366.4844555433772939
 30
0.0
 11
291.625
 21
352.4844555433772939
 31
0.0
  0
LINE
  5
10B
100
AcDbEntity
100
AcDbLine
  8
partition_wall
 62
256
370
-1
  6
ByLayer
 10
291.625
 20
352.4844555433772939
 30
0.0
 11
292.5
 21
354.0
 31
0.0
  0
LINE
  5
10C
100
AcDbEntity
100
AcDbLine
  8
partition_wall
 62
256
370
-1
  6
ByLayer
 10
292.5
 20
354.0
 30
0.0
 11
268.2512886940357362
 21
368.0000000000000568
 31
0.0
  0
LINE
  5
10D
100
AcDbEntity
100
AcDbLine
  8
partition_wall
 62
256
370
-1
  6
ByLayer
 10
268.2512886940357362
 20
368.0000000000000568
 30
0.0
 11
267.3762886940357362
 21
366.4844555433772939
 31
0.0
  0
MTEXT
  5
10E
100
AcDbEntity
100
AcDbMText
  8
text
 62
256
370
-1
  6
ByLayer
 10
168.0
 20
372.0
 30
0.0
 40
2.0
 41
100.0
 71
1
 72
2
  1
2'\~4"\~door
  7
normallatin1
 50
0.0
 73
0
 44
1.0
  0
MTEXT
  5
10F
100
AcDbEntity
100
AcDbMText
  8
text
 62
256
370
-1
  6
ByLayer
 10
244.0
 20
394.0
 30
0.0
 40
2.0
 41
100.0
 71
1
 72
2
  1
2'\~4"\~door
  7
normallatin1
 50
0.0
 73
0
 44
1.0
  0
CIRCLE
  5
110
100
AcDbEntity
100
AcDbCircle
  8
girders_posts
 62
256
370
-1
  6
ByLayer
 10
148.5
 20
60.5
 30
0.0
 40
2.0615528128088303
  0
CIRCLE
  5
111
100
AcDbEntity
100
AcDbCircle
  8
girders_posts
 62
256
370
-1
  6
ByLayer
 10
148.5
 20
187.0
 30
0.0
 40
2.2360679774997898
  0
CIRCLE
  5
112
100
AcDbEntity
100
AcDbCircle
  8
girders_posts
 62
256
370
-1
  6
ByLayer
 10
148.5
 20
315.0
 30
0.0
 40
2.0615528128088303
  0
LINE
  5
113
100
AcDbEntity
100
AcDbLine
  8
fixtures
 62
256
370
-1
  6
ByLayer
 10
115.5
 20
462.0
 30
0.0
 11
75.5
 21
462.0
 31
0.0
  0
LINE
  5
114
100
AcDbEntity
100
AcDbLine
  8
fixtures
 62
256
370
-1
  6
ByLayer
 10
75.5
 20
462.0
 30
0.0
 11
75.5
 21
438.0
 31
0.0
  0
LINE
  5
115
100
AcDbEntity
100
AcDbLine
  8
fixtures
 62
256
370
-1
  6
ByLayer
 10
75.5
 20
438.0
 30
0.0
 11
115.5
 21
438.0
 31
0.0
  0
LINE
  5
116
100
AcDbEntity
100
AcDbLine
  8
fixtures
 62
256
370
-1
  6
ByLayer
 10
115.5
 20
438.0
 30
0.0
 11
115.5
 21
462.0
 31
0.0
  0
LINE
  5
117
100
AcDbEntity
100
AcDbLine
  8
fixtures
 62
256
370
-1
  6
ByLayer
 10
95.5
 20
462.0
 30
0.0
 11
95.5
 21
462.0
 31
0.0
  0
LINE
  5
118
100
AcDbEntity
100
AcDbLine
  8
fixtures
 62
256
370
-1
  6
ByLayer
 10
95.5
 20
462.0
 30
0.0
 11
95.5
 21
438.0
 31
0.0
  0
LINE
  5
119
100
AcDbEntity
100
AcDbLine
  8
fixtures
 62
256
370
-1
  6
ByLayer
 10
95.5
 20
438.0
 30
0.0
 11
95.5
 21
438.0
 31
0.0
  0
LINE
  5
11A
100
AcDbEntity
100
AcDbLine
  8
fixtures
 62
256
370
-1
  6
ByLayer
 10
95.5
 20
438.0
 30
0.0
 11
95.5
 21
462.0
 31
0.0
  0
LINE
  5
11B
100
AcDbEntity
100
AcDbLine
  8
fixtures
 62
256
370
-1
  6
ByLayer
 10
75.5
 20
458.0
 30
0.0
 11
115.5
 21
458.0
 31
0.0
  0
LINE
  5
11C
100
AcDbEntity
100
AcDbLine
  8
fixtures
 62
256
370
-1
  6
ByLayer
 10
115.5
 20
458.0
 30
0.0
 11
115.5
 21
458.0
 31
0.0
  0
LINE
  5
11D
100
AcDbEntity
100
AcDbLine
  8
fixtures
 62
256
370
-1
  6
ByLayer
 10
115.5
 20
458.0
 30
0.0
 11
75.5
 21
458.0
 31
0.0
  0
LINE
  5
11E
100
AcDbEntity
100
AcDbLine
  8
fixtures
 62
256
370
-1
  6
ByLayer
 10
75.5
 20
458.0
 30
0.0
 11
75.5
 21
458.0
 31
0.0
  0
MTEXT
  5
11F
100
AcDbEntity
100
AcDbMText
  8
text
 62
256
370
-1
  6
ByLayer
 10
81.0
 20
448.0
 30
0.0
 40
2.0
 41
100.0
 71
1
 72
2
  1
utility\Psink\~basin
  7
normallatin1
 50
0.0
 73
0
 44
1.0
  0
MTEXT
  5
120
100
AcDbEntity
100
AcDbMText
  8
text
 62
256
370
-1
  6
ByLayer
 10
12.0
 20
464.0
 30
0.0
 40
2.0
 41
100.0
 71
1
 72
2
  1
stairs\~to\Pgarage
  7
normallatin1
 50
0.0
 73
0
 44
1.0
  0
LINE
  5
121
100
AcDbEntity
100
AcDbLine
  8
fixtures
 62
256
370
-1
  6
ByLayer
 10
0.5
 20
269.0
 30
0.0
 11
0.5
 21
317.0
 31
0.0
  0
LINE
  5
122
100
AcDbEntity
100
AcDbLine
  8
fixtures
 62
256
370
-1
  6
ByLayer
 10
0.5
 20
317.0
 30
0.0
 11
-15.5
 21
317.0
 31
0.0
  0
LINE
  5
123
100
AcDbEntity
100
AcDbLine
  8
fixtures
 62
256
370
-1
  6
ByLayer
 10
-15.5
 20
317.0
 30
0.0
 11
-15.5
 21
321.0
 31
0.0
  0
LINE
  5
124
100
AcDbEntity
100
AcDbLine
  8
fixtures
 62
256
370
-1
  6
ByLayer
 10
-15.5
 20
321.0
 30
0.0
 11
-31.5
 21
321.0
 31
0.0
  0
LINE
  5
125
100
AcDbEntity
100
AcDbLine
  8
fixtures
 62
256
370
-1
  6
ByLayer
 10
-31.5
 20
321.0
 30
0.0
 11
-31.5
 21
317.0
 31
0.0
  0
LINE
  5
126
100
AcDbEntity
100
AcDbLine
  8
fixtures
 62
256
370
-1
  6
ByLayer
 10
-107.5
 20
364.0
 30
0.0
 11
-107.5
 21
462.0
 31
0.0
  0
LINE
  5
127
100
AcDbEntity
100
AcDbLine
  8
fixtures
 62
256
370
-1
  6
ByLayer
 10
-34.0
 20
438.0
 30
0.0
 11
-34.0
 21
462.0
 31
0.0
  0
LINE
  5
128
100
AcDbEntity
100
AcDbLine
  8
fixtures
 62
256
370
-1
  6
ByLayer
 10
-107.5
 20
462.0
 30
0.0
 11
-34.0
 21
462.0
 31
0.0
  0
LINE
  5
129
100
AcDbEntity
100
AcDbLine
  8
fixtures
 62
256
370
-1
  6
ByLayer
 10
-33.5
 20
458.0
 30
0.0
 11
-9.5
 21
458.0
 31
0.0
  0
LINE
  5
12A
100
AcDbEntity
100
AcDbLine
  8
fixtures
 62
256
370
-1
  6
ByLayer
 10
-9.5
 20
458.0
 30
0.0
 11
-9.5
 21
410.0
 31
0.0
  0
LINE
  5
12B
100
AcDbEntity
100
AcDbLine
  8
fixtures
 62
256
370
-1
  6
ByLayer
 10
-33.5
 20
458.0
 30
0.0
 11
-33.5
 21
410.0
 31
0.0
  0
LINE
  5
12C
100
AcDbEntity
100
AcDbLine
  8
fixtures
 62
256
370
-1
  6
ByLayer
 10
-33.5
 20
410.0
 30
0.0
 11
-9.5
 21
410.0
 31
0.0
  0
LINE
  5
12D
100
AcDbEntity
100
AcDbLine
  8
foundation
 62
256
370
-1
  6
ByLayer
 10
400.5
 20
-63.5
 30
0.0
 11
400.5
 21
-71.0
 31
0.0
  0
LINE
  5
12E
100
AcDbEntity
100
AcDbLine
  8
foundation
 62
256
370
-1
  6
ByLayer
 10
400.5
 20
-71.0
 30
0.0
 11
368.5
 21
-71.0
 31
0.0
  0
LINE
  5
12F
100
AcDbEntity
100
AcDbLine
  8
foundation
 62
256
370
-1
  6
ByLayer
 10
368.5
 20
-71.0
 30
0.0
 11
368.5
 21
-63.5
 31
0.0
  0
MTEXT
  5
130
100
AcDbEntity
100
AcDbMText
  8
text
 62
256
370
-1
  6
ByLayer
 10
373.5
 20
-66.0
 30
0.0
 40
3.0
 41
100.0
 71
1
 72
2
  1
glass\~block\Pwindow
  7
normallatin1
 50
0.0
 73
0
 44
1.0
  0
LINE
  5
131
100
AcDbEntity
100
AcDbLine
  8
foundation
 62
256
370
-1
  6
ByLayer
 10
224.0
 20
-63.5
 30
0.0
 11
224.0
 21
-71.0
 31
0.0
  0
LINE
  5
132
100
AcDbEntity
100
AcDbLine
  8
foundation
 62
256
370
-1
  6
ByLayer
 10
224.0
 20
-71.0
 30
0.0
 11
192.0
 21
-71.0
 31
0.0
  0
LINE
  5
133
100
AcDbEntity
100
AcDbLine
  8
foundation
 62
256
370
-1
  6
ByLayer
 10
192.0
 20
-71.0
 30
0.0
 11
192.0
 21
-63.5
 31
0.0
  0
MTEXT
  5
134
100
AcDbEntity
100
AcDbMText
  8
text
 62
256
370
-1
  6
ByLayer
 10
197.0
 20
-66.0
 30
0.0
 40
3.0
 41
100.0
 71
1
 72
2
  1
glass\~block\Pwindow
  7
normallatin1
 50
0.0
 73
0
 44
1.0
  0
LINE
  5
135
100
AcDbEntity
100
AcDbLine
  8
foundation
 62
256
370
-1
  6
ByLayer
 10
80.0
 20
0.0
 30
0.0
 11
80.0
 21
-7.5
 31
0.0
  0
LINE
  5
136
100
AcDbEntity
100
AcDbLine
  8
foundation
 62
256
370
-1
  6
ByLayer
 10
80.0
 20
-7.5
 30
0.0
 11
48.0
 21
-7.5
 31
0.0
  0
LINE
  5
137
100
AcDbEntity
100
AcDbLine
  8
foundation
 62
256
370
-1
  6
ByLayer
 10
48.0
 20
-7.5
 30
0.0
 11
48.0
 21
0.0
 31
0.0
  0
MTEXT
  5
138
100
AcDbEntity
100
AcDbMText
  8
text
 62
256
370
-1
  6
ByLayer
 10
53.0
 20
-2.5
 30
0.0
 40
3.0
 41
100.0
 71
1
 72
2
  1
glass\~block\Pwindow
  7
normallatin1
 50
0.0
 73
0
 44
1.0
  0
LINE
  5
139
100
AcDbEntity
100
AcDbLine
  8
foundation
 62
256
370
-1
  6
ByLayer
 10
0.000000000000002
 20
48.0
 30
0.0
 11
-7.4999999999999858
 21
48.0
 31
0.0
  0
LINE
  5
13A
100
AcDbEntity
100
AcDbLine
  8
foundation
 62
256
370
-1
  6
ByLayer
 10
-7.4999999999999858
 20
48.0
 30
0.0
 11
-7.5
 21
80.0
 31
0.0
  0
LINE
  5
13B
100
AcDbEntity
100
AcDbLine
  8
foundation
 62
256
370
-1
  6
ByLayer
 10
-7.5
 20
80.0
 30
0.0
 11
0.0
 21
80.0
 31
0.0
  0
MTEXT
  5
13C
100
AcDbEntity
100
AcDbMText
  8
text
 62
256
370
-1
  6
ByLayer
 10
2.0
 20
67.0
 30
0.0
 40
3.0
 41
100.0
 71
1
 72
2
  1
glass\~block\Pwindow
  7
normallatin1
 50
0.0
 73
0
 44
1.0
  0
LINE
  5
13D
100
AcDbEntity
100
AcDbLine
  8
partition_wall
 62
256
370
-1
  6
ByLayer
 10
147.0000000000000284
 20
181.0
 30
0.0
 11
147.0000000000000284
 21
233.0
 31
0.0
  0
LINE
  5
13E
100
AcDbEntity
100
AcDbLine
  8
partition_wall
 62
256
370
-1
  6
ByLayer
 10
147.0
 20
147.0
 30
0.0
 11
147.0
 21
0.5
 31
0.0
  0
LINE
  5
13F
100
AcDbEntity
100
AcDbLine
  8
partition_wall
 62
256
370
-1
  6
ByLayer
 10
131.0
 20
175.712812921102028
 30
0.0
 11
132.7320508075688679
 21
176.712812921102028
 31
0.0
  0
LINE
  5
140
100
AcDbEntity
100
AcDbLine
  8
partition_wall
 62
256
370
-1
  6
ByLayer
 10
132.7320508075688679
 20
176.712812921102028
 30
0.0
 11
148.7320508075688679
 21
149.0
 31
0.0
  0
LINE
  5
141
100
AcDbEntity
100
AcDbLine
  8
partition_wall
 62
256
370
-1
  6
ByLayer
 10
148.7320508075688679
 20
149.0
 30
0.0
 11
147.0
 21
148.0
 31
0.0
  0
LINE
  5
142
100
AcDbEntity
100
AcDbLine
  8
partition_wall
 62
256
370
-1
  6
ByLayer
 10
147.0
 20
148.0
 30
0.0
 11
131.0
 21
175.712812921102028
 31
0.0
  0
LINE
  5
143
100
AcDbEntity
100
AcDbLine
  8
partition_wall
 62
256
370
-1
  6
ByLayer
 10
164.0
 20
0.5
 30
0.0
 11
164.0
 21
4.5
 31
0.0
  0
LINE
  5
144
100
AcDbEntity
100
AcDbLine
  8
partition_wall
 62
256
370
-1
  6
ByLayer
 10
194.0
 20
4.5
 30
0.0
 11
194.0
 21
0.5
 31
0.0
  0
LINE
  5
145
100
AcDbEntity
100
AcDbLine
  8
partition_wall
 62
256
370
-1
  6
ByLayer
 10
147.0
 20
0.5
 30
0.0
 11
164.0
 21
0.5
 31
0.0
  0
LINE
  5
146
100
AcDbEntity
100
AcDbLine
  8
partition_wall
 62
256
370
-1
  6
ByLayer
 10
194.0
 20
0.5
 30
0.0
 11
252.5
 21
0.5
 31
0.0
  0
LINE
  5
147
100
AcDbEntity
100
AcDbLine
  8
partition_wall
 62
256
370
-1
  6
ByLayer
 10
165.875
 20
2.4844555433772344
 30
0.0
 11
190.1237113059642638
 21
16.484455543377198
 31
0.0
  0
LINE
  5
148
100
AcDbEntity
100
AcDbLine
  8
partition_wall
 62
256
370
-1
  6
ByLayer
 10
190.1237113059642638
 20
16.484455543377198
 30
0.0
 11
189.2487113059643207
 21
17.9999999999999432
 31
0.0
  0
LINE
  5
149
100
AcDbEntity
100
AcDbLine
  8
partition_wall
 62
256
370
-1
  6
ByLayer
 10
189.2487113059643207
 20
17.9999999999999432
 30
0.0
 11
165.0
 21
4.0
 31
0.0
  0
LINE
  5
14A
100
AcDbEntity
100
AcDbLine
  8
partition_wall
 62
256
370
-1
  6
ByLayer
 10
165.0
 20
4.0
 30
0.0
 11
165.875
 21
2.4844555433772344
 31
0.0
  0
MTEXT
  5
14B
100
AcDbEntity
100
AcDbMText
  8
text
 62
256
370
-1
  6
ByLayer
 10
114.0
 20
163.0
 30
0.0
 40
3.0
 41
100.0
 71
1
 72
2
  1
2'\~8"\~door
  7
normallatin1
 50
0.0
 73
0
 44
1.0
  0
MTEXT
  5
14C
100
AcDbEntity
100
AcDbMText
  8
text
 62
256
370
-1
  6
ByLayer
 10
191.9999996666666675
 20
427.8000000000000114
 30
0.0
 40
3.0
 41
100.0
 71
1
 72
2
  1
shower\P3'x3'
  7
normallatin1
 50
0.0
 73
1
 44
1.0
  0
DIMENSION
  5
14D
100
AcDbEntity
  8
dimensions
 62
256
370
-1
  6
ByLayer
100
AcDbDimension
 10
264.0
 20
400.0
 30
0.0
 11
249.0
 21
403.0
 31
0.0
 70
0
 71
5
 72
1
 41
1.0
 42
0.0
  1

  3
Standard
100
AcDbAlignedDimension
 13
234.0
 23
394.875
 33
0.0
 14
264.0
 24
394.875
 34
0.0
 50
0.0
100
AcDbRotatedDimension
  0
DIMENSION
  5
14E
100
AcDbEntity
  8
dimensions
 62
256
370
-1
  6
ByLayer
100
AcDbDimension
 10
408.0
 20
343.2760342073300421
 30
0.0
 11
363.0
 21
346.2760342073300421
 31
0.0
 70
0
 71
5
 72
1
 41
1.0
 42
0.0
  1

  3
Standard
100
AcDbAlignedDimension
 13
318.0
 23
343.2760342073300421
 33
0.0
 14
408.0
 24
343.2760342073300421
 34
0.0
 50
0.0
100
AcDbRotatedDimension
  0
DIMENSION
  5
14F
100
AcDbEntity
  8
dimensions
 62
256
370
-1
  6
ByLayer
100
AcDbDimension
 10
448.5
 20
393.1915325580925469
 30
0.0
 11
439.0
 21
396.1915325580925469
 31
0.0
 70
0
 71
5
 72
1
 41
1.0
 42
0.0
  1

  3
Standard
100
AcDbAlignedDimension
 13
429.5
 23
399.0
 33
0.0
 14
448.5
 24
399.0262948522616853
 34
0.0
 50
0.0
100
AcDbRotatedDimension
  0
DIMENSION
  5
150
100
AcDbEntity
  8
dimensions
 62
256
370
-1
  6
ByLayer
100
AcDbDimension
 10
115.5
 20
432.0
 30
0.0
 11
95.5
 21
435.0
 31
0.0
 70
0
 71
5
 72
1
 41
1.0
 42
0.0
  1

  3
Standard
100
AcDbAlignedDimension
 13
75.5
 23
438.0
 33
0.0
 14
115.5
 24
438.0
 34
0.0
 50
0.0
100
AcDbRotatedDimension
  0
DIMENSION
  5
151
100
AcDbEntity
  8
dimensions
 62
256
370
-1
  6
ByLayer
100
AcDbDimension
 10
-9.5
 20
404.0
 30
0.0
 11
-21.5
 21
407.0
 31
0.0
 70
0
 71
5
 72
1
 41
1.0
 42
0.0
  1

  3
Standard
100
AcDbAlignedDimension
 13
-33.5
 23
410.0
 33
0.0
 14
-9.5
 24
410.0
 34
0.0
 50
0.0
100
AcDbRotatedDimension
  0
DIMENSION
  5
152
100
AcDbEntity
  8
dimensions
 62
256
370
-1
  6
ByLayer
100
AcDbDimension
 10
-34.0
 20
467.0
 30
0.0
 11
-70.75
 21
470.0
 31
0.0
 70
0
 71
5
 72
1
 41
1.0
 42
0.0
  1

  3
Standard
100
AcDbAlignedDimension
 13
-107.5
 23
462.0
 33
0.0
 14
-34.0
 24
462.0
 34
0.0
 50
0.0
100
AcDbRotatedDimension
  0
DIMENSION
  5
153
100
AcDbEntity
  8
dimensions
 62
256
370
-1
  6
ByLayer
100
AcDbDimension
 10
472.25
 20
76.0
 30
0.0
 11
444.125
 21
79.0
 31
0.0
 70
0
 71
5
 72
1
 41
1.0
 42
0.0
  1

  3
Standard
100
AcDbAlignedDimension
 13
416.0
 23
70.0
 33
0.0
 14
472.25
 24
70.0055262646582008
 34
0.0
 50
0.0
100
AcDbRotatedDimension
  0
DIMENSION
  5
154
100
AcDbEntity
  8
dimensions
 62
256
370
-1
  6
ByLayer
100
AcDbDimension
 10
444.0
 20
139.0
 30
0.0
 11
455.875
 21
142.0
 31
0.0
 70
0
 71
5
 72
1
 41
1.0
 42
0.0
  1

  3
Standard
100
AcDbAlignedDimension
 13
467.75
 23
144.0
 33
0.0
 14
444.0
 24
144.0
 34
0.0
 50
0.0
100
AcDbRotatedDimension
  0
DIMENSION
  5
155
100
AcDbEntity
  8
dimensions
 62
256
370
-1
  6
ByLayer
100
AcDbDimension
 10
472.5
 20
227.0
 30
0.0
 11
460.5
 21
230.0
 31
0.0
 70
0
 71
5
 72
1
 41
1.0
 42
0.0
  1

  3
Standard
100
AcDbAlignedDimension
 13
448.5
 23
232.5
 33
0.0
 14
472.5
 24
232.5
 34
0.0
 50
0.0
100
AcDbRotatedDimension
  0
DIMENSION
  5
156
100
AcDbEntity
  8
dimensions
 62
256
370
-1
  6
ByLayer
100
AcDbDimension
 10
-0.0000000000000005
 20
309.0
 30
0.0
 11
-53.875
 21
312.0
 31
0.0
 70
0
 71
5
 72
1
 41
1.0
 42
0.0
  1

  3
Standard
100
AcDbAlignedDimension
 13
-107.75
 23
316.4712024232926524
 33
0.0
 14
0.0
 24
316.5
 34
0.0
 50
0.0
100
AcDbRotatedDimension
  0
DIMENSION
  5
157
100
AcDbEntity
  8
dimensions
 62
256
370
-1
  6
ByLayer
100
AcDbDimension
 10
0.0000000000000001
 20
9.0
 30
0.0
 11
73.5
 21
12.0
 31
0.0
 70
0
 71
5
 72
1
 41
1.0
 42
0.0
  1

  3
Standard
100
AcDbAlignedDimension
 13
147.0
 23
6.6941170421945912
 33
0.0
 14
0.0
 24
6.6941170421946135
 34
0.0
 50
0.0
100
AcDbRotatedDimension
  0
DIMENSION
  5
158
100
AcDbEntity
  8
dimensions
 62
256
370
-1
  6
ByLayer
100
AcDbDimension
 10
194.0
 20
-4.0
 30
0.0
 11
179.0
 21
-1.0
 31
0.0
 70
0
 71
5
 72
1
 41
1.0
 42
0.0
  1

  3
Standard
100
AcDbAlignedDimension
 13
164.0
 23
0.5
 33
0.0
 14
194.0
 24
0.5
 34
0.0
 50
0.0
100
AcDbRotatedDimension
  0
MTEXT
  5
159
100
AcDbEntity
100
AcDbMText
  8
text
 62
256
370
-1
  6
ByLayer
 10
188.9859092261436899
 20
13.3333331995371793
 30
0.0
 40
2.0
 41
100.0
 71
1
 72
2
  1
2'\~4"\~door
  7
normallatin1
 50
0.0
 73
0
 44
1.0
  0
DIMENSION
  5
15A
100
AcDbEntity
  8
dimensions
 62
256
370
-1
  6
ByLayer
100
AcDbDimension
 10
1.2500000000000004
 20
476.0
 30
0.0
 11
-53.25
 21
479.0
 31
0.0
 70
0
 71
5
 72
1
 41
1.0
 42
0.0
  1

  3
Standard
100
AcDbAlignedDimension
 13
-107.75
 23
462.5137573078065998
 33
0.0
 14
1.25
 24
469.75
 34
0.0
 50
0.0
100
AcDbRotatedDimension
  0
DIMENSION
  5
15B
100
AcDbEntity
  8
dimensions
 62
256
370
-1
  6
ByLayer
100
AcDbDimension
 10
448.5
 20
488.0
 30
0.0
 11
170.375
 21
491.0
 31
0.0
 70
0
 71
5
 72
1
 41
1.0
 42
0.0
  1

  3
Standard
100
AcDbAlignedDimension
 13
-107.75
 23
462.5137573078065998
 33
0.0
 14
448.5
 24
446.5
 34
0.0
 50
0.0
100
AcDbRotatedDimension
  0
DIMENSION
  5
15C
100
AcDbEntity
  8
dimensions
 62
256
370
-1
  6
ByLayer
100
AcDbDimension
 10
444.0
 20
-55.1346101768229246
 30
0.0
 11
380.0
 21
-52.1346101768229246
 31
0.0
 70
0
 71
5
 72
1
 41
1.0
 42
0.0
  1

  3
Standard
100
AcDbAlignedDimension
 13
316.0
 23
-55.0
 33
0.0
 14
444.0
 24
-55.1346101768229246
 34
0.0
 50
0.0
100
AcDbRotatedDimension
  0
DIMENSION
  5
15D
100
AcDbEntity
  8
dimensions
 62
256
370
-1
  6
ByLayer
100
AcDbDimension
 10
448.5
 20
-35.9825876943475933
 30
0.0
 11
379.875
 21
-32.9825876943475933
 31
0.0
 70
0
 71
5
 72
1
 41
1.0
 42
0.0
  1

  3
Standard
100
AcDbAlignedDimension
 13
311.25
 23
-35.9825876943475933
 33
0.0
 14
448.5
 24
-35.9825876943475933
 34
0.0
 50
0.0
100
AcDbRotatedDimension
  0
DIMENSION
  5
15E
100
AcDbEntity
  8
dimensions
 62
256
370
-1
  6
ByLayer
100
AcDbDimension
 10
305.75
 20
114.0299811320229537
 30
0.0
 11
228.625
 21
117.0299811320229537
 31
0.0
 70
0
 71
5
 72
1
 41
1.0
 42
0.0
  1

  3
Standard
100
AcDbAlignedDimension
 13
151.5
 23
114.0091808748782256
 33
0.0
 14
305.75
 24
114.0299811320229537
 34
0.0
 50
0.0
100
AcDbRotatedDimension
  0
DIMENSION
  5
15F
100
AcDbEntity
  8
dimensions
 62
256
370
-1
  6
ByLayer
100
AcDbDimension
 10
472.25
 20
-96.0
 30
0.0
 11
236.125
 21
-93.0
 31
0.0
 70
0
 71
5
 72
1
 41
1.0
 42
0.0
  1

  3
Standard
100
AcDbAlignedDimension
 13
0.0
 23
0.0
 33
0.0
 14
472.25
 24
16.5
 34
0.0
 50
0.0
100
AcDbRotatedDimension
  0
DIMENSION
  5
160
100
AcDbEntity
  8
dimensions
 62
256
370
-1
  6
ByLayer
100
AcDbDimension
 10
472.25
 20
-84.0
 30
0.0
 11
308.125
 21
-81.0
 31
0.0
 70
0
 71
5
 72
1
 41
1.0
 42
0.0
  1

  3
Standard
100
AcDbAlignedDimension
 13
144.0
 23
-63.5
 33
0.0
 14
472.25
 24
14.5
 34
0.0
 50
0.0
100
AcDbRotatedDimension
  0
DIMENSION
  5
161
100
AcDbEntity
  8
dimensions
 62
256
370
-1
  6
ByLayer
100
AcDbDimension
 10
212.0
 20
239.0971451440558155
 30
0.0
 11
179.5
 21
242.0971451440558155
 31
0.0
 70
0
 71
5
 72
1
 41
1.0
 42
0.0
  1

  3
Standard
100
AcDbAlignedDimension
 13
147.0000000000000284
 23
233.0
 33
0.0
 14
212.0
 24
239.0971451440558155
 34
0.0
 50
0.0
100
AcDbRotatedDimension
  0
DIMENSION
  5
162
100
AcDbEntity
  8
dimensions
 62
256
370
-1
  6
ByLayer
100
AcDbDimension
 10
263.5
 20
360.0
 30
0.0
 11
256.5
 21
363.0
 31
0.0
 70
0
 71
5
 72
1
 41
1.0
 42
0.0
  1

  3
Standard
100
AcDbAlignedDimension
 13
249.5
 23
354.0
 33
0.0
 14
263.5
 24
354.0
 34
0.0
 50
0.0
100
AcDbRotatedDimension
  0
DIMENSION
  5
163
100
AcDbEntity
  8
dimensions
 62
256
370
-1
  6
ByLayer
100
AcDbDimension
 10
142.0
 20
181.0
 30
0.0
 11
139.0
 21
207.0
 31
0.0
 70
0
 71
5
 72
0
 41
1.0
 42
0.0
  1

  3
Standard
100
AcDbAlignedDimension
 13
147.0000000000000284
 23
233.0
 33
0.0
 14
147.0
 24
181.0
 34
0.0
 50
90.0
100
AcDbRotatedDimension
  0
DIMENSION
  5
164
100
AcDbEntity
  8
dimensions
 62
256
370
-1
  6
ByLayer
100
AcDbDimension
 10
339.8204377821324442
 20
375.0
 30
0.0
 11
336.8204377821324442
 21
407.5
 31
0.0
 70
0
 71
5
 72
0
 41
1.0
 42
0.0
  1

  3
Standard
100
AcDbAlignedDimension
 13
339.8204377821324442
 23
440.0
 33
0.0
 14
339.8204377821324442
 24
375.0
 34
0.0
 50
90.0
100
AcDbRotatedDimension
  0
DIMENSION
  5
165
100
AcDbEntity
  8
dimensions
 62
256
370
-1
  6
ByLayer
100
AcDbDimension
 10
370.5523050247400647
 20
350.0
 30
0.0
 11
367.5523050247400647
 21
362.5
 31
0.0
 70
0
 71
5
 72
0
 41
1.0
 42
0.0
  1

  3
Standard
100
AcDbAlignedDimension
 13
370.5523050247400647
 23
375.0
 33
0.0
 14
370.5523050247400647
 24
350.0
 34
0.0
 50
90.0
100
AcDbRotatedDimension
  0
DIMENSION
  5
166
100
AcDbEntity
  8
dimensions
 62
256
370
-1
  6
ByLayer
100
AcDbDimension
 10
376.0228991935812246
 20
332.0
 30
0.0
 11
373.0228991935812246
 21
341.5
 31
0.0
 70
0
 71
5
 72
0
 41
1.0
 42
0.0
  1

  3
Standard
100
AcDbAlignedDimension
 13
376.0228991935812246
 23
351.0
 33
0.0
 14
376.0228991935812246
 24
332.0
 34
0.0
 50
90.0
100
AcDbRotatedDimension
  0
DIMENSION
  5
167
100
AcDbEntity
  8
dimensions
 62
256
370
-1
  6
ByLayer
100
AcDbDimension
 10
294.607585974945323
 20
354.0
 30
0.0
 11
291.607585974945323
 21
372.125
 31
0.0
 70
0
 71
5
 72
0
 41
1.0
 42
0.0
  1

  3
Standard
100
AcDbAlignedDimension
 13
294.768485803440683
 23
390.25
 33
0.0
 14
294.607585974945323
 24
354.0
 34
0.0
 50
90.0
100
AcDbRotatedDimension
  0
DIMENSION
  5
168
100
AcDbEntity
  8
dimensions
 62
256
370
-1
  6
ByLayer
100
AcDbDimension
 10
268.7027135871975361
 20
394.875
 30
0.0
 11
265.7027135871975361
 21
426.4375
 31
0.0
 70
0
 71
5
 72
0
 41
1.0
 42
0.0
  1

  3
Standard
100
AcDbAlignedDimension
 13
268.7027135871975361
 23
458.0
 33
0.0
 14
268.7027135871975361
 24
394.875
 34
0.0
 50
90.0
100
AcDbRotatedDimension
  0
DIMENSION
  5
169
100
AcDbEntity
  8
dimensions
 62
256
370
-1
  6
ByLayer
100
AcDbDimension
 10
388.0
 20
399.0
 30
0.0
 11
385.0
 21
422.75
 31
0.0
 70
0
 71
5
 72
0
 41
1.0
 42
0.0
  1

  3
Standard
100
AcDbAlignedDimension
 13
385.5417330473652555
 23
446.5
 33
0.0
 14
429.5
 24
399.0
 34
0.0
 50
90.0
100
AcDbRotatedDimension
  0
DIMENSION
  5
16A
100
AcDbEntity
  8
dimensions
 62
256
370
-1
  6
ByLayer
100
AcDbDimension
 10
460.0
 20
16.5
 30
0.0
 11
457.0
 21
-23.5
 31
0.0
 70
0
 71
5
 72
0
 41
1.0
 42
0.0
  1

  3
Standard
100
AcDbAlignedDimension
 13
448.5
 23
-63.5
 33
0.0
 14
461.7825077815921873
 24
16.5
 34
0.0
 50
90.0
100
AcDbRotatedDimension
  0
DIMENSION
  5
16B
100
AcDbEntity
  8
dimensions
 62
256
370
-1
  6
ByLayer
100
AcDbDimension
 10
465.4938885912206956
 20
148.5
 30
0.0
 11
462.4938885912206956
 21
190.5
 31
0.0
 70
0
 71
5
 72
0
 41
1.0
 42
0.0
  1

  3
Standard
100
AcDbAlignedDimension
 13
465.4938885912206956
 23
232.5
 33
0.0
 14
465.4938885912206956
 24
148.5
 34
0.0
 50
90.0
100
AcDbRotatedDimension
  0
DIMENSION
  5
16C
100
AcDbEntity
  8
dimensions
 62
256
370
-1
  6
ByLayer
100
AcDbDimension
 10
484.0
 20
232.5002521757494378
 30
0.0
 11
481.0
 21
299.5001260878747189
 31
0.0
 70
0
 71
5
 72
0
 41
1.0
 42
0.0
  1

  3
Standard
100
AcDbAlignedDimension
 13
472.5
 23
366.5
 33
0.0
 14
472.5
 24
232.5002521757494378
 34
0.0
 50
90.0
100
AcDbRotatedDimension
  0
DIMENSION
  5
16D
100
AcDbEntity
  8
dimensions
 62
256
370
-1
  6
ByLayer
100
AcDbDimension
 10
454.0
 20
366.5
 30
0.0
 11
451.0
 21
406.5
 31
0.0
 70
0
 71
5
 72
0
 41
1.0
 42
0.0
  1

  3
Standard
100
AcDbAlignedDimension
 13
448.5
 23
446.5
 33
0.0
 14
452.0641581404748877
 24
366.5
 34
0.0
 50
90.0
100
AcDbRotatedDimension
  0
DIMENSION
  5
16E
100
AcDbEntity
  8
dimensions
 62
256
370
-1
  6
ByLayer
100
AcDbDimension
 10
503.9999999999999432
 20
-63.5000000000000071
 30
0.0
 11
500.9999999999999432
 21
191.5
 31
0.0
 70
0
 71
5
 72
0
 41
1.0
 42
0.0
  1

  3
Standard
100
AcDbAlignedDimension
 13
448.5
 23
446.5
 33
0.0
 14
448.5
 24
-63.5
 34
0.0
 50
90.0
100
AcDbRotatedDimension
  0
DIMENSION
  5
16F
100
AcDbEntity
  8
dimensions
 62
256
370
-1
  6
ByLayer
100
AcDbDimension
 10
-36.0
 20
316.4979004037487584
 30
0.0
 11
-39.0000000000000142
 21
158.2489502018743792
 31
0.0
 70
0
 71
5
 72
0
 41
1.0
 42
0.0
  1

  3
Standard
100
AcDbAlignedDimension
 13
0.0
 23
0.0
 33
0.0
 14
-36.8275218468161682
 24
316.4979004037487584
 34
0.0
 50
90.0
100
AcDbRotatedDimension
  0
DIMENSION
  5
170
100
AcDbEntity
  8
dimensions
 62
256
370
-1
  6
ByLayer
100
AcDbDimension
 10
-100.763517595199886
 20
364.0
 30
0.0
 11
-103.763517595199886
 21
413.0
 31
0.0
 70
0
 71
5
 72
0
 41
1.0
 42
0.0
  1

  3
Standard
100
AcDbAlignedDimension
 13
-100.763517595199886
 23
462.0
 33
0.0
 14
-100.763517595199886
 24
364.0
 34
0.0
 50
90.0
100
AcDbRotatedDimension
  0
DIMENSION
  5
171
100
AcDbEntity
  8
dimensions
 62
256
370
-1
  6
ByLayer
100
AcDbDimension
 10
-54.3036921171735898
 20
438.0
 30
0.0
 11
-57.3036921171735898
 21
450.0
 31
0.0
 70
0
 71
5
 72
0
 41
1.0
 42
0.0
  1

  3
Standard
100
AcDbAlignedDimension
 13
-54.3036921171735898
 23
462.0
 33
0.0
 14
-54.3036921171735898
 24
438.0
 34
0.0
 50
90.0
100
AcDbRotatedDimension
  0
LINE
  5
172
100
AcDbEntity
100
AcDbLine
  8
fixtures
 62
256
370
-1
  6
ByLayer
 10
-83.5
 20
364.0
 30
0.0
 11
-107.5
 21
364.0
 31
0.0
  0
LINE
  5
173
100
AcDbEntity
100
AcDbLine
  8
fixtures
 62
256
370
-1
  6
ByLayer
 10
-83.5
 20
364.0
 30
0.0
 11
-83.5
 21
438.0
 31
0.0
  0
LINE
  5
174
100
AcDbEntity
100
AcDbLine
  8
fixtures
 62
256
370
-1
  6
ByLayer
 10
-83.5
 20
438.0
 30
0.0
 11
-34.0
 21
438.0
 31
0.0
  0
DIMENSION
  5
175
100
AcDbEntity
  8
dimensions
 62
256
370
-1
  6
ByLayer
100
AcDbDimension
 10
-84.0
 20
359.0
 30
0.0
 11
-95.5
 21
362.0
 31
0.0
 70
0
 71
5
 72
1
 41
1.0
 42
0.0
  1

  3
Standard
100
AcDbAlignedDimension
 13
-107.5
 23
364.0
 33
0.0
 14
-83.5
 24
364.0
 34
0.0
 50
0.0
100
AcDbRotatedDimension
  0
DIMENSION
  5
176
100
AcDbEntity
  8
dimensions
 62
256
370
-1
  6
ByLayer
100
AcDbDimension
 10
-120.0
 20
316.4712024232926524
 30
0.0
 11
-123.0
 21
389.4924798655496261
 31
0.0
 70
0
 71
5
 72
0
 41
1.0
 42
0.0
  1

  3
Standard
100
AcDbAlignedDimension
 13
-107.75
 23
462.5137573078065998
 33
0.0
 14
-107.75
 24
316.4712024232926524
 34
0.0
 50
90.0
100
AcDbRotatedDimension
  0
LINE
  5
177
100
AcDbEntity
100
AcDbLine
  8
fixtures
 62
256
370
-1
  6
ByLayer
 10
48.5
 20
365.0
 30
0.0
 11
48.5
 21
269.0
 31
0.0
  0
LINE
  5
178
100
AcDbEntity
100
AcDbLine
  8
fixtures
 62
256
370
-1
  6
ByLayer
 10
48.5
 20
269.0
 30
0.0
 11
0.5
 21
269.0
 31
0.0
  0
DIMENSION
  5
179
100
AcDbEntity
  8
dimensions
 62
256
370
-1
  6
ByLayer
100
AcDbDimension
 10
48.0
 20
264.0
 30
0.0
 11
24.5
 21
267.0
 31
0.0
 70
0
 71
5
 72
1
 41
1.0
 42
0.0
  1

  3
Standard
100
AcDbAlignedDimension
 13
0.5
 23
269.0
 33
0.0
 14
48.5
 24
269.0
 34
0.0
 50
0.0
100
AcDbRotatedDimension
  0
DIMENSION
  5
17A
100
AcDbEntity
  8
dimensions
 62
256
370
-1
  6
ByLayer
100
AcDbDimension
 10
54.0
 20
269.0
 30
0.0
 11
51.0
 21
317.0
 31
0.0
 70
0
 71
5
 72
0
 41
1.0
 42
0.0
  1

  3
Standard
100
AcDbAlignedDimension
 13
48.5
 23
365.0
 33
0.0
 14
48.5
 24
269.0
 34
0.0
 50
90.0
100
AcDbRotatedDimension
  0
DIMENSION
  5
17B
100
AcDbEntity
  8
dimensions
 62
256
370
-1
  6
ByLayer
100
AcDbDimension
 10
-62.9118329416732962
 20
317.0
 30
0.0
 11
-65.9118329416732962
 21
341.0
 31
0.0
 70
0
 71
5
 72
0
 41
1.0
 42
0.0
  1

  3
Standard
100
AcDbAlignedDimension
 13
-62.7509331131779717
 23
365.0
 33
0.0
 14
-62.9118329416732962
 24
317.0
 34
0.0
 50
90.0
100
AcDbRotatedDimension
  0
LINE
  5
17C
100
AcDbEntity
100
AcDbLine
  8
fixtures
 62
256
370
-1
  6
ByLayer
 10
-71.5
 20
317.0
 30
0.0
 11
-71.5
 21
365.0
 31
0.0
  0
LINE
  5
17D
100
AcDbEntity
100
AcDbLine
  8
fixtures
 62
256
370
-1
  6
ByLayer
 10
-31.5
 20
317.0
 30
0.0
 11
-71.5
 21
317.0
 31
0.0
  0
LINE
  5
17E
100
AcDbEntity
100
AcDbLine
  8
fixtures
 62
256
370
-1
  6
ByLayer
 10
-71.5
 20
365.0
 30
0.0
 11
48.5
 21
365.0
 31
0.0
  0
DIMENSION
  5
17F
100
AcDbEntity
  8
dimensions
 62
256
370
-1
  6
ByLayer
100
AcDbDimension
 10
48.0
 20
372.0
 30
0.0
 11
-11.5
 21
375.0
 31
0.0
 70
0
 71
5
 72
1
 41
1.0
 42
0.0
  1

  3
Standard
100
AcDbAlignedDimension
 13
-71.5
 23
365.0
 33
0.0
 14
48.5
 24
365.0
 34
0.0
 50
0.0
100
AcDbRotatedDimension
  0
LINE
  5
180
100
AcDbEntity
100
AcDbLine
  8
electrical
 62
256
370
-1
  6
ByLayer
 10
144.5
 20
-30.0
 30
0.0
 11
150.5
 21
-30.0
 31
0.0
  0
LINE
  5
181
100
AcDbEntity
100
AcDbLine
  8
electrical
 62
256
370
-1
  6
ByLayer
 10
150.5
 20
-30.0
 30
0.0
 11
150.5
 21
-58.0
 31
0.0
  0
LINE
  5
182
100
AcDbEntity
100
AcDbLine
  8
electrical
 62
256
370
-1
  6
ByLayer
 10
150.5
 20
-58.0
 30
0.0
 11
144.5
 21
-58.0
 31
0.0
  0
LINE
  5
183
100
AcDbEntity
100
AcDbLine
  8
electrical
 62
256
370
-1
  6
ByLayer
 10
144.5
 20
-58.0
 30
0.0
 11
144.5
 21
-30.0
 31
0.0
  0
LINE
  5
184
100
AcDbEntity
100
AcDbLine
  8
electrical
 62
256
370
-1
  6
ByLayer
 10
144.5
 20
-30.0
 30
0.0
 11
150.5
 21
-58.0
 31
0.0
  0
LINE
  5
185
100
AcDbEntity
100
AcDbLine
  8
electrical
 62
256
370
-1
  6
ByLayer
 10
150.5
 20
-30.0
 30
0.0
 11
144.5
 21
-58.0
 31
0.0
  0
DIMENSION
  5
186
100
AcDbEntity
  8
dimensions
 62
256
370
-1
  6
ByLayer
100
AcDbDimension
 10
411.8005850578005607
 20
-63.5
 30
0.0
 11
408.8005850578005607
 21
3.2500000000000004
 31
0.0
 70
0
 71
5
 72
0
 41
1.0
 42
0.0
  1

  3
Standard
100
AcDbAlignedDimension
 13
416.0
 23
70.0
 33
0.0
 14
411.8005850578005607
 24
-63.5
 34
0.0
 50
90.0
100
AcDbRotatedDimension
  0
LEADER
  5
187
  8
text
 62
256
370
-1
  6
ByLayer
100
AcDbEntity
100
AcDbLeader
  3
Standard
 71
1
 72
0
 73
3
 74
0
 75
0
 40
1.0
 41
10.0
 76
3
 10
441.5
 20
410.5
 10
464.0
 20
432.0
 10
484.0
 20
432.0
  0
MTEXT
  5
188
100
AcDbEntity
100
AcDbMText
  8
text
 62
256
370
-1
  6
ByLayer
 10
328.0
 20
476.0
 30
0.0
 40
2.0
 41
100.0
 71
1
 72
2
  1
overhead\Pabs\~drain\Pservice
  7
normallatin1
 50
0.0
 73
1
 44
1.0
  0
LINE
  5
189
100
AcDbEntity
100
AcDbLine
  8
plumbing
 62
256
370
-1
  6
ByLayer
 10
300.2535276589754858
 20
382.0
 30
0.0
 11
299.5
 21
382.0
 31
0.0
  0
LINE
  5
18A
100
AcDbEntity
100
AcDbLine
  8
plumbing
 62
256
370
-1
  6
ByLayer
 10
299.5
 20
382.0
 30
0.0
 11
299.5
 21
380.0
 31
0.0
  0
LINE
  5
18B
100
AcDbEntity
100
AcDbLine
  8
plumbing
 62
256
370
-1
  6
ByLayer
 10
299.5
 20
380.0
 30
0.0
 11
303.5
 21
380.0
 31
0.0
  0
LINE
  5
18C
100
AcDbEntity
100
AcDbLine
  8
plumbing
 62
256
370
-1
  6
ByLayer
 10
303.5
 20
380.0
 30
0.0
 11
303.5
 21
382.0
 31
0.0
  0
LINE
  5
18D
100
AcDbEntity
100
AcDbLine
  8
plumbing
 62
256
370
-1
  6
ByLayer
 10
303.5
 20
382.0
 30
0.0
 11
303.0
 21
382.0
 31
0.0
  0
LINE
  5
18E
100
AcDbEntity
100
AcDbLine
  8
plumbing
 62
256
370
-1
  6
ByLayer
 10
301.0
 20
380.0
 30
0.0
 11
301.0
 21
379.5
 31
0.0
  0
LINE
  5
18F
100
AcDbEntity
100
AcDbLine
  8
plumbing
 62
256
370
-1
  6
ByLayer
 10
301.0
 20
379.5
 30
0.0
 11
302.5
 21
379.5
 31
0.0
  0
LINE
  5
190
100
AcDbEntity
100
AcDbLine
  8
plumbing
 62
256
370
-1
  6
ByLayer
 10
302.5
 20
379.5
 30
0.0
 11
302.5
 21
380.0
 31
0.0
  0
LEADER
  5
191
  8
text
 62
256
370
-1
  6
ByLayer
100
AcDbEntity
100
AcDbLeader
  3
Standard
 71
1
 72
0
 73
3
 74
0
 75
0
 40
1.0
 41
10.0
 76
3
 10
301.0
 20
381.0
 10
352.0
 20
408.0
 10
340.0
 20
468.0
  0
LEADER
  5
192
  8
text
 62
256
370
-1
  6
ByLayer
100
AcDbEntity
100
AcDbLeader
  3
Standard
 71
1
 72
0
 73
3
 74
0
 75
0
 40
1.0
 41
10.0
 76
2
 10
300.0
 20
456.0
 10
292.0
 20
470.0
  0
CIRCLE
  5
193
100
AcDbEntity
100
AcDbCircle
  8
fixtures
 62
256
370
-1
  6
ByLayer
 10
95.5
 20
460.0
 30
0.0
 40
1.0
  0
CIRCLE
  5
194
100
AcDbEntity
100
AcDbCircle
  8
fixtures
 62
256
370
-1
  6
ByLayer
 10
100.0
 20
460.0
 30
0.0
 40
1.0
  0
CIRCLE
  5
195
100
AcDbEntity
100
AcDbCircle
  8
fixtures
 62
256
370
-1
  6
ByLayer
 10
91.0
 20
460.0
 30
0.0
 40
1.0
  0
LINE
  5
196
100
AcDbEntity
100
AcDbLine
  8
fixtures
 62
256
370
-1
  6
ByLayer
 10
275.0
 20
452.0
 30
0.0
 11
296.0
 21
452.0
 31
0.0
  0
LINE
  5
197
100
AcDbEntity
100
AcDbLine
  8
fixtures
 62
256
370
-1
  6
ByLayer
 10
296.0
 20
452.0
 30
0.0
 11
296.0
 21
428.0
 31
0.0
  0
LINE
  5
198
100
AcDbEntity
100
AcDbLine
  8
fixtures
 62
256
370
-1
  6
ByLayer
 10
296.0
 20
428.0
 30
0.0
 11
275.0
 21
428.0
 31
0.0
  0
LINE
  5
199
100
AcDbEntity
100
AcDbLine
  8
fixtures
 62
256
370
-1
  6
ByLayer
 10
275.0
 20
428.0
 30
0.0
 11
275.0
 21
452.0
 31
0.0
  0
ELLIPSE
  5
19A
100
AcDbEntity
100
AcDbEllipse
  8
fixtures
 62
256
370
-1
  6
ByLayer
 10
284.0
 20
440.0
 30
0.0
 11
0.0
 21
9.0
 31
0.0
 40
0.7777777777777778
 41
0.0
 42
6.2831853071795862
  0
CIRCLE
  5
19B
100
AcDbEntity
100
AcDbCircle
  8
fixtures
 62
256
370
-1
  6
ByLayer
 10
293.0
 20
444.0
 30
0.0
 40
1.0
  0
CIRCLE
  5
19C
100
AcDbEntity
100
AcDbCircle
  8
fixtures
 62
256
370
-1
  6
ByLayer
 10
293.0
 20
440.0
 30
0.0
 40
1.0
  0
CIRCLE
  5
19D
100
AcDbEntity
100
AcDbCircle
  8
fixtures
 62
256
370
-1
  6
ByLayer
 10
293.0
 20
436.0
 30
0.0
 40
1.0
  0
MTEXT
  5
19E
100
AcDbEntity
100
AcDbMText
  8
text
 62
256
370
-1
  6
ByLayer
 10
264.0
 20
476.0
 30
0.0
 40
2.0
 41
100.0
 71
1
 72
2
  1
Lower\~abs\~drain\~service\~access\Pthrough\~back\~of\~cabinet.
  7
normallatin1
 50
0.0
 73
0
 44
1.0
  0
DIMENSION
  5
19F
100
AcDbEntity
  8
dimensions
 62
256
370
-1
  6
ByLayer
100
AcDbDimension
 10
233.7874508037101009
 20
-63.5
 30
0.0
 11
230.7874508037101009
 21
-31.5
 31
0.0
 70
0
 71
5
 72
0
 41
1.0
 42
0.0
  1

  3
Standard
100
AcDbAlignedDimension
 13
233.6265509752147693
 23
0.5
 33
0.0
 14
233.7874508037101009
 24
-63.5
 34
0.0
 50
90.0
100
AcDbRotatedDimension
  0
MTEXT
  5
1A0
100
AcDbEntity
100
AcDbMText
  8
text
 62
256
370
-1
  6
ByLayer
 10
168.0
 20
68.0
 30
0.0
 40
4.0
 41
100.0
 71
1
 72
2
  1
overhead\Pductwork
  7
normallatin1
 50
0.0
 73
1
 44
1.0
  0
MTEXT
  5
1A1
100
AcDbEntity
100
AcDbMText
  8
text
 62
256
370
-1
  6
ByLayer
 10
264.0
 20
264.0
 30
0.0
 40
4.0
 41
100.0
 71
1
 72
2
  1
overhead\Pductwork
  7
normallatin1
 50
0.0
 73
1
 44
1.0
  0
MTEXT
  5
1A2
100
AcDbEntity
100
AcDbMText
  8
text
 62
256
370
-1
  6
ByLayer
 10
316.0
 20
312.0
 30
0.0
 40
4.0
 41
100.0
 71
1
 72
2
  1
overhead\Pductwork
  7
normallatin1
 50
0.0
 73
1
 44
1.0
  0
MTEXT
  5
1A3
100
AcDbEntity
100
AcDbMText
  8
text
 62
256
370
-1
  6
ByLayer
 10
264.0
 20
348.0
 30
0.0
 40
4.0
 41
100.0
 71
1
 72
2
  1
overhead\Pductwork
  7
normallatin1
 50
0.0
 73
1
 44
1.0
  0
MTEXT
  5
1A4
100
AcDbEntity
100
AcDbMText
  8
text
 62
256
370
-1
  6
ByLayer
 10
6.9321148888321327
 20
224.9086163932203135
 30
0.0
 40
8.0
 41
100.0
 71
1
 72
2
  1
unfinished\Pside\~of\~basement
  7
normallatin1
 50
0.0
 73
1
 44
1.0
  0
MTEXT
  5
1A5
100
AcDbEntity
100
AcDbMText
  8
text
 62
256
370
-1
  6
ByLayer
 10
288.8381203680055478
 20
171.7624022455072748
 30
0.0
 40
8.0
 41
100.0
 71
1
 72
2
  1
finished\Pside\~of\~basement
  7
normallatin1
 50
0.0
 73
1
 44
1.0
  0
LEADER
  5
1A6
  8
text
 62
256
370
-1
  6
ByLayer
100
AcDbEntity
100
AcDbLeader
  3
Standard
 71
1
 72
0
 73
3
 74
0
 75
0
 40
1.0
 41
10.0
 76
2
 10
25.8447975170561683
 20
482.1605424781998863
 10
25.9481767071243929
 20
460.4509125638726914
  0
LEADER
  5
1A7
  8
text
 62
256
370
-1
  6
ByLayer
100
AcDbEntity
100
AcDbLeader
  3
Standard
 71
1
 72
0
 73
3
 74
0
 75
0
 40
1.0
 41
10.0
 76
2
 10
-17.5
 20
386.3797228799903678
 10
22.0
 20
394.0
  0
LEADER
  5
1A8
  8
text
 62
256
370
-1
  6
ByLayer
100
AcDbEntity
100
AcDbLeader
  3
Standard
 71
1
 72
0
 73
3
 74
0
 75
0
 40
1.0
 41
10.0
 76
2
 10
146.0
 20
378.0
 10
108.0
 20
384.0
  0
MTEXT
  5
1A9
100
AcDbEntity
100
AcDbMText
  8
text
 62
256
370
-1
  6
ByLayer
 10
95.4351959095398001
 20
401.4587993219483906
 30
0.0
 40
4.0
 41
100.0
 71
1
 72
2
  1
overhead\Pi-beam
  7
normallatin1
 50
0.0
 73
0
 44
1.0
  0
MTEXT
  5
1AA
100
AcDbEntity
100
AcDbMText
  8
text
 62
256
370
-1
  6
ByLayer
 10
13.0138903513008817
 20
410.9234468501672382
 30
0.0
 40
4.0
 41
100.0
 71
1
 72
2
  1
overhead\Pi-beam
  7
normallatin1
 50
0.0
 73
0
 44
1.0
  0
ARC
  5
1AB
100
AcDbEntity
  8
heating
 62
256
370
-1
  6
ByLayer
100
AcDbCircle
 10
300.0
 20
198.0
 30
0.0
 40
4.0
100
AcDbArc
 50
270.0
 51
0.0
  0
LINE
  5
1AC
100
AcDbEntity
100
AcDbLine
  8
heating
 62
256
370
-1
  6
ByLayer
 10
304.0
 20
282.0
 30
0.0
 11
304.0
 21
198.0
 31
0.0
  0
ARC
  5
1AD
100
AcDbEntity
  8
heating
 62
256
370
-1
  6
ByLayer
100
AcDbCircle
 10
300.0
 20
282.0
 30
0.0
 40
4.0
100
AcDbArc
 50
0.0
 51
90.0
  0
ARC
  5
1AE
100
AcDbEntity
  8
heating
 62
256
370
-1
  6
ByLayer
100
AcDbCircle
 10
290.8284271247462129
 20
320.4852813742385251
 30
0.0
 40
4.0
100
AcDbArc
 50
314.9999999999994316
 51
45.0
  0
LINE
  5
1AF
100
AcDbEntity
100
AcDbLine
  8
heating
 62
256
370
-1
  6
ByLayer
 10
262.5441558772843678
 20
354.426406871192853
 30
0.0
 11
293.6568542494924259
 21
323.3137084989847381
 31
0.0
  0
ARC
  5
1B0
100
AcDbEntity
  8
heating
 62
256
370
-1
  6
ByLayer
100
AcDbCircle
 10
259.7157287525381548
 20
351.5979797464466401
 30
0.0
 40
4.0
100
AcDbArc
 50
45.0
 51
135.0
  0
ARC
  5
1B1
100
AcDbEntity
  8
heating
 62
256
370
-1
  6
ByLayer
100
AcDbCircle
 10
267.998538901394852
 20
-28.6583153480975774
 30
0.0
 40
4.0
100
AcDbArc
 50
44.9704099978459411
 51
134.9999999999999716
  0
LINE
  5
1B2
100
AcDbEntity
100
AcDbLine
  8
heating
 62
256
370
-1
  6
ByLayer
 10
270.828426370172167
 20
-25.8313493217617385
 30
0.0
 11
293.6597749377493756
 21
-48.6862922551996746
 31
0.0
  0
ARC
  5
1B3
100
AcDbEntity
  8
heating
 62
256
370
-1
  6
ByLayer
100
AcDbCircle
 10
290.8298874689720606
 20
-51.5132582815355278
 30
0.0
 40
4.0
100
AcDbArc
 50
315.0000000000000568
 51
44.9704099978460832
  0
LINE
  5
1B4
100
AcDbEntity
100
AcDbLine
  8
ceiling
 62
256
370
-1
  6
ByLayer
 10
303.0
 20
178.25
 30
0.0
 11
303.0
 21
-59.5
 31
0.0
  0
LINE
  5
1B5
100
AcDbEntity
100
AcDbLine
  8
ceiling
 62
256
370
-1
  6
ByLayer
 10
257.25
 20
224.0
 30
0.0
 11
303.0
 21
178.25
 31
0.0
  0
LINE
  5
1B6
100
AcDbEntity
100
AcDbLine
  8
ceiling
 62
256
370
-1
  6
ByLayer
 10
314.0
 20
238.0
 30
0.0
 11
325.0
 21
249.0
 31
0.0
  0
LINE
  5
1B7
100
AcDbEntity
100
AcDbLine
  8
ceiling
 62
256
370
-1
  6
ByLayer
 10
314.0
 20
-53.0
 30
0.0
 11
314.0
 21
238.0
 31
0.0
  0
LINE
  5
1B8
100
AcDbEntity
100
AcDbLine
  8
partition_wall
 62
256
370
-1
  6
ByLayer
 10
314.0
 20
-59.0
 30
0.0
 11
444.0
 21
-59.0
 31
0.0
  0
LINE
  5
1B9
100
AcDbEntity
100
AcDbLine
  8
partition_wall
 62
256
370
-1
  6
ByLayer
 10
310.0
 20
-59.0
 30
0.0
 11
312.0
 21
-59.0
 31
0.0
  0
LINE
  5
1BA
100
AcDbEntity
100
AcDbLine
  8
partition_wall
 62
256
370
-1
  6
ByLayer
 10
310.0
 20
-57.0
 30
0.0
 11
310.0
 21
-59.0
 31
0.0
  0
LINE
  5
1BB
100
AcDbEntity
100
AcDbLine
  8
partition_wall
 62
256
370
-1
  6
ByLayer
 10
310.0
 20
-57.0
 30
0.0
 11
252.5
 21
0.5
 31
0.0
  0
LINE
  5
1BC
100
AcDbEntity
100
AcDbLine
  8
ceiling
 62
256
370
-1
  6
ByLayer
 10
216.0
 20
229.0
 30
0.0
 11
216.0
 21
4.5
 31
0.0
  0
LEADER
  5
1BD
  8
text
 62
256
370
-1
  6
ByLayer
100
AcDbEntity
100
AcDbLeader
  3
Standard
 71
1
 72
0
 73
3
 74
0
 75
0
 40
1.0
 41
10.0
 76
2
 10
325.0
 20
380.5976396866841469
 10
352.0
 20
392.0
  0
MTEXT
  5
1BE
100
AcDbEntity
100
AcDbMText
  8
text
 62
256
370
-1
  6
ByLayer
 10
356.0
 20
396.0
 30
0.0
 40
3.0
 41
100.0
 71
1
 72
2
  1
87\~1/2"\~soffit
  7
normallatin1
 50
0.0
 73
1
 44
1.0
  0
LINE
  5
1BF
100
AcDbEntity
100
AcDbLine
  8
ceiling
 62
256
370
-1
  6
ByLayer
 10
325.0
 20
426.0
 30
0.0
 11
429.5
 21
426.0
 31
0.0
  0
LEADER
  5
1C0
  8
text
 62
256
370
-1
  6
ByLayer
100
AcDbEntity
100
AcDbLeader
  3
Standard
 71
1
 72
0
 73
3
 74
0
 75
0
 40
1.0
 41
10.0
 76
2
 10
363.9713420365536081
 20
426.0
 10
354.0
 20
396.0
  0
DIMENSION
  5
1C1
100
AcDbEntity
  8
dimensions
 62
256
370
-1
  6
ByLayer
100
AcDbDimension
 10
314.0
 20
128.9542816738594126
 30
0.0
 11
308.5
 21
131.9542816738594126
 31
0.0
 70
0
 71
5
 72
1
 41
1.0
 42
0.0
  1

  3
Standard
100
AcDbAlignedDimension
 13
303.0
 23
129.049031329754996
 33
0.0
 14
314.0
 24
128.9542816738594126
 34
0.0
 50
0.0
100
AcDbRotatedDimension
  0
MTEXT
  5
1C2
100
AcDbEntity
100
AcDbMText
  8
text
 62
256
370
-1
  6
ByLayer
 10
-84.0
 20
132.0
 30
0.0
 40
3.0
 41
100.0
 71
1
 72
2
  1
inside\~wall\Pof\~foundation
  7
normallatin1
 50
0.0
 73
0
 44
1.0
  0
LEADER
  5
1C3
  8
text
 62
256
370
-1
  6
ByLayer
100
AcDbEntity
100
AcDbLeader
  3
Standard
 71
1
 72
0
 73
3
 74
0
 75
0
 40
1.0
 41
10.0
 76
2
 10
0.0
 20
108.6031332583701499
 10
-74.0
 20
121.0
  0
LINE
  5
1C4
100
AcDbEntity
100
AcDbLine
  8
stairs
 62
256
370
-1
  6
ByLayer
 10
1.5
 20
484.5
 30
0.0
 11
1.5
 21
450.0
 31
0.0
  0
LINE
  5
1C5
100
AcDbEntity
100
AcDbLine
  8
stairs
 62
256
370
-1
  6
ByLayer
 10
1.5
 20
450.0
 30
0.0
 11
3.5
 21
450.0
 31
0.0
  0
LINE
  5
1C6
100
AcDbEntity
100
AcDbLine
  8
stairs
 62
256
370
-1
  6
ByLayer
 10
3.5
 20
450.0
 30
0.0
 11
3.5
 21
486.5
 31
0.0
  0
LINE
  5
1C7
100
AcDbEntity
100
AcDbLine
  8
stairs
 62
256
370
-1
  6
ByLayer
 10
41.0
 20
450.0
 30
0.0
 11
39.0
 21
450.0
 31
0.0
  0
LINE
  5
1C8
100
AcDbEntity
100
AcDbLine
  8
stairs
 62
256
370
-1
  6
ByLayer
 10
39.0
 20
450.0
 30
0.0
 11
39.0
 21
487.0
 31
0.0
  0
LINE
  5
1C9
100
AcDbEntity
100
AcDbLine
  8
stairs
 62
256
370
-1
  6
ByLayer
 10
41.0
 20
450.0
 30
0.0
 11
41.0
 21
486.0
 31
0.0
  0
LINE
  5
1CA
100
AcDbEntity
100
AcDbLine
  8
stairs
 62
256
370
-1
  6
ByLayer
 10
3.5
 20
451.0
 30
0.0
 11
39.0
 21
451.0
 31
0.0
  0
LINE
  5
1CB
100
AcDbEntity
100
AcDbLine
  8
stairs
 62
256
370
-1
  6
ByLayer
 10
3.5
 20
461.0
 30
0.0
 11
39.0
 21
461.0
 31
0.0
  0
LINE
  5
1CC
100
AcDbEntity
100
AcDbLine
  8
stairs
 62
256
370
-1
  6
ByLayer
 10
39.0
 20
471.0
 30
0.0
 11
3.5
 21
471.0
 31
0.0
  0
LINE
  5
1CD
100
AcDbEntity
100
AcDbLine
  8
stairs
 62
256
370
-1
  6
ByLayer
 10
3.5
 20
481.0
 30
0.0
 11
39.0
 21
481.0
 31
0.0
  0
MTEXT
  5
1CE
100
AcDbEntity
100
AcDbMText
  8
text
 62
256
370
-1
  6
ByLayer
 10
222.0
 20
206.0
 30
0.0
 40
3.0
 41
100.0
 71
1
 72
2
  1
bottom\~step
  7
normallatin1
 50
0.0
 73
0
 44
1.0
  0
LINE
  5
1CF
100
AcDbEntity
100
AcDbLine
  8
stairs
 62
256
370
-1
  6
ByLayer
 10
251.0
 20
330.5
 30
0.0
 11
251.0
 21
194.0
 31
0.0
  0
LINE
  5
1D0
100
AcDbEntity
100
AcDbLine
  8
stairs
 62
256
370
-1
  6
ByLayer
 10
251.0
 20
240.0
 30
0.0
 11
235.0
 21
240.0
 31
0.0
  0
LINE
  5
1D1
100
AcDbEntity
100
AcDbLine
  8
stairs
 62
256
370
-1
  6
ByLayer
 10
251.0
 20
248.0
 30
0.0
 11
242.0
 21
248.0
 31
0.0
  0
LINE
  5
1D2
100
AcDbEntity
100
AcDbLine
  8
stairs
 62
256
370
-1
  6
ByLayer
 10
218.0
 20
290.0
 30
0.0
 11
235.0
 21
290.0
 31
0.0
  0
LINE
  5
1D3
100
AcDbEntity
100
AcDbLine
  8
stairs
 62
256
370
-1
  6
ByLayer
 10
218.0
 20
282.0
 30
0.0
 11
231.0
 21
282.0
 31
0.0
  0
LINE
  5
1D4
100
AcDbEntity
100
AcDbLine
  8
stairs
 62
256
370
-1
  6
ByLayer
 10
218.0
 20
274.0
 30
0.0
 11
229.0
 21
274.0
 31
0.0
  0
LINE
  5
1D5
100
AcDbEntity
100
AcDbLine
  8
stairs
 62
256
370
-1
  6
ByLayer
 10
218.0
 20
266.0
 30
0.0
 11
224.0
 21
266.0
 31
0.0
  0
LINE
  5
1D6
100
AcDbEntity
100
AcDbLine
  8
stairs
 62
256
370
-1
  6
ByLayer
 10
218.0
 20
194.0
 30
0.0
 11
218.0
 21
330.5
 31
0.0
  0
LINE
  5
1D7
100
AcDbEntity
100
AcDbLine
  8
stairs
 62
256
370
-1
  6
ByLayer
 10
218.0
 20
330.5
 30
0.0
 11
251.0
 21
330.5
 31
0.0
  0
LINE
  5
1D8
100
AcDbEntity
100
AcDbLine
  8
stairs
 62
256
370
-1
  6
ByLayer
 10
218.0
 20
322.0
 30
0.0
 11
251.0
 21
322.0
 31
0.0
  0
LINE
  5
1D9
100
AcDbEntity
100
AcDbLine
  8
stairs
 62
256
370
-1
  6
ByLayer
 10
218.0
 20
314.0
 30
0.0
 11
251.0
 21
314.0
 31
0.0
  0
LINE
  5
1DA
100
AcDbEntity
100
AcDbLine
  8
stairs
 62
256
370
-1
  6
ByLayer
 10
218.0
 20
306.0
 30
0.0
 11
251.0
 21
306.0
 31
0.0
  0
LINE
  5
1DB
100
AcDbEntity
100
AcDbLine
  8
stairs
 62
256
370
-1
  6
ByLayer
 10
218.0
 20
298.0
 30
0.0
 11
251.0
 21
298.0
 31
0.0
  0
DIMENSION
  5
1DC
100
AcDbEntity
  8
dimensions
 62
256
370
-1
  6
ByLayer
100
AcDbDimension
 10
253.0
 20
185.0
 30
0.0
 11
234.5
 21
188.0
 31
0.0
 70
0
 71
5
 72
1
 41
1.0
 42
0.0
  1

  3
Standard
100
AcDbAlignedDimension
 13
218.0
 23
194.0
 33
0.0
 14
251.0
 24
194.0
 34
0.0
 50
0.0
100
AcDbRotatedDimension
  0
LINE
  5
1DD
100
AcDbEntity
100
AcDbLine
  8
stairs
 62
256
370
-1
  6
ByLayer
 10
218.0
 20
200.0
 30
0.0
 11
251.0
 21
200.0
 31
0.0
  0
LINE
  5
1DE
100
AcDbEntity
100
AcDbLine
  8
stairs
 62
256
370
-1
  6
ByLayer
 10
218.0
 20
208.0
 30
0.0
 11
251.0
 21
208.0
 31
0.0
  0
LINE
  5
1DF
100
AcDbEntity
100
AcDbLine
  8
stairs
 62
256
370
-1
  6
ByLayer
 10
218.0
 20
216.0
 30
0.0
 11
251.0
 21
216.0
 31
0.0
  0
LINE
  5
1E0
100
AcDbEntity
100
AcDbLine
  8
stairs
 62
256
370
-1
  6
ByLayer
 10
218.0
 20
224.0
 30
0.0
 11
251.0
 21
224.0
 31
0.0
  0
LINE
  5
1E1
100
AcDbEntity
100
AcDbLine
  8
stairs
 62
256
370
-1
  6
ByLayer
 10
251.0
 20
232.0
 30
0.0
 11
218.0
 21
232.0
 31
0.0
  0
LINE
  5
1E2
100
AcDbEntity
100
AcDbLine
  8
stairs
 62
256
370
-1
  6
ByLayer
 10
218.0
 20
194.0
 30
0.0
 11
216.0
 21
194.0
 31
0.0
  0
LINE
  5
1E3
100
AcDbEntity
100
AcDbLine
  8
stairs
 62
256
370
-1
  6
ByLayer
 10
216.0
 20
194.0
 30
0.0
 11
216.0
 21
330.5
 31
0.0
  0
LINE
  5
1E4
100
AcDbEntity
100
AcDbLine
  8
stairs
 62
256
370
-1
  6
ByLayer
 10
216.0
 20
330.5
 30
0.0
 11
218.0
 21
330.5
 31
0.0
  0
LINE
  5
1E5
100
AcDbEntity
100
AcDbLine
  8
stairs
 62
256
370
-1
  6
ByLayer
 10
251.0
 20
330.5
 30
0.0
 11
253.0
 21
330.5
 31
0.0
  0
LINE
  5
1E6
100
AcDbEntity
100
AcDbLine
  8
stairs
 62
256
370
-1
  6
ByLayer
 10
253.0
 20
330.5
 30
0.0
 11
253.0
 21
194.0
 31
0.0
  0
LINE
  5
1E7
100
AcDbEntity
100
AcDbLine
  8
stairs
 62
256
370
-1
  6
ByLayer
 10
253.0
 20
194.0
 30
0.0
 11
251.0
 21
194.0
 31
0.0
  0
MTEXT
  5
1E8
100
AcDbEntity
100
AcDbMText
  8
text
 62
256
370
-1
  6
ByLayer
 10
0.0
 20
348.0
 30
0.0
 40
5.0
 41
100.0
 71
1
 72
2
  1
storage\Pshelves\P(\~x2\~)
  7
normallatin1
 50
0.0
 73
0
 44
1.0
  0
MTEXT
  5
1E9
100
AcDbEntity
100
AcDbMText
  8
text
 62
256
370
-1
  6
ByLayer
 10
-88.0
 20
456.0
 30
0.0
 40
5.0
 41
100.0
 71
1
 72
2
  1
storage\Pshelves\~(x5)
  7
normallatin1
 50
0.0
 73
0
 44
1.0
  0
MTEXT
  5
1EA
100
AcDbEntity
100
AcDbMText
  8
text
 62
256
370
-1
  6
ByLayer
 10
60.000055555555555
 20
61.6666672222222303
 30
0.0
 40
5.0
 41
100.0
 71
1
 72
2
  1
recreation\Parea
  7
normallatin1
 50
0.0
 73
1
 44
1.0
  0
MTEXT
  5
1EB
100
AcDbEntity
100
AcDbMText
  8
text
 62
256
370
-1
  6
ByLayer
 10
60.0
 20
120.0
 30
0.0
 40
3.0
 41
100.0
 71
1
 72
2
  1
ping\~pong\P9'\~x\~5'
  7
normallatin1
 50
0.0
 73
1
 44
1.0
  0
LINE
  5
1EC
100
AcDbEntity
100
AcDbLine
  8
furniture
 62
256
370
-1
  6
ByLayer
 10
42.0
 20
186.0
 30
0.0
 11
102.0
 21
186.0
 31
0.0
  0
LINE
  5
1ED
100
AcDbEntity
100
AcDbLine
  8
furniture
 62
256
370
-1
  6
ByLayer
 10
102.0
 20
186.0
 30
0.0
 11
102.0
 21
78.0
 31
0.0
  0
LINE
  5
1EE
100
AcDbEntity
100
AcDbLine
  8
furniture
 62
256
370
-1
  6
ByLayer
 10
102.0
 20
78.0
 30
0.0
 11
42.0
 21
78.0
 31
0.0
  0
LINE
  5
1EF
100
AcDbEntity
100
AcDbLine
  8
furniture
 62
256
370
-1
  6
ByLayer
 10
42.0
 20
78.0
 30
0.0
 11
42.0
 21
186.0
 31
0.0
  0
LINE
  5
1F0
100
AcDbEntity
100
AcDbLine
  8
furniture
 62
256
370
-1
  6
ByLayer
 10
39.0
 20
131.5
 30
0.0
 11
39.0
 21
132.5
 31
0.0
  0
LINE
  5
1F1
100
AcDbEntity
100
AcDbLine
  8
furniture
 62
256
370
-1
  6
ByLayer
 10
39.0
 20
132.5
 30
0.0
 11
105.0
 21
132.5
 31
0.0
  0
LINE
  5
1F2
100
AcDbEntity
100
AcDbLine
  8
furniture
 62
256
370
-1
  6
ByLayer
 10
105.0
 20
132.5
 30
0.0
 11
105.0
 21
131.5
 31
0.0
  0
LINE
  5
1F3
100
AcDbEntity
100
AcDbLine
  8
furniture
 62
256
370
-1
  6
ByLayer
 10
105.0
 20
131.5
 30
0.0
 11
39.0
 21
131.5
 31
0.0
  0
CIRCLE
  5
1F4
100
AcDbEntity
100
AcDbCircle
  8
text
 62
256
370
-1
  6
ByLayer
 10
314.0
 20
275.0
 30
0.0
 40
0.7071067811865476
  0
LINE
  5
1F5
100
AcDbEntity
100
AcDbLine
  8
text
 62
256
370
-1
  6
ByLayer
 10
312.0
 20
275.0
 30
0.0
 11
316.0
 21
275.0
 31
0.0
  0
LINE
  5
1F6
100
AcDbEntity
100
AcDbLine
  8
text
 62
256
370
-1
  6
ByLayer
 10
314.0
 20
276.5
 30
0.0
 11
314.0
 21
273.5
 31
0.0
  0
LEADER
  5
1F7
  8
text
 62
256
370
-1
  6
ByLayer
100
AcDbEntity
100
AcDbLeader
  3
Standard
 71
1
 72
0
 73
3
 74
0
 75
0
 40
1.0
 41
10.0
 76
3
 10
314.0
 20
275.0
 10
319.5
 20
277.5
 10
330.0
 20
277.5
  0
LINE
  5
1F8
100
AcDbEntity
100
AcDbLine
  8
furniture
 62
256
370
-1
  6
ByLayer
 10
336.0
 20
264.0
 30
0.0
 11
382.0
 21
264.0
 31
0.0
  0
LINE
  5
1F9
100
AcDbEntity
100
AcDbLine
  8
furniture
 62
256
370
-1
  6
ByLayer
 10
382.0
 20
264.0
 30
0.0
 11
382.0
 21
172.0
 31
0.0
  0
LINE
  5
1FA
100
AcDbEntity
100
AcDbLine
  8
furniture
 62
256
370
-1
  6
ByLayer
 10
382.0
 20
172.0
 30
0.0
 11
336.0
 21
172.0
 31
0.0
  0
LINE
  5
1FB
100
AcDbEntity
100
AcDbLine
  8
furniture
 62
256
370
-1
  6
ByLayer
 10
336.0
 20
172.0
 30
0.0
 11
336.0
 21
264.0
 31
0.0
  0
MTEXT
  5
1FC
100
AcDbEntity
100
AcDbMText
  8
text
 62
256
370
-1
  6
ByLayer
 10
273.7416190961978373
 20
226.1094518943297942
 30
0.0
 40
4.0
 41
100.0
 71
1
 72
2
  1
overhead\Pi-beam
  7
normallatin1
 50
0.0
 73
0
 44
1.0
  0
LEADER
  5
1FD
  8
text
 62
256
370
-1
  6
ByLayer
100
AcDbEntity
100
AcDbLeader
  3
Standard
 71
1
 72
0
 73
3
 74
0
 75
0
 40
1.0
 41
10.0
 76
2
 10
305.75
 20
199.6602526342960005
 10
284.0
 20
214.0
  0
MTEXT
  5
1FE
100
AcDbEntity
100
AcDbMText
  8
text
 62
256
370
-1
  6
ByLayer
 10
276.0
 20
200.0
 30
0.0
 40
2.0
 41
100.0
 71
1
 72
2
  1
support\Ppost
  7
normallatin1
 50
0.0
 73
1
 44
1.0
  0
LEADER
  5
1FF
  8
text
 62
256
370
-1
  6
ByLayer
100
AcDbEntity
100
AcDbLeader
  3
Standard
 71
1
 72
0
 73
3
 74
0
 75
0
 40
1.0
 41
10.0
 76
2
 10
308.5
 20
192.5
 10
284.0
 20
196.0
  0
LINE
  5
200
100
AcDbEntity
100
AcDbLine
  8
furniture
 62
256
370
-1
  6
ByLayer
 10
366.0
 20
48.0000000000000071
 30
0.0
 11
366.0
 21
48.0000000000000071
 31
0.0
  0
LINE
  5
201
100
AcDbEntity
100
AcDbLine
  8
furniture
 62
256
370
-1
  6
ByLayer
 10
366.0
 20
48.0000000000000071
 30
0.0
 11
366.0
 21
48.0000000000000071
 31
0.0
  0
MTEXT
  5
202
100
AcDbEntity
100
AcDbMText
  8
text
 62
256
370
-1
  6
ByLayer
 10
384.7037040127732439
 20
107.7592593320401591
 30
0.0
 40
5.0
 41
100.0
 71
1
 72
2
  1
entertainment\Pmultimedia\Parea
  7
normallatin1
 50
0.0
 73
1
 44
1.0
  0
LINE
  5
203
100
AcDbEntity
100
AcDbLine
  8
furniture
 62
256
370
-1
  6
ByLayer
 10
430.0
 20
2.0000000000000036
 30
0.0
 11
430.0
 21
2.0000000000000036
 31
0.0
  0
LINE
  5
204
100
AcDbEntity
100
AcDbLine
  8
furniture
 62
256
370
-1
  6
ByLayer
 10
360.0
 20
104.0
 30
0.0
 11
360.0
 21
20.0
 31
0.0
  0
LINE
  5
205
100
AcDbEntity
100
AcDbLine
  8
furniture
 62
256
370
-1
  6
ByLayer
 10
360.0
 20
20.0
 30
0.0
 11
316.0
 21
20.0000000000000284
 31
0.0
  0
LINE
  5
206
100
AcDbEntity
100
AcDbLine
  8
furniture
 62
256
370
-1
  6
ByLayer
 10
316.0
 20
20.0000000000000284
 30
0.0
 11
316.0
 21
104.0000000000000142
 31
0.0
  0
LINE
  5
207
100
AcDbEntity
100
AcDbLine
  8
furniture
 62
256
370
-1
  6
ByLayer
 10
316.0
 20
104.0000000000000142
 30
0.0
 11
360.0
 21
104.0
 31
0.0
  0
LINE
  5
208
100
AcDbEntity
100
AcDbLine
  8
furniture
 62
256
370
-1
  6
ByLayer
 10
360.0
 20
92.0
 30
0.0
 11
330.0
 21
92.0
 31
0.0
  0
LINE
  5
209
100
AcDbEntity
100
AcDbLine
  8
furniture
 62
256
370
-1
  6
ByLayer
 10
330.0
 20
92.0
 30
0.0
 11
330.0
 21
32.0
 31
0.0
  0
LINE
  5
20A
100
AcDbEntity
100
AcDbLine
  8
furniture
 62
256
370
-1
  6
ByLayer
 10
330.0
 20
32.0
 30
0.0
 11
360.0
 21
32.0
 31
0.0
  0
MTEXT
  5
20B
100
AcDbEntity
100
AcDbMText
  8
text
 62
256
370
-1
  6
ByLayer
 10
268.0
 20
40.0
 30
0.0
 40
3.0
 41
100.0
 71
1
 72
2
  1
87\~1/2"\~soffit
  7
normallatin1
 50
0.0
 73
0
 44
1.0
  0
LEADER
  5
20C
  8
text
 62
256
370
-1
  6
ByLayer
100
AcDbEntity
100
AcDbLeader
  3
Standard
 71
1
 72
0
 73
3
 74
0
 75
0
 40
1.0
 41
10.0
 76
3
 10
303.0
 20
59.0
 10
283.0
 20
57.0
 10
281.0
 20
43.0
  0
CIRCLE
  5
20D
100
AcDbEntity
100
AcDbCircle
  8
girders_posts
 62
256
370
-1
  6
ByLayer
 10
308.5
 20
66.0
 30
0.0
 40
2.1213203435596424
  0
LEADER
  5
20E
  8
text
 62
256
370
-1
  6
ByLayer
100
AcDbEntity
100
AcDbLeader
  3
Standard
 71
1
 72
0
 73
3
 74
0
 75
0
 40
1.0
 41
10.0
 76
2
 10
308.5
 20
66.0
 10
284.0
 20
69.5
  0
LINE
  5
20F
100
AcDbEntity
100
AcDbLine
  8
furniture
 62
256
370
-1
  6
ByLayer
 10
360.0
 20
12.0
 30
0.0
 11
385.4558441227156891
 21
-13.4558441227157175
 31
0.0
  0
LINE
  5
210
100
AcDbEntity
100
AcDbLine
  8
furniture
 62
256
370
-1
  6
ByLayer
 10
347.2720779386421555
 20
-0.7279220613578552
 30
0.0
 11
360.0
 21
12.0
 31
0.0
  0
ARC
  5
211
100
AcDbEntity
  8
furniture
 62
256
370
-1
  6
ByLayer
100
AcDbCircle
 10
360.0
 20
-13.4558441227157104
 30
0.0
 40
18.0
100
AcDbArc
 50
135.0
 51
225.0
  0
LINE
  5
212
100
AcDbEntity
100
AcDbLine
  8
furniture
 62
256
370
-1
  6
ByLayer
 10
347.2720779386421555
 20
-26.1837661840735691
 30
0.0
 11
347.2720779386421555
 21
-26.1837661840735691
 31
0.0
  0
LINE
  5
213
100
AcDbEntity
100
AcDbLine
  8
furniture
 62
256
370
-1
  6
ByLayer
 10
385.4558441227156891
 20
-13.4558441227157175
 30
0.0
 11
372.7279220613578445
 21
-26.1837661840735691
 31
0.0
  0
ARC
  5
214
100
AcDbEntity
  8
furniture
 62
256
370
-1
  6
ByLayer
100
AcDbCircle
 10
360.0
 20
-13.4558441227157104
 30
0.0
 40
18.0
100
AcDbArc
 50
225.0
 51
315.0
  0
LINE
  5
215
100
AcDbEntity
100
AcDbLine
  8
furniture
 62
256
370
-1
  6
ByLayer
 10
364.2426406871192626
 20
7.7573593128807143
 30
0.0
 11
347.2720779386421555
 21
-9.213203435596423
 31
0.0
  0
LINE
  5
216
100
AcDbEntity
100
AcDbLine
  8
furniture
 62
256
370
-1
  6
ByLayer
 10
347.2720779386421555
 20
-9.213203435596423
 30
0.0
 11
364.2426406871192626
 21
-26.183766184073562
 31
0.0
  0
LINE
  5
217
100
AcDbEntity
100
AcDbLine
  8
furniture
 62
256
370
-1
  6
ByLayer
 10
364.2426406871192626
 20
-26.183766184073562
 30
0.0
 11
381.2132034355964265
 21
-9.2132034355964301
 31
0.0
  0
LINE
  5
218
100
AcDbEntity
100
AcDbLine
  8
furniture
 62
256
370
-1
  6
ByLayer
 10
436.7279220613577877
 20
99.8162338159264095
 30
0.0
 11
411.2720779386420418
 21
125.2720779386421555
 31
0.0
  0
LINE
  5
219
100
AcDbEntity
100
AcDbLine
  8
furniture
 62
256
370
-1
  6
ByLayer
 10
449.4558441227156891
 20
112.5441558772842541
 30
0.0
 11
436.7279220613577877
 21
99.8162338159264095
 31
0.0
  0
ARC
  5
21A
100
AcDbEntity
  8
furniture
 62
256
370
-1
  6
ByLayer
100
AcDbCircle
 10
436.7279220613578445
 20
125.2720779386420986
 30
0.0
 40
18.0
100
AcDbArc
 50
315.0
 51
45.0
  0
LINE
  5
21B
100
AcDbEntity
100
AcDbLine
  8
furniture
 62
256
370
-1
  6
ByLayer
 10
449.4558441227156891
 20
137.9999999999999716
 30
0.0
 11
449.4558441227156891
 21
137.9999999999999716
 31
0.0
  0
LINE
  5
21C
100
AcDbEntity
100
AcDbLine
  8
furniture
 62
256
370
-1
  6
ByLayer
 10
411.2720779386420418
 20
125.2720779386421555
 30
0.0
 11
424.0
 21
138.0
 31
0.0
  0
ARC
  5
21D
100
AcDbEntity
  8
furniture
 62
256
370
-1
  6
ByLayer
100
AcDbCircle
 10
436.7279220613578445
 20
125.2720779386420986
 30
0.0
 40
18.0
100
AcDbArc
 50
45.0
 51
135.0
  0
LINE
  5
21E
100
AcDbEntity
100
AcDbLine
  8
furniture
 62
256
370
-1
  6
ByLayer
 10
432.4852813742384683
 20
104.0588745030457005
 30
0.0
 11
449.4558441227156891
 21
121.0294372515228076
 31
0.0
  0
LINE
  5
21F
100
AcDbEntity
100
AcDbLine
  8
furniture
 62
256
370
-1
  6
ByLayer
 10
449.4558441227156891
 20
121.0294372515228076
 30
0.0
 11
432.4852813742385251
 21
137.9999999999999432
 31
0.0
  0
LINE
  5
220
100
AcDbEntity
100
AcDbLine
  8
furniture
 62
256
370
-1
  6
ByLayer
 10
432.4852813742385251
 20
137.9999999999999432
 30
0.0
 11
415.514718625761418
 21
121.029437251522836
 31
0.0
  0
ELLIPSE
  5
221
100
AcDbEntity
100
AcDbEllipse
  8
furniture
 62
256
370
-1
  6
ByLayer
 10
338.0
 20
122.0
 30
0.0
 11
14.0
 21
0.0
 31
0.0
 40
0.7857142857142857
 41
0.0
 42
6.2831853071795862
  0
ELLIPSE
  5
222
100
AcDbEntity
100
AcDbEllipse
  8
furniture
 62
256
370
-1
  6
ByLayer
 10
400.0
 20
-28.0
 30
0.0
 11
14.0
 21
0.0
 31
0.0
 40
0.7857142857142857
 41
0.0
 42
6.2831853071795862
  0
ELLIPSE
  5
223
100
AcDbEntity
100
AcDbEllipse
  8
furniture
 62
256
370
-1
  6
ByLayer
 10
384.0
 20
60.0
 30
0.0
 11
0.0
 21
-21.0
 31
0.0
 40
0.8095238095238095
 41
0.0
 42
6.2831853071795862
  0
ELLIPSE
  5
224
100
AcDbEntity
100
AcDbEllipse
  8
furniture
 62
256
370
-1
  6
ByLayer
 10
384.0
 20
81.0
 30
0.0
 11
0.0
 21
-8.0
 31
0.0
 40
0.75
 41
0.0
 42
6.2831853071795862
  0
MTEXT
  5
225
100
AcDbEntity
100
AcDbMText
  8
text
 62
256
370
-1
  6
ByLayer
 10
276.0
 20
325.0
 30
0.0
 40
2.0
 41
100.0
 71
1
 72
2
  1
support\Ppost
  7
normallatin1
 50
0.0
 73
1
 44
1.0
  0
LEADER
  5
226
  8
text
 62
256
370
-1
  6
ByLayer
100
AcDbEntity
100
AcDbLeader
  3
Standard
 71
1
 72
0
 73
3
 74
0
 75
0
 40
1.0
 41
10.0
 76
2
 10
308.5
 20
317.5
 10
284.0
 20
321.0
  0
LINE
  5
227
100
AcDbEntity
100
AcDbLine
  8
furniture
 62
256
370
-1
  6
ByLayer
 10
454.0
 20
96.0
 30
0.0
 11
458.0
 21
96.0
 31
0.0
  0
LINE
  5
228
100
AcDbEntity
100
AcDbLine
  8
furniture
 62
256
370
-1
  6
ByLayer
 10
458.0
 20
96.0
 30
0.0
 11
458.0
 21
36.0
 31
0.0
  0
LINE
  5
229
100
AcDbEntity
100
AcDbLine
  8
furniture
 62
256
370
-1
  6
ByLayer
 10
458.0
 20
36.0
 30
0.0
 11
454.0
 21
36.0
 31
0.0
  0
LINE
  5
22A
100
AcDbEntity
100
AcDbLine
  8
furniture
 62
256
370
-1
  6
ByLayer
 10
454.0
 20
36.0
 30
0.0
 11
454.0
 21
96.0
 31
0.0
  0
LINE
  5
22B
100
AcDbEntity
100
AcDbLine
  8
furniture
 62
256
370
-1
  6
ByLayer
 10
458.0
 20
84.0
 30
0.0
 11
460.0
 21
84.0
 31
0.0
  0
LINE
  5
22C
100
AcDbEntity
100
AcDbLine
  8
furniture
 62
256
370
-1
  6
ByLayer
 10
460.0
 20
84.0
 30
0.0
 11
460.0
 21
48.0
 31
0.0
  0
LINE
  5
22D
100
AcDbEntity
100
AcDbLine
  8
furniture
 62
256
370
-1
  6
ByLayer
 10
460.0
 20
48.0
 30
0.0
 11
458.0
 21
48.0
 31
0.0
  0
ELLIPSE
  5
22E
100
AcDbEntity
100
AcDbEllipse
  8
furniture
 62
256
370
-1
  6
ByLayer
 10
458.0
 20
66.0
 30
0.0
 11
0.0
 21
-16.0
 31
0.0
 40
0.375
 41
0.0
 42
6.2831853071795862
  0
LINE
  5
22F
100
AcDbEntity
100
AcDbLine
  8
ceiling
 62
256
370
-1
  6
ByLayer
 10
177.0
 20
357.0
 30
0.0
 11
177.0
 21
387.0
 31
0.0
  0
LINE
  5
230
100
AcDbEntity
100
AcDbLine
  8
ceiling
 62
256
370
-1
  6
ByLayer
 10
219.5
 20
354.0
 30
0.0
 11
249.5
 21
354.0
 31
0.0
  0
LINE
  5
231
100
AcDbEntity
100
AcDbLine
  8
ceiling
 62
256
370
-1
  6
ByLayer
 10
263.5
 20
354.0
 30
0.0
 11
293.5
 21
354.0
 31
0.0
  0
LINE
  5
232
100
AcDbEntity
100
AcDbLine
  8
ceiling
 62
256
370
-1
  6
ByLayer
 10
234.0
 20
390.25
 30
0.0
 11
264.0
 21
390.25
 31
0.0
  0
LINE
  5
233
100
AcDbEntity
100
AcDbLine
  8
ceiling
 62
256
370
-1
  6
ByLayer
 10
234.0
 20
394.875
 30
0.0
 11
264.0
 21
394.875
 31
0.0
  0
LINE
  5
234
100
AcDbEntity
100
AcDbLine
  8
ceiling
 62
256
370
-1
  6
ByLayer
 10
164.0
 20
4.5
 30
0.0
 11
194.0
 21
4.5
 31
0.0
  0
LINE
  5
235
100
AcDbEntity
100
AcDbLine
  8
ceiling
 62
256
370
-1
  6
ByLayer
 10
294.0
 20
384.0
 30
0.0
 11
274.0
 21
384.0
 31
0.0
  0
LINE
  5
236
100
AcDbEntity
100
AcDbLine
  8
ceiling
 62
256
370
-1
  6
ByLayer
 10
274.0
 20
384.0
 30
0.0
 11
274.0
 21
360.0
 31
0.0
  0
LINE
  5
237
100
AcDbEntity
100
AcDbLine
  8
ceiling
 62
256
370
-1
  6
ByLayer
 10
274.0
 20
360.0
 30
0.0
 11
294.0
 21
360.0
 31
0.0
  0
LINE
  5
238
100
AcDbEntity
100
AcDbLine
  8
ceiling
 62
256
370
-1
  6
ByLayer
 10
294.0
 20
360.0
 30
0.0
 11
294.0
 21
384.0
 31
0.0
  0
MTEXT
  5
239
100
AcDbEntity
100
AcDbMText
  8
text
 62
256
370
-1
  6
ByLayer
 10
271.0
 20
353.0
 30
0.0
 40
2.0
 41
100.0
 71
1
 72
2
  1
2'\~4"\~door
  7
normallatin1
 50
0.0
 73
0
 44
1.0
  0
MTEXT
  5
23A
100
AcDbEntity
100
AcDbMText
  8
text
 62
256
370
-1
  6
ByLayer
 10
275.0
 20
383.0
 30
0.0
 40
2.0
 41
100.0
 71
1
 72
2
  1
access\~panel\P24"x20"
  7
normallatin1
 50
0.0
 73
0
 44
1.0
  0
LINE
  5
23B
100
AcDbEntity
100
AcDbLine
  8
ceiling
 62
256
370
-1
  6
ByLayer
 10
237.0
 20
428.0
 30
0.0
 11
253.0
 21
428.0
 31
0.0
  0
LINE
  5
23C
100
AcDbEntity
100
AcDbLine
  8
ceiling
 62
256
370
-1
  6
ByLayer
 10
253.0
 20
428.0
 30
0.0
 11
253.0
 21
444.0
 31
0.0
  0
LINE
  5
23D
100
AcDbEntity
100
AcDbLine
  8
ceiling
 62
256
370
-1
  6
ByLayer
 10
253.0
 20
444.0
 30
0.0
 11
237.0
 21
444.0
 31
0.0
  0
LINE
  5
23E
100
AcDbEntity
100
AcDbLine
  8
ceiling
 62
256
370
-1
  6
ByLayer
 10
237.0
 20
444.0
 30
0.0
 11
237.0
 21
428.0
 31
0.0
  0
MTEXT
  5
23F
100
AcDbEntity
100
AcDbMText
  8
text
 62
256
370
-1
  6
ByLayer
 10
259.9861111111110858
 20
443.9791668888888694
 30
0.0
 40
2.0
 41
100.0
 71
1
 72
2
  1
vanity\P48"\~base\P24"\~deep
  7
normallatin1
 50
0.0
 73
1
 44
1.0
  0
MTEXT
  5
240
100
AcDbEntity
100
AcDbMText
  8
text
 62
256
370
-1
  6
ByLayer
 10
238.0
 20
442.0
 30
0.0
 40
2.0
 41
100.0
 71
1
 72
2
  1
access\~panel\P16"x16"
  7
normallatin1
 50
0.0
 73
0
 44
1.0
  0
LINE
  5
241
100
AcDbEntity
100
AcDbLine
  8
partition_wall
 62
256
370
-1
  6
ByLayer
 10
314.0
 20
-55.3431457505076168
 30
0.0
 11
314.0
 21
-59.0
 31
0.0
  0
LINE
  5
242
100
AcDbEntity
100
AcDbLine
  8
partition_wall
 62
256
370
-1
  6
ByLayer
 10
194.0
 20
4.5
 30
0.0
 11
254.156854249492369
 21
4.5
 31
0.0
  0
LINE
  5
243
100
AcDbEntity
100
AcDbLine
  8
partition_wall
 62
256
370
-1
  6
ByLayer
 10
254.156854249492369
 20
4.5
 30
0.0
 11
314.0
 21
-55.3431457505076168
 31
0.0
  0
LINE
  5
244
100
AcDbEntity
100
AcDbLine
  8
ceiling
 62
256
370
-1
  6
ByLayer
 10
325.0
 20
359.0
 30
0.0
 11
399.0
 21
359.0
 31
0.0
  0
LINE
  5
245
100
AcDbEntity
100
AcDbLine
  8
ceiling
 62
256
370
-1
  6
ByLayer
 10
399.0
 20
359.0
 30
0.0
 11
399.0
 21
341.0
 31
0.0
  0
LINE
  5
246
100
AcDbEntity
100
AcDbLine
  8
ceiling
 62
256
370
-1
  6
ByLayer
 10
399.0
 20
341.0
 30
0.0
 11
325.0
 21
341.0
 31
0.0
  0
LINE
  5
247
100
AcDbEntity
100
AcDbLine
  8
ceiling
 62
256
370
-1
  6
ByLayer
 10
325.0
 20
359.0
 30
0.0
 11
325.0
 21
426.0
 31
0.0
  0
LINE
  5
248
100
AcDbEntity
100
AcDbLine
  8
ceiling
 62
256
370
-1
  6
ByLayer
 10
325.0
 20
341.0
 30
0.0
 11
325.0
 21
249.0
 31
0.0
  0
CIRCLE
  5
249
100
AcDbEntity
100
AcDbCircle
  8
lighting
 62
256
370
-1
  6
ByLayer
 10
338.0
 20
350.0
 30
0.0
 40
2.0
  0
CIRCLE
  5
24A
100
AcDbEntity
100
AcDbCircle
  8
lighting
 62
256
370
-1
  6
ByLayer
 10
362.0
 20
350.0
 30
0.0
 40
2.0
  0
CIRCLE
  5
24B
100
AcDbEntity
100
AcDbCircle
  8
lighting
 62
256
370
-1
  6
ByLayer
 10
386.0
 20
350.0
 30
0.0
 40
2.0
  0
DIMENSION
  5
24C
100
AcDbEntity
  8
dimensions
 62
256
370
-1
  6
ByLayer
100
AcDbDimension
 10
325.0
 20
315.0
 30
0.0
 11
355.5
 21
318.0
 31
0.0
 70
0
 71
5
 72
0
 41
1.0
 42
0.0
  1

  3
Standard
100
AcDbAlignedDimension
 13
386.0
 23
350.0
 33
0.0
 14
325.0
 24
315.0
 34
0.0
 50
0.0
100
AcDbRotatedDimension
  0
DIMENSION
  5
24D
100
AcDbEntity
  8
dimensions
 62
256
370
-1
  6
ByLayer
100
AcDbDimension
 10
325.0
 20
319.0
 30
0.0
 11
343.5
 21
322.0
 31
0.0
 70
0
 71
5
 72
0
 41
1.0
 42
0.0
  1

  3
Standard
100
AcDbAlignedDimension
 13
362.0
 23
350.0
 33
0.0
 14
325.0
 24
319.0
 34
0.0
 50
0.0
100
AcDbRotatedDimension
  0
DIMENSION
  5
24E
100
AcDbEntity
  8
dimensions
 62
256
370
-1
  6
ByLayer
100
AcDbDimension
 10
325.0
 20
326.0
 30
0.0
 11
362.0
 21
329.0
 31
0.0
 70
0
 71
5
 72
0
 41
1.0
 42
0.0
  1

  3
Standard
100
AcDbAlignedDimension
 13
399.0
 23
341.0
 33
0.0
 14
325.0
 24
326.0
 34
0.0
 50
0.0
100
AcDbRotatedDimension
  0
DIMENSION
  5
24F
100
AcDbEntity
  8
dimensions
 62
256
370
-1
  6
ByLayer
100
AcDbDimension
 10
325.0
 20
323.0
 30
0.0
 11
331.5
 21
326.0
 31
0.0
 70
0
 71
5
 72
0
 41
1.0
 42
0.0
  1

  3
Standard
100
AcDbAlignedDimension
 13
338.0
 23
350.0
 33
0.0
 14
325.0
 24
323.0
 34
0.0
 50
0.0
100
AcDbRotatedDimension
  0
LEADER
  5
250
  8
lighting_text
 62
256
370
-1
  6
ByLayer
100
AcDbEntity
100
AcDbLeader
  3
Standard
 71
1
 72
0
 73
3
 74
0
 75
0
 40
1.0
 41
10.0
 76
3
 10
339.5
 20
351.5
 10
375.0
 20
356.5
 10
375.0
 20
356.5
  0
LEADER
  5
251
  8
lighting_text
 62
256
370
-1
  6
ByLayer
100
AcDbEntity
100
AcDbLeader
  3
Standard
 71
1
 72
0
 73
3
 74
0
 75
0
 40
1.0
 41
10.0
 76
2
 10
363.5
 20
351.5
 10
376.0
 20
356.0
  0
LEADER
  5
252
  8
lighting_text
 62
256
370
-1
  6
ByLayer
100
AcDbEntity
100
AcDbLeader
  3
Standard
 71
1
 72
0
 73
3
 74
0
 75
0
 40
1.0
 41
10.0
 76
2
 10
385.5
 20
352.0
 10
384.0
 20
357.0
  0
LINE
  5
253
100
AcDbEntity
100
AcDbLine
  8
heating
 62
256
370
-1
  6
ByLayer
 10
312.0
 20
392.0
 30
0.0
 11
323.0
 21
392.0
 31
0.0
  0
LINE
  5
254
100
AcDbEntity
100
AcDbLine
  8
heating
 62
256
370
-1
  6
ByLayer
 10
312.0
 20
250.0
 30
0.0
 11
312.0
 21
392.0
 31
0.0
  0
LINE
  5
255
100
AcDbEntity
100
AcDbLine
  8
heating
 62
256
370
-1
  6
ByLayer
 10
323.0
 20
392.0
 30
0.0
 11
323.0
 21
250.0
 31
0.0
  0
LINE
  5
256
100
AcDbEntity
100
AcDbLine
  8
fixtures
 62
256
370
-1
  6
ByLayer
 10
326.0
 20
384.0
 30
0.0
 11
304.0
 21
384.0
 31
0.0
  0
LINE
  5
257
100
AcDbEntity
100
AcDbLine
  8
fixtures
 62
256
370
-1
  6
ByLayer
 10
304.0
 20
384.0
 30
0.0
 11
304.0
 21
418.0
 31
0.0
  0
LINE
  5
258
100
AcDbEntity
100
AcDbLine
  8
fixtures
 62
256
370
-1
  6
ByLayer
 10
304.0
 20
418.0
 30
0.0
 11
326.0
 21
418.0
 31
0.0
  0
LINE
  5
259
100
AcDbEntity
100
AcDbLine
  8
fixtures
 62
256
370
-1
  6
ByLayer
 10
326.0
 20
418.0
 30
0.0
 11
326.0
 21
384.0
 31
0.0
  0
ARC
  5
25A
100
AcDbEntity
  8
fixtures
 62
256
370
-1
  6
ByLayer
100
AcDbCircle
 10
310.0
 20
414.0
 30
0.0
 40
2.0
100
AcDbArc
 50
90.0
 51
180.0
  0
LINE
  5
25B
100
AcDbEntity
100
AcDbLine
  8
fixtures
 62
256
370
-1
  6
ByLayer
 10
322.0
 20
416.0
 30
0.0
 11
310.0
 21
416.0
 31
0.0
  0
ARC
  5
25C
100
AcDbEntity
  8
fixtures
 62
256
370
-1
  6
ByLayer
100
AcDbCircle
 10
322.0
 20
414.0
 30
0.0
 40
2.0
100
AcDbArc
 50
360.0
 51
90.0
  0
LINE
  5
25D
100
AcDbEntity
100
AcDbLine
  8
fixtures
 62
256
370
-1
  6
ByLayer
 10
324.0
 20
404.0
 30
0.0
 11
324.0
 21
414.0
 31
0.0
  0
ARC
  5
25E
100
AcDbEntity
  8
fixtures
 62
256
370
-1
  6
ByLayer
100
AcDbCircle
 10
322.0
 20
404.0
 30
0.0
 40
2.0
100
AcDbArc
 50
270.0
 51
360.0
  0
LINE
  5
25F
100
AcDbEntity
100
AcDbLine
  8
fixtures
 62
256
370
-1
  6
ByLayer
 10
310.0
 20
402.0
 30
0.0
 11
322.0
 21
402.0
 31
0.0
  0
LINE
  5
260
100
AcDbEntity
100
AcDbLine
  8
fixtures
 62
256
370
-1
  6
ByLayer
 10
308.0
 20
414.0
 30
0.0
 11
308.0
 21
404.0
 31
0.0
  0
ARC
  5
261
100
AcDbEntity
  8
fixtures
 62
256
370
-1
  6
ByLayer
100
AcDbCircle
 10
310.0
 20
404.0
 30
0.0
 40
2.0
100
AcDbArc
 50
180.0
 51
270.0
  0
ARC
  5
262
100
AcDbEntity
  8
fixtures
 62
256
370
-1
  6
ByLayer
100
AcDbCircle
 10
310.0
 20
398.0
 30
0.0
 40
2.0
100
AcDbArc
 50
90.0
 51
180.0
  0
LINE
  5
263
100
AcDbEntity
100
AcDbLine
  8
fixtures
 62
256
370
-1
  6
ByLayer
 10
310.0
 20
400.0
 30
0.0
 11
322.0
 21
400.0
 31
0.0
  0
ARC
  5
264
100
AcDbEntity
  8
fixtures
 62
256
370
-1
  6
ByLayer
100
AcDbCircle
 10
322.0
 20
398.0
 30
0.0
 40
2.0
100
AcDbArc
 50
360.0
 51
90.0
  0
LINE
  5
265
100
AcDbEntity
100
AcDbLine
  8
fixtures
 62
256
370
-1
  6
ByLayer
 10
324.0
 20
398.0
 30
0.0
 11
324.0
 21
388.0
 31
0.0
  0
ARC
  5
266
100
AcDbEntity
  8
fixtures
 62
256
370
-1
  6
ByLayer
100
AcDbCircle
 10
322.0
 20
388.0
 30
0.0
 40
2.0
100
AcDbArc
 50
270.0
 51
360.0
  0
LINE
  5
267
100
AcDbEntity
100
AcDbLine
  8
fixtures
 62
256
370
-1
  6
ByLayer
 10
322.0
 20
386.0
 30
0.0
 11
310.0
 21
386.0
 31
0.0
  0
LINE
  5
268
100
AcDbEntity
100
AcDbLine
  8
fixtures
 62
256
370
-1
  6
ByLayer
 10
308.0
 20
388.0
 30
0.0
 11
308.0
 21
398.0
 31
0.0
  0
ARC
  5
269
100
AcDbEntity
  8
fixtures
 62
256
370
-1
  6
ByLayer
100
AcDbCircle
 10
310.0
 20
388.0
 30
0.0
 40
2.0
100
AcDbArc
 50
180.0
 51
270.0
  0
CIRCLE
  5
26A
100
AcDbEntity
100
AcDbCircle
  8
fixtures
 62
256
370
-1
  6
ByLayer
 10
306.0
 20
401.0
 30
0.0
 40
1.0
  0
CIRCLE
  5
26B
100
AcDbEntity
100
AcDbCircle
  8
fixtures
 62
256
370
-1
  6
ByLayer
 10
306.0
 20
404.0
 30
0.0
 40
1.0
  0
CIRCLE
  5
26C
100
AcDbEntity
100
AcDbCircle
  8
fixtures
 62
256
370
-1
  6
ByLayer
 10
306.0
 20
398.0
 30
0.0
 40
1.0
  0
CIRCLE
  5
26D
100
AcDbEntity
100
AcDbCircle
  8
lighting
 62
256
370
-1
  6
ByLayer
 10
315.0
 20
401.0
 30
0.0
 40
3.0
  0
DIMENSION
  5
26E
100
AcDbEntity
  8
dimensions
 62
256
370
-1
  6
ByLayer
100
AcDbDimension
 10
333.0
 20
426.0
 30
0.0
 11
330.0
 21
433.0
 31
0.0
 70
0
 71
5
 72
1
 41
1.0
 42
0.0
  1

  3
Standard
100
AcDbAlignedDimension
 13
333.0
 23
440.0
 33
0.0
 14
333.0
 24
426.0
 34
0.0
 50
90.0
100
AcDbRotatedDimension
  0
CIRCLE
  5
26F
100
AcDbEntity
100
AcDbCircle
  8
lighting
 62
256
370
-1
  6
ByLayer
 10
336.0
 20
384.0
 30
0.0
 40
3.0
  0
CIRCLE
  5
270
100
AcDbEntity
100
AcDbCircle
  8
lighting
 62
256
370
-1
  6
ByLayer
 10
384.0
 20
384.0
 30
0.0
 40
3.0
  0
CIRCLE
  5
271
100
AcDbEntity
100
AcDbCircle
  8
lighting
 62
256
370
-1
  6
ByLayer
 10
372.0
 20
433.0
 30
0.0
 40
2.0
  0
CIRCLE
  5
272
100
AcDbEntity
100
AcDbCircle
  8
lighting
 62
256
370
-1
  6
ByLayer
 10
348.0
 20
433.0
 30
0.0
 40
2.0
  0
MTEXT
  5
273
100
AcDbEntity
100
AcDbMText
  8
lighting_text
 62
256
370
-1
  6
ByLayer
 10
342.0
 20
430.0
 30
0.0
 40
2.0
 41
100.0
 71
1
 72
2
  1
directional\~recessed\~halogen
  7
normallatin1
 50
0.0
 73
0
 44
1.0
  0
MTEXT
  5
274
100
AcDbEntity
100
AcDbMText
  8
lighting_text
 62
256
370
-1
  6
ByLayer
 10
367.0
 20
416.0
 30
0.0
 40
2.0
 41
100.0
 71
1
 72
2
  1
recessed\~lights\~6"
  7
normallatin1
 50
0.0
 73
0
 44
1.0
  0
LINE
  5
275
100
AcDbEntity
100
AcDbLine
  8
lighting
 62
256
370
-1
  6
ByLayer
 10
336.0
 20
388.0
 30
0.0
 11
336.0
 21
380.0
 31
0.0
  0
LINE
  5
276
100
AcDbEntity
100
AcDbLine
  8
lighting
 62
256
370
-1
  6
ByLayer
 10
332.0
 20
384.0
 30
0.0
 11
340.0
 21
384.0
 31
0.0
  0
LINE
  5
277
100
AcDbEntity
100
AcDbLine
  8
lighting
 62
256
370
-1
  6
ByLayer
 10
384.0
 20
388.0
 30
0.0
 11
384.0
 21
380.0
 31
0.0
  0
LINE
  5
278
100
AcDbEntity
100
AcDbLine
  8
lighting
 62
256
370
-1
  6
ByLayer
 10
380.0
 20
384.0
 30
0.0
 11
388.0
 21
384.0
 31
0.0
  0
LINE
  5
279
100
AcDbEntity
100
AcDbLine
  8
lighting
 62
256
370
-1
  6
ByLayer
 10
315.0
 20
405.0
 30
0.0
 11
315.0
 21
397.0
 31
0.0
  0
LINE
  5
27A
100
AcDbEntity
100
AcDbLine
  8
lighting
 62
256
370
-1
  6
ByLayer
 10
311.0
 20
401.0
 30
0.0
 11
319.0
 21
401.0
 31
0.0
  0
CIRCLE
  5
27B
100
AcDbEntity
100
AcDbCircle
  8
lighting
 62
256
370
-1
  6
ByLayer
 10
420.0
 20
360.0
 30
0.0
 40
3.0
  0
CIRCLE
  5
27C
100
AcDbEntity
100
AcDbCircle
  8
lighting
 62
256
370
-1
  6
ByLayer
 10
420.0
 20
300.0
 30
0.0
 40
3.0
  0
CIRCLE
  5
27D
100
AcDbEntity
100
AcDbCircle
  8
lighting
 62
256
370
-1
  6
ByLayer
 10
360.0
 20
300.0
 30
0.0
 40
3.0
  0
CIRCLE
  5
27E
100
AcDbEntity
100
AcDbCircle
  8
lighting
 62
256
370
-1
  6
ByLayer
 10
420.0
 20
228.0
 30
0.0
 40
3.0
  0
CIRCLE
  5
27F
100
AcDbEntity
100
AcDbCircle
  8
lighting
 62
256
370
-1
  6
ByLayer
 10
360.0
 20
228.0
 30
0.0
 40
3.0
  0
MTEXT
  5
280
100
AcDbEntity
100
AcDbMText
  8
text
 62
256
370
-1
  6
ByLayer
 10
347.0740742794557718
 20
215.5740741717799267
 30
0.0
 40
3.0
 41
100.0
 71
1
 72
2
  1
pool\~table\P"oversized\~8"\P46"x92"
  7
normallatin1
 50
0.0
 73
1
 44
1.0
  0
LINE
  5
281
100
AcDbEntity
100
AcDbLine
  8
lighting
 62
256
370
-1
  6
ByLayer
 10
420.0
 20
364.0
 30
0.0
 11
420.0
 21
356.0
 31
0.0
  0
LINE
  5
282
100
AcDbEntity
100
AcDbLine
  8
lighting
 62
256
370
-1
  6
ByLayer
 10
416.0
 20
360.0
 30
0.0
 11
424.0
 21
360.0
 31
0.0
  0
LINE
  5
283
100
AcDbEntity
100
AcDbLine
  8
lighting
 62
256
370
-1
  6
ByLayer
 10
420.0
 20
304.0
 30
0.0
 11
420.0
 21
296.0
 31
0.0
  0
LINE
  5
284
100
AcDbEntity
100
AcDbLine
  8
lighting
 62
256
370
-1
  6
ByLayer
 10
416.0
 20
300.0
 30
0.0
 11
424.0
 21
300.0
 31
0.0
  0
LINE
  5
285
100
AcDbEntity
100
AcDbLine
  8
lighting
 62
256
370
-1
  6
ByLayer
 10
360.0
 20
304.0
 30
0.0
 11
360.0
 21
296.0
 31
0.0
  0
LINE
  5
286
100
AcDbEntity
100
AcDbLine
  8
lighting
 62
256
370
-1
  6
ByLayer
 10
356.0
 20
300.0
 30
0.0
 11
364.0
 21
300.0
 31
0.0
  0
ARC
  5
287
100
AcDbEntity
  8
heating
 62
256
370
-1
  6
ByLayer
100
AcDbCircle
 10
300.0
 20
198.0
 30
0.0
 40
4.0
100
AcDbArc
 50
180.0
 51
270.0
  0
LINE
  5
288
100
AcDbEntity
100
AcDbLine
  8
heating
 62
256
370
-1
  6
ByLayer
 10
296.0
 20
198.0
 30
0.0
 11
296.0
 21
282.0
 31
0.0
  0
ARC
  5
289
100
AcDbEntity
  8
heating
 62
256
370
-1
  6
ByLayer
100
AcDbCircle
 10
300.0
 20
282.0
 30
0.0
 40
4.0
100
AcDbArc
 50
90.0
 51
180.0
  0
ARC
  5
28A
100
AcDbEntity
  8
heating
 62
256
370
-1
  6
ByLayer
100
AcDbCircle
 10
291.0
 20
212.0
 30
0.0
 40
4.0
100
AcDbArc
 50
270.0
 51
0.0
  0
LINE
  5
28B
100
AcDbEntity
100
AcDbLine
  8
heating
 62
256
370
-1
  6
ByLayer
 10
295.0
 20
248.0
 30
0.0
 11
295.0
 21
212.0
 31
0.0
  0
ARC
  5
28C
100
AcDbEntity
  8
heating
 62
256
370
-1
  6
ByLayer
100
AcDbCircle
 10
291.0
 20
248.0
 30
0.0
 40
4.0
100
AcDbArc
 50
0.0
 51
90.0
  0
ARC
  5
28D
100
AcDbEntity
  8
heating
 62
256
370
-1
  6
ByLayer
100
AcDbCircle
 10
291.0
 20
212.0
 30
0.0
 40
4.0
100
AcDbArc
 50
180.0
 51
270.0
  0
LINE
  5
28E
100
AcDbEntity
100
AcDbLine
  8
heating
 62
256
370
-1
  6
ByLayer
 10
287.0
 20
212.0
 30
0.0
 11
287.0
 21
248.0
 31
0.0
  0
ARC
  5
28F
100
AcDbEntity
  8
heating
 62
256
370
-1
  6
ByLayer
100
AcDbCircle
 10
291.0
 20
248.0
 30
0.0
 40
4.0
100
AcDbArc
 50
90.0
 51
180.0
  0
CIRCLE
  5
290
100
AcDbEntity
100
AcDbCircle
  8
lighting
 62
256
370
-1
  6
ByLayer
 10
283.0
 20
228.0
 30
0.0
 40
3.0
  0
CIRCLE
  5
291
100
AcDbEntity
100
AcDbCircle
  8
lighting
 62
256
370
-1
  6
ByLayer
 10
283.0
 20
300.0
 30
0.0
 40
3.0
  0
LINE
  5
292
100
AcDbEntity
100
AcDbLine
  8
lighting
 62
256
370
-1
  6
ByLayer
 10
283.0
 20
304.0
 30
0.0
 11
283.0
 21
296.0
 31
0.0
  0
LINE
  5
293
100
AcDbEntity
100
AcDbLine
  8
lighting
 62
256
370
-1
  6
ByLayer
 10
279.0
 20
300.0
 30
0.0
 11
287.0
 21
300.0
 31
0.0
  0
LINE
  5
294
100
AcDbEntity
100
AcDbLine
  8
lighting
 62
256
370
-1
  6
ByLayer
 10
279.0
 20
228.0
 30
0.0
 11
287.0
 21
228.0
 31
0.0
  0
LINE
  5
295
100
AcDbEntity
100
AcDbLine
  8
lighting
 62
256
370
-1
  6
ByLayer
 10
283.0
 20
232.0
 30
0.0
 11
283.0
 21
224.0
 31
0.0
  0
LINE
  5
296
100
AcDbEntity
100
AcDbLine
  8
lighting
 62
256
370
-1
  6
ByLayer
 10
360.0
 20
232.0
 30
0.0
 11
360.0
 21
224.0
 31
0.0
  0
LINE
  5
297
100
AcDbEntity
100
AcDbLine
  8
lighting
 62
256
370
-1
  6
ByLayer
 10
356.0
 20
228.0
 30
0.0
 11
364.0
 21
228.0
 31
0.0
  0
LINE
  5
298
100
AcDbEntity
100
AcDbLine
  8
lighting
 62
256
370
-1
  6
ByLayer
 10
420.0
 20
232.0
 30
0.0
 11
420.0
 21
224.0
 31
0.0
  0
LINE
  5
299
100
AcDbEntity
100
AcDbLine
  8
lighting
 62
256
370
-1
  6
ByLayer
 10
416.0
 20
228.0
 30
0.0
 11
424.0
 21
228.0
 31
0.0
  0
CIRCLE
  5
29A
100
AcDbEntity
100
AcDbCircle
  8
lighting
 62
256
370
-1
  6
ByLayer
 10
360.0
 20
156.0
 30
0.0
 40
3.0
  0
CIRCLE
  5
29B
100
AcDbEntity
100
AcDbCircle
  8
lighting
 62
256
370
-1
  6
ByLayer
 10
420.0
 20
156.0
 30
0.0
 40
3.0
  0
LINE
  5
29C
100
AcDbEntity
100
AcDbLine
  8
lighting
 62
256
370
-1
  6
ByLayer
 10
420.0
 20
160.0
 30
0.0
 11
420.0
 21
152.0
 31
0.0
  0
LINE
  5
29D
100
AcDbEntity
100
AcDbLine
  8
lighting
 62
256
370
-1
  6
ByLayer
 10
416.0
 20
156.0
 30
0.0
 11
424.0
 21
156.0
 31
0.0
  0
LINE
  5
29E
100
AcDbEntity
100
AcDbLine
  8
lighting
 62
256
370
-1
  6
ByLayer
 10
360.0
 20
160.0
 30
0.0
 11
360.0
 21
152.0
 31
0.0
  0
LINE
  5
29F
100
AcDbEntity
100
AcDbLine
  8
lighting
 62
256
370
-1
  6
ByLayer
 10
356.0
 20
156.0
 30
0.0
 11
364.0
 21
156.0
 31
0.0
  0
CIRCLE
  5
2A0
100
AcDbEntity
100
AcDbCircle
  8
lighting
 62
256
370
-1
  6
ByLayer
 10
234.0
 20
174.0
 30
0.0
 40
3.0
  0
LINE
  5
2A1
100
AcDbEntity
100
AcDbLine
  8
lighting
 62
256
370
-1
  6
ByLayer
 10
234.0
 20
178.0
 30
0.0
 11
234.0
 21
170.0
 31
0.0
  0
LINE
  5
2A2
100
AcDbEntity
100
AcDbLine
  8
lighting
 62
256
370
-1
  6
ByLayer
 10
230.0
 20
174.0
 30
0.0
 11
238.0
 21
174.0
 31
0.0
  0
CIRCLE
  5
2A3
100
AcDbEntity
100
AcDbCircle
  8
lighting
 62
256
370
-1
  6
ByLayer
 10
420.0
 20
84.0
 30
0.0
 40
3.0
  0
CIRCLE
  5
2A4
100
AcDbEntity
100
AcDbCircle
  8
lighting
 62
256
370
-1
  6
ByLayer
 10
360.0
 20
84.0
 30
0.0
 40
3.0
  0
CIRCLE
  5
2A5
100
AcDbEntity
100
AcDbCircle
  8
lighting
 62
256
370
-1
  6
ByLayer
 10
360.0
 20
12.0
 30
0.0
 40
3.0
  0
CIRCLE
  5
2A6
100
AcDbEntity
100
AcDbCircle
  8
lighting
 62
256
370
-1
  6
ByLayer
 10
420.0
 20
12.0
 30
0.0
 40
3.0
  0
LINE
  5
2A7
100
AcDbEntity
100
AcDbLine
  8
lighting
 62
256
370
-1
  6
ByLayer
 10
360.0
 20
88.0
 30
0.0
 11
360.0
 21
80.0
 31
0.0
  0
LINE
  5
2A8
100
AcDbEntity
100
AcDbLine
  8
lighting
 62
256
370
-1
  6
ByLayer
 10
356.0
 20
84.0
 30
0.0
 11
364.0
 21
84.0
 31
0.0
  0
LINE
  5
2A9
100
AcDbEntity
100
AcDbLine
  8
lighting
 62
256
370
-1
  6
ByLayer
 10
416.0
 20
84.0
 30
0.0
 11
424.0
 21
84.0
 31
0.0
  0
LINE
  5
2AA
100
AcDbEntity
100
AcDbLine
  8
lighting
 62
256
370
-1
  6
ByLayer
 10
420.0
 20
88.0
 30
0.0
 11
420.0
 21
80.0
 31
0.0
  0
LINE
  5
2AB
100
AcDbEntity
100
AcDbLine
  8
lighting
 62
256
370
-1
  6
ByLayer
 10
360.0
 20
16.0
 30
0.0
 11
360.0
 21
8.0
 31
0.0
  0
LINE
  5
2AC
100
AcDbEntity
100
AcDbLine
  8
lighting
 62
256
370
-1
  6
ByLayer
 10
356.0
 20
12.0
 30
0.0
 11
364.0
 21
12.0
 31
0.0
  0
LINE
  5
2AD
100
AcDbEntity
100
AcDbLine
  8
lighting
 62
256
370
-1
  6
ByLayer
 10
420.0
 20
16.0
 30
0.0
 11
420.0
 21
8.0
 31
0.0
  0
LINE
  5
2AE
100
AcDbEntity
100
AcDbLine
  8
lighting
 62
256
370
-1
  6
ByLayer
 10
416.0
 20
12.0
 30
0.0
 11
424.0
 21
12.0
 31
0.0
  0
LINE
  5
2AF
100
AcDbEntity
100
AcDbLine
  8
lighting
 62
256
370
-1
  6
ByLayer
 10
372.0
 20
436.0
 30
0.0
 11
372.0
 21
430.0
 31
0.0
  0
LINE
  5
2B0
100
AcDbEntity
100
AcDbLine
  8
lighting
 62
256
370
-1
  6
ByLayer
 10
375.0
 20
433.0
 30
0.0
 11
369.0
 21
433.0
 31
0.0
  0
LINE
  5
2B1
100
AcDbEntity
100
AcDbLine
  8
lighting
 62
256
370
-1
  6
ByLayer
 10
348.0
 20
436.0
 30
0.0
 11
348.0
 21
430.0
 31
0.0
  0
LINE
  5
2B2
100
AcDbEntity
100
AcDbLine
  8
lighting
 62
256
370
-1
  6
ByLayer
 10
345.0
 20
433.0
 30
0.0
 11
351.0
 21
433.0
 31
0.0
  0
CIRCLE
  5
2B3
100
AcDbEntity
100
AcDbCircle
  8
lighting
 62
256
370
-1
  6
ByLayer
 10
200.0
 20
52.0
 30
0.0
 40
3.0
  0
LINE
  5
2B4
100
AcDbEntity
100
AcDbLine
  8
lighting
 62
256
370
-1
  6
ByLayer
 10
200.0
 20
56.0
 30
0.0
 11
200.0
 21
48.0
 31
0.0
  0
LINE
  5
2B5
100
AcDbEntity
100
AcDbLine
  8
lighting
 62
256
370
-1
  6
ByLayer
 10
196.0
 20
52.0
 30
0.0
 11
204.0
 21
52.0
 31
0.0
  0
CIRCLE
  5
2B6
100
AcDbEntity
100
AcDbCircle
  8
lighting
 62
256
370
-1
  6
ByLayer
 10
283.0
 20
123.0
 30
0.0
 40
3.0
  0
LINE
  5
2B7
100
AcDbEntity
100
AcDbLine
  8
lighting
 62
256
370
-1
  6
ByLayer
 10
283.0
 20
127.0
 30
0.0
 11
283.0
 21
119.0
 31
0.0
  0
LINE
  5
2B8
100
AcDbEntity
100
AcDbLine
  8
lighting
 62
256
370
-1
  6
ByLayer
 10
279.0
 20
123.0
 30
0.0
 11
287.0
 21
123.0
 31
0.0
  0
ARC
  5
2B9
100
AcDbEntity
  8
heating
 62
256
370
-1
  6
ByLayer
100
AcDbCircle
 10
267.998538901394852
 20
-28.6583153480975739
 30
0.0
 40
4.0
100
AcDbArc
 50
135.0000000000001137
 51
224.9704099978460761
  0
LINE
  5
2BA
100
AcDbEntity
100
AcDbLine
  8
heating
 62
256
370
-1
  6
ByLayer
 10
288.0000000001947456
 20
-54.3402243078713667
 30
0.0
 11
265.168651432617537
 21
-31.485281374433427
 31
0.0
  0
ARC
  5
2BB
100
AcDbEntity
  8
heating
 62
256
370
-1
  6
ByLayer
100
AcDbCircle
 10
290.8298874689720606
 20
-51.5132582815355278
 30
0.0
 40
4.0
100
AcDbArc
 50
224.970409997845934
 51
314.9999999999999432
  0
CIRCLE
  5
2BC
100
AcDbEntity
100
AcDbCircle
  8
lighting
 62
256
370
-1
  6
ByLayer
 10
168.0
 20
-30.0
 30
0.0
 40
2.0
  0
CIRCLE
  5
2BD
100
AcDbEntity
100
AcDbCircle
  8
lighting
 62
256
370
-1
  6
ByLayer
 10
168.0
 20
-30.0
 30
0.0
 40
1.0
  0
CIRCLE
  5
2BE
100
AcDbEntity
100
AcDbCircle
  8
lighting
 62
256
370
-1
  6
ByLayer
 10
216.0
 20
-30.0
 30
0.0
 40
2.0
  0
CIRCLE
  5
2BF
100
AcDbEntity
100
AcDbCircle
  8
lighting
 62
256
370
-1
  6
ByLayer
 10
216.0
 20
-30.0
 30
0.0
 40
1.0
  0
MTEXT
  5
2C0
100
AcDbEntity
100
AcDbMText
  8
text
 62
256
370
-1
  6
ByLayer
 10
166.8433421960993428
 20
-7.6475196047364697
 30
0.0
 40
6.0
 41
100.0
 71
1
 72
2
  1
computer\~server\Pdata\~center
  7
normallatin1
 50
0.0
 73
1
 44
1.0
  0
MTEXT
  5
2C1
100
AcDbEntity
100
AcDbMText
  8
lighting_text
 62
256
370
-1
  6
ByLayer
 10
210.0
 20
-34.0
 30
0.0
 40
2.0
 41
100.0
 71
1
 72
2
  1
utility\~light
  7
normallatin1
 50
0.0
 73
0
 44
1.0
  0
MTEXT
  5
2C2
100
AcDbEntity
100
AcDbMText
  8
lighting_text
 62
256
370
-1
  6
ByLayer
 10
162.0
 20
-34.0
 30
0.0
 40
2.0
 41
100.0
 71
1
 72
2
  1
utility\~light
  7
normallatin1
 50
0.0
 73
0
 44
1.0
  0
CIRCLE
  5
2C3
100
AcDbEntity
100
AcDbCircle
  8
lighting
 62
256
370
-1
  6
ByLayer
 10
336.0
 20
417.0
 30
0.0
 40
3.0
  0
LINE
  5
2C4
100
AcDbEntity
100
AcDbLine
  8
lighting
 62
256
370
-1
  6
ByLayer
 10
336.0
 20
421.0
 30
0.0
 11
336.0
 21
413.0
 31
0.0
  0
LINE
  5
2C5
100
AcDbEntity
100
AcDbLine
  8
lighting
 62
256
370
-1
  6
ByLayer
 10
340.0
 20
417.0
 30
0.0
 11
332.0
 21
417.0
 31
0.0
  0
CIRCLE
  5
2C6
100
AcDbEntity
100
AcDbCircle
  8
lighting
 62
256
370
-1
  6
ByLayer
 10
384.0
 20
417.0
 30
0.0
 40
3.0
  0
LINE
  5
2C7
100
AcDbEntity
100
AcDbLine
  8
lighting
 62
256
370
-1
  6
ByLayer
 10
384.0
 20
421.0
 30
0.0
 11
384.0
 21
413.0
 31
0.0
  0
LINE
  5
2C8
100
AcDbEntity
100
AcDbLine
  8
lighting
 62
256
370
-1
  6
ByLayer
 10
380.0
 20
417.0
 30
0.0
 11
388.0
 21
417.0
 31
0.0
  0
CIRCLE
  5
2C9
100
AcDbEntity
100
AcDbCircle
  8
lighting
 62
256
370
-1
  6
ByLayer
 10
200.0
 20
100.0
 30
0.0
 40
3.0
  0
LINE
  5
2CA
100
AcDbEntity
100
AcDbLine
  8
lighting
 62
256
370
-1
  6
ByLayer
 10
200.0
 20
104.0
 30
0.0
 11
200.0
 21
96.0
 31
0.0
  0
LINE
  5
2CB
100
AcDbEntity
100
AcDbLine
  8
lighting
 62
256
370
-1
  6
ByLayer
 10
196.0
 20
100.0
 30
0.0
 11
204.0
 21
100.0
 31
0.0
  0
DIMENSION
  5
2CC
100
AcDbEntity
  8
dimensions
 62
256
370
-1
  6
ByLayer
100
AcDbDimension
 10
298.0
 20
457.1014268056746914
 30
0.0
 11
248.75
 21
460.1014268056746914
 31
0.0
 70
0
 71
5
 72
1
 41
1.0
 42
0.0
  1

  3
Standard
100
AcDbAlignedDimension
 13
199.5
 23
457.1014268056746914
 33
0.0
 14
298.0
 24
457.1014268056746914
 34
0.0
 50
0.0
100
AcDbRotatedDimension
  0
LINE
  5
2CD
100
AcDbEntity
100
AcDbLine
  8
fixtures
 62
256
370
-1
  6
ByLayer
 10
240.0
 20
0.5
 30
0.0
 11
240.0
 21
-63.0
 31
0.0
  0
LINE
  5
2CE
100
AcDbEntity
100
AcDbLine
  8
fixtures
 62
256
370
-1
  6
ByLayer
 10
240.0
 20
-63.0
 30
0.0
 11
295.5
 21
-63.0
 31
0.0
  0
LINE
  5
2CF
100
AcDbEntity
100
AcDbLine
  8
fixtures
 62
256
370
-1
  6
ByLayer
 10
295.5
 20
-63.0
 30
0.0
 11
295.5
 21
-59.0
 31
0.0
  0
LINE
  5
2D0
100
AcDbEntity
100
AcDbLine
  8
fixtures
 62
256
370
-1
  6
ByLayer
 10
295.5
 20
-59.0
 30
0.0
 11
309.5
 21
-59.0
 31
0.0
  0
LINE
  5
2D1
100
AcDbEntity
100
AcDbLine
  8
fixtures
 62
256
370
-1
  6
ByLayer
 10
309.5
 20
-59.0
 30
0.0
 11
309.5
 21
-57.0
 31
0.0
  0
LINE
  5
2D2
100
AcDbEntity
100
AcDbLine
  8
fixtures
 62
256
370
-1
  6
ByLayer
 10
309.5
 20
-57.0
 30
0.0
 11
252.25
 21
0.25
 31
0.0
  0
LINE
  5
2D3
100
AcDbEntity
100
AcDbLine
  8
fixtures
 62
256
370
-1
  6
ByLayer
 10
252.25
 20
0.25
 30
0.0
 11
240.0
 21
0.25
 31
0.0
  0
MTEXT
  5
2D4
100
AcDbEntity
100
AcDbMText
  8
text
 62
256
370
-1
  6
ByLayer
 10
184.5
 20
-42.5
 30
0.0
 40
4.0
 41
100.0
 71
1
 72
2
  1
overhead\Pductwork
  7
normallatin1
 50
0.0
 73
1
 44
1.0
  0
MTEXT
  5
2D5
100
AcDbEntity
100
AcDbMText
  8
text
 62
256
370
-1
  6
ByLayer
 10
244.0
 20
-24.0
 30
0.0
 40
5.0
 41
100.0
 71
1
 72
2
  1
storage\Pshelves\P(x2)
  7
normallatin1
 50
0.0
 73
1
 44
1.0
  0
CIRCLE
  5
2D6
100
AcDbEntity
100
AcDbCircle
  8
partition_wall
 62
256
370
-1
  6
ByLayer
 10
159.0
 20
269.0
 30
0.0
 40
1.0
  0
LINE
  5
2D7
100
AcDbEntity
100
AcDbLine
  8
heating
 62
256
370
-1
  6
ByLayer
 10
159.0
 20
269.0
 30
0.0
 11
159.0
 21
301.0
 31
0.0
  0
LINE
  5
2D8
100
AcDbEntity
100
AcDbLine
  8
heating
 62
256
370
-1
  6
ByLayer
 10
159.0
 20
301.0
 30
0.0
 11
203.75
 21
301.0
 31
0.0
  0
LINE
  5
2D9
100
AcDbEntity
100
AcDbLine
  8
heating
 62
256
370
-1
  6
ByLayer
 10
203.75
 20
301.0
 30
0.0
 11
203.75
 21
269.0
 31
0.0
  0
LINE
  5
2DA
100
AcDbEntity
100
AcDbLine
  8
heating
 62
256
370
-1
  6
ByLayer
 10
203.75
 20
269.0
 30
0.0
 11
159.0
 21
269.0
 31
0.0
  0
CIRCLE
  5
2DB
100
AcDbEntity
100
AcDbCircle
  8
heating
 62
256
370
-1
  6
ByLayer
 10
208.0
 20
276.5
 30
0.0
 40
2.8284271247461903
  0
MTEXT
  5
2DC
100
AcDbEntity
100
AcDbMText
  8
text
 62
256
370
-1
  6
ByLayer
 10
169.0
 20
291.5
 30
0.0
 40
6.0
 41
100.0
 71
1
 72
2
  1
furnace
  7
normallatin1
 50
0.0
 73
1
 44
1.0
  0
LINE
  5
2DD
100
AcDbEntity
100
AcDbLine
  8
heating
 62
256
370
-1
  6
ByLayer
 10
159.0
 20
292.5
 30
0.0
 11
151.0
 21
292.5
 31
0.0
  0
LINE
  5
2DE
100
AcDbEntity
100
AcDbLine
  8
heating
 62
256
370
-1
  6
ByLayer
 10
151.0
 20
292.5
 30
0.0
 11
151.0
 21
278.5
 31
0.0
  0
LINE
  5
2DF
100
AcDbEntity
100
AcDbLine
  8
heating
 62
256
370
-1
  6
ByLayer
 10
151.0
 20
278.5
 30
0.0
 11
159.0
 21
278.5
 31
0.0
  0
LINE
  5
2E0
100
AcDbEntity
100
AcDbLine
  8
heating
 62
256
370
-1
  6
ByLayer
 10
176.4375085529840419
 20
269.0
 30
0.0
 11
176.4378953279255597
 21
0.5
 31
0.0
  0
LINE
  5
2E1
100
AcDbEntity
100
AcDbLine
  8
heating
 62
256
370
-1
  6
ByLayer
 10
180.0
 20
-55.1512782202291589
 30
0.0
 11
180.0
 21
269.0
 31
0.0
  0
LINE
  5
2E2
100
AcDbEntity
100
AcDbLine
  8
heating
 62
256
370
-1
  6
ByLayer
 10
159.0
 20
2.5
 30
0.0
 11
158.9996161060636268
 21
269.0
 31
0.0
  0
LINE
  5
2E3
100
AcDbEntity
100
AcDbLine
  8
heating
 62
256
370
-1
  6
ByLayer
 10
194.1028062671347527
 20
269.0
 30
0.0
 11
194.1028062671347527
 21
-55.1512782202291589
 31
0.0
  0
LINE
  5
2E4
100
AcDbEntity
100
AcDbLine
  8
heating
 62
256
370
-1
  6
ByLayer
 10
204.0
 20
273.5
 30
0.0
 11
210.0
 21
273.5
 31
0.0
  0
LINE
  5
2E5
100
AcDbEntity
100
AcDbLine
  8
heating
 62
256
370
-1
  6
ByLayer
 10
204.0
 20
-8.0
 30
0.0
 11
204.0
 21
273.5
 31
0.0
  0
LINE
  5
2E6
100
AcDbEntity
100
AcDbLine
  8
heating
 62
256
370
-1
  6
ByLayer
 10
210.0
 20
273.5
 30
0.0
 11
210.0
 21
-2.0
 31
0.0
  0
LINE
  5
2E7
100
AcDbEntity
100
AcDbLine
  8
partition_wall
 62
256
370
-1
  6
ByLayer
 10
147.0000000000000284
 20
233.0
 30
0.0
 11
147.0
 21
258.843145750507631
 31
0.0
  0
LINE
  5
2E8
100
AcDbEntity
100
AcDbLine
  8
partition_wall
 62
256
370
-1
  6
ByLayer
 10
173.0
 20
350.0
 30
0.0
 11
131.0
 21
350.0
 31
0.0
  0
LINE
  5
2E9
100
AcDbEntity
100
AcDbLine
  8
partition_wall
 62
256
370
-1
  6
ByLayer
 10
127.0
 20
347.0
 30
0.0
 11
131.0
 21
347.0
 31
0.0
  0
LINE
  5
2EA
100
AcDbEntity
100
AcDbLine
  8
partition_wall
 62
256
370
-1
  6
ByLayer
 10
127.0
 20
317.0
 30
0.0
 11
131.0
 21
317.0
 31
0.0
  0
LINE
  5
2EB
100
AcDbEntity
100
AcDbLine
  8
partition_wall
 62
256
370
-1
  6
ByLayer
 10
127.0
 20
347.0
 30
0.0
 11
127.0
 21
354.0
 31
0.0
  0
LINE
  5
2EC
100
AcDbEntity
100
AcDbLine
  8
partition_wall
 62
256
370
-1
  6
ByLayer
 10
131.0
 20
350.0
 30
0.0
 11
131.0
 21
347.0
 31
0.0
  0
LINE
  5
2ED
100
AcDbEntity
100
AcDbLine
  8
partition_wall
 62
256
370
-1
  6
ByLayer
 10
177.0
 20
354.0
 30
0.0
 11
219.5
 21
354.0
 31
0.0
  0
LINE
  5
2EE
100
AcDbEntity
100
AcDbLine
  8
partition_wall
 62
256
370
-1
  6
ByLayer
 10
127.0
 20
347.0
 30
0.0
 11
127.0
 21
317.0
 31
0.0
  0
LINE
  5
2EF
100
AcDbEntity
100
AcDbLine
  8
partition_wall
 62
256
370
-1
  6
ByLayer
 10
131.0
 20
347.0
 30
0.0
 11
131.0
 21
317.0
 31
0.0
  0
DIMENSION
  5
2F0
100
AcDbEntity
  8
dimensions
 62
256
370
-1
  6
ByLayer
100
AcDbDimension
 10
116.0
 20
317.0
 30
0.0
 11
113.0
 21
332.0
 31
0.0
 70
0
 71
5
 72
1
 41
1.0
 42
0.0
  1

  3
Standard
100
AcDbAlignedDimension
 13
127.0
 23
347.0
 33
0.0
 14
127.0
 24
317.0
 34
0.0
 50
90.0
100
AcDbRotatedDimension
  0
LINE
  5
2F1
100
AcDbEntity
100
AcDbLine
  8
partition_wall
 62
256
370
-1
  6
ByLayer
 10
147.0000000000000284
 20
181.0
 30
0.0
 11
147.0
 21
147.0
 31
0.0
  0
LINE
  5
2F2
100
AcDbEntity
100
AcDbLine
  8
partition_wall
 62
256
370
-1
  6
ByLayer
 10
129.4844555433772371
 20
345.125
 30
0.0
 11
143.4844555433772086
 21
320.8762886940357362
 31
0.0
  0
LINE
  5
2F3
100
AcDbEntity
100
AcDbLine
  8
partition_wall
 62
256
370
-1
  6
ByLayer
 10
143.4844555433772086
 20
320.8762886940357362
 30
0.0
 11
144.9999999999999432
 21
321.7512886940356793
 31
0.0
  0
LINE
  5
2F4
100
AcDbEntity
100
AcDbLine
  8
partition_wall
 62
256
370
-1
  6
ByLayer
 10
144.9999999999999432
 20
321.7512886940356793
 30
0.0
 11
131.0
 21
346.0
 31
0.0
  0
LINE
  5
2F5
100
AcDbEntity
100
AcDbLine
  8
partition_wall
 62
256
370
-1
  6
ByLayer
 10
131.0
 20
346.0
 30
0.0
 11
129.4844555433772371
 21
345.125
 31
0.0
  0
MTEXT
  5
2F6
100
AcDbEntity
100
AcDbMText
  8
text
 62
256
370
-1
  6
ByLayer
 10
122.0
 20
332.0
 30
0.0
 40
2.0
 41
100.0
 71
1
 72
2
  1
2'\~4"\~door
  7
normallatin1
 50
0.0
 73
0
 44
1.0
  0
LINE
  5
2F7
100
AcDbEntity
100
AcDbLine
  8
partition_wall
 62
256
370
-1
  6
ByLayer
 10
235.875
 20
393.3594555433772371
 30
0.0
 11
260.1237113059642638
 21
407.3594555433771802
 31
0.0
  0
LINE
  5
2F8
100
AcDbEntity
100
AcDbLine
  8
partition_wall
 62
256
370
-1
  6
ByLayer
 10
260.1237113059642638
 20
407.3594555433771802
 30
0.0
 11
259.2487113059643207
 21
408.8749999999999432
 31
0.0
  0
LINE
  5
2F9
100
AcDbEntity
100
AcDbLine
  8
partition_wall
 62
256
370
-1
  6
ByLayer
 10
259.2487113059643207
 20
408.8749999999999432
 30
0.0
 11
235.0
 21
394.875
 31
0.0
  0
LINE
  5
2FA
100
AcDbEntity
100
AcDbLine
  8
partition_wall
 62
256
370
-1
  6
ByLayer
 10
235.0
 20
394.875
 30
0.0
 11
235.875
 21
393.3594555433772371
 31
0.0
  0
LINE
  5
2FB
100
AcDbEntity
100
AcDbLine
  8
partition_wall
 62
256
370
-1
  6
ByLayer
 10
151.0000000000000284
 20
233.0
 30
0.0
 11
151.0
 21
260.5
 31
0.0
  0
LINE
  5
2FC
100
AcDbEntity
100
AcDbLine
  8
partition_wall
 62
256
370
-1
  6
ByLayer
 10
151.0000000000000284
 20
233.0
 30
0.0
 11
212.0
 21
233.0
 31
0.0
  0
LINE
  5
2FD
100
AcDbEntity
100
AcDbLine
  8
partition_wall
 62
256
370
-1
  6
ByLayer
 10
174.5155444566227345
 20
358.8749999999999432
 30
0.0
 11
160.5155444566227914
 21
383.1237113059642638
 31
0.0
  0
LINE
  5
2FE
100
AcDbEntity
100
AcDbLine
  8
partition_wall
 62
256
370
-1
  6
ByLayer
 10
160.5155444566227914
 20
383.1237113059642638
 30
0.0
 11
159.0000000000000284
 21
382.2487113059642638
 31
0.0
  0
LINE
  5
2FF
100
AcDbEntity
100
AcDbLine
  8
partition_wall
 62
256
370
-1
  6
ByLayer
 10
147.0
 20
258.843145750507631
 30
0.0
 11
127.0
 21
278.843145750507631
 31
0.0
  0
LINE
  5
300
100
AcDbEntity
100
AcDbLine
  8
partition_wall
 62
256
370
-1
  6
ByLayer
 10
127.0
 20
278.843145750507631
 30
0.0
 11
127.0
 21
317.0
 31
0.0
  0
LINE
  5
301
100
AcDbEntity
100
AcDbLine
  8
partition_wall
 62
256
370
-1
  6
ByLayer
 10
151.0
 20
260.5
 30
0.0
 11
131.0
 21
280.5
 31
0.0
  0
LINE
  5
302
100
AcDbEntity
100
AcDbLine
  8
partition_wall
 62
256
370
-1
  6
ByLayer
 10
131.0
 20
280.5
 30
0.0
 11
131.0
 21
317.0
 31
0.0
  0
LINE
  5
303
100
AcDbEntity
100
AcDbLine
  8
partition_wall
 62
256
370
-1
  6
ByLayer
 10
164.0
 20
0.5
 30
0.0
 11
194.0
 21
0.5
 31
0.0
  0
LINE
  5
304
100
AcDbEntity
100
AcDbLine
  8
partition_wall
 62
256
370
-1
  6
ByLayer
 10
302.0
 20
462.0
 30
0.0
 11
302.0
 21
442.0
 31
0.0
  0
ARC
  5
305
100
AcDbEntity
  8
heating
 62
256
370
-1
  6
ByLayer
100
AcDbCircle
 10
290.8284271247462129
 20
320.4852813742385251
 30
0.0
 40
4.0
100
AcDbArc
 50
225.0
 51
315.0
  0
LINE
  5
306
100
AcDbEntity
100
AcDbLine
  8
heating
 62
256
370
-1
  6
ByLayer
 10
288.0
 20
317.6568542494923122
 30
0.0
 11
256.887301627791885
 21
348.7695526217004272
 31
0.0
  0
ARC
  5
307
100
AcDbEntity
  8
heating
 62
256
370
-1
  6
ByLayer
100
AcDbCircle
 10
259.715728752538098
 20
351.5979797464466401
 30
0.0
 40
4.0
100
AcDbArc
 50
135.0
 51
225.0
  0
CIRCLE
  5
308
100
AcDbEntity
100
AcDbCircle
  8
lighting
 62
256
370
-1
  6
ByLayer
 10
265.0
 20
1.0
 30
0.0
 40
3.0
  0
LINE
  5
309
100
AcDbEntity
100
AcDbLine
  8
lighting
 62
256
370
-1
  6
ByLayer
 10
265.0
 20
1.0
 30
0.0
 11
262.9001600373007932
 21
-4.2433057878084099
 31
0.0
  0
LINE
  5
30A
100
AcDbEntity
100
AcDbLine
  8
lighting
 62
256
370
-1
  6
ByLayer
 10
265.0
 20
1.0
 30
0.0
 11
260.0379849017315337
 21
-1.3811306522391771
 31
0.0
  0
MTEXT
  5
30B
100
AcDbEntity
100
AcDbMText
  8
lighting_text
 62
256
370
-1
  6
ByLayer
 10
268.0
 20
8.0
 30
0.0
 40
1.0
 41
100.0
 71
1
 72
2
  1
6"\~wall-mount\~indirect\Pceiling\~light
  7
normallatin1
 50
0.0
 73
1
 44
1.0
  0
CIRCLE
  5
30C
100
AcDbEntity
100
AcDbCircle
  8
plumbing
 62
256
370
-1
  6
ByLayer
 10
165.0
 20
335.0
 30
0.0
 40
1.5
  0
MTEXT
  5
30D
100
AcDbEntity
100
AcDbMText
  8
text
 62
256
370
-1
  6
ByLayer
 10
157.0
 20
333.5
 30
0.0
 40
1.0
 41
100.0
 71
1
 72
2
  1
3"\~floor\~drain
  7
normallatin1
 50
0.0
 73
1
 44
1.0
  0
MTEXT
  5
30E
100
AcDbEntity
100
AcDbMText
  8
text
 62
256
370
-1
  6
ByLayer
 10
226.0
 20
328.0
 30
0.0
 40
3.0
 41
100.0
 71
1
 72
2
  1
top\~step
  7
normallatin1
 50
0.0
 73
0
 44
1.0
  0
CIRCLE
  5
30F
100
AcDbEntity
100
AcDbCircle
  8
lighting
 62
256
370
-1
  6
ByLayer
 10
264.0
 20
372.0
 30
0.0
 40
3.0
  0
LINE
  5
310
100
AcDbEntity
100
AcDbLine
  8
lighting
 62
256
370
-1
  6
ByLayer
 10
264.0
 20
376.0
 30
0.0
 11
264.0
 21
368.0
 31
0.0
  0
LINE
  5
311
100
AcDbEntity
100
AcDbLine
  8
lighting
 62
256
370
-1
  6
ByLayer
 10
260.0
 20
372.0
 30
0.0
 11
268.0
 21
372.0
 31
0.0
  0
CIRCLE
  5
312
100
AcDbEntity
100
AcDbCircle
  8
lighting
 62
256
370
-1
  6
ByLayer
 10
212.0
 20
372.0
 30
0.0
 40
3.0
  0
LINE
  5
313
100
AcDbEntity
100
AcDbLine
  8
lighting
 62
256
370
-1
  6
ByLayer
 10
212.0
 20
376.0
 30
0.0
 11
212.0
 21
368.0
 31
0.0
  0
LINE
  5
314
100
AcDbEntity
100
AcDbLine
  8
lighting
 62
256
370
-1
  6
ByLayer
 10
208.0
 20
372.0
 30
0.0
 11
216.0
 21
372.0
 31
0.0
  0
DIMENSION
  5
315
100
AcDbEntity
  8
dimensions
 62
256
370
-1
  6
ByLayer
100
AcDbDimension
 10
201.5589756288518402
 20
354.0
 30
0.0
 11
198.5589756288518402
 21
372.125
 31
0.0
 70
0
 71
5
 72
0
 41
1.0
 42
0.0
  1

  3
Standard
100
AcDbAlignedDimension
 13
201.5589756288518402
 23
390.25
 33
0.0
 14
201.5589756288518402
 24
354.0
 34
0.0
 50
90.0
100
AcDbRotatedDimension
  0
LINE
  5
316
100
AcDbEntity
100
AcDbLine
  8
partition_wall
 62
256
370
-1
  6
ByLayer
 10
221.375
 20
352.4844555433772371
 30
0.0
 11
245.6237113059642638
 21
366.4844555433771802
 31
0.0
  0
LINE
  5
317
100
AcDbEntity
100
AcDbLine
  8
partition_wall
 62
256
370
-1
  6
ByLayer
 10
245.6237113059642638
 20
366.4844555433771802
 30
0.0
 11
244.7487113059643207
 21
367.9999999999999432
 31
0.0
  0
LINE
  5
318
100
AcDbEntity
100
AcDbLine
  8
partition_wall
 62
256
370
-1
  6
ByLayer
 10
244.7487113059643207
 20
367.9999999999999432
 30
0.0
 11
220.5
 21
354.0
 31
0.0
  0
LINE
  5
319
100
AcDbEntity
100
AcDbLine
  8
partition_wall
 62
256
370
-1
  6
ByLayer
 10
220.5
 20
354.0
 30
0.0
 11
221.375
 21
352.4844555433772371
 31
0.0
  0
MTEXT
  5
31A
100
AcDbEntity
100
AcDbMText
  8
text
 62
256
370
-1
  6
ByLayer
 10
227.875
 20
352.9844555433772371
 30
0.0
 40
2.0
 41
100.0
 71
1
 72
2
  1
2'\~4"\~door
  7
normallatin1
 50
0.0
 73
0
 44
1.0
  0
DIMENSION
  5
31B
100
AcDbEntity
  8
dimensions
 62
256
370
-1
  6
ByLayer
100
AcDbDimension
 10
404.0
 20
347.0
 30
0.0
 11
406.5141574442188244
 21
353.7567981313381438
 31
0.0
 70
4
 71
5
 72
0
 41
1.0
 42
0.0
  1

  3
Standard
100
AcDbRadialDimension
 15
406.8284271247462129
 25
349.8284271247462129
 35
0.0
 40
0.0
  0
DIMENSION
  5
31C
100
AcDbEntity
  8
dimensions
 62
256
370
-1
  6
ByLayer
100
AcDbDimension
 10
404.0
 20
336.0
 30
0.0
 11
410.7567981313381438
 21
333.4858425557811756
 31
0.0
 70
4
 71
5
 72
0
 41
1.0
 42
0.0
  1

  3
Standard
100
AcDbRadialDimension
 15
406.8284271247462129
 25
333.1715728752537871
 35
0.0
 40
0.0
  0
DIMENSION
  5
31D
100
AcDbEntity
  8
dimensions
 62
256
370
-1
  6
ByLayer
100
AcDbDimension
 10
322.0
 20
336.0
 30
0.0
 11
315.2432018686618562
 21
333.4858425557811756
 31
0.0
 70
4
 71
5
 72
0
 41
1.0
 42
0.0
  1

  3
Standard
100
AcDbRadialDimension
 15
319.1715728752537871
 25
333.1715728752537871
 35
0.0
 40
0.0
  0
DIMENSION
  5
31E
100
AcDbEntity
  8
dimensions
 62
256
370
-1
  6
ByLayer
100
AcDbDimension
 10
395.1875
 20
371.0
 30
0.0
 11
397.7016574442188244
 21
377.7567981313381438
 31
0.0
 70
4
 71
5
 72
0
 41
1.0
 42
0.0
  1

  3
Standard
100
AcDbRadialDimension
 15
398.0159271247462129
 25
373.8284271247462129
 35
0.0
 40
0.0
  0
MTEXT
  5
31F
100
AcDbEntity
100
AcDbMText
  8
text
 62
256
370
-1
  6
ByLayer
 10
228.0
 20
380.0
 30
0.0
 40
3.0
 41
100.0
 71
1
 72
2
  1
drywall\Pceiling\~87\~1/2"
  7
normallatin1
 50
0.0
 73
0
 44
1.0
  0
CIRCLE
  5
320
100
AcDbEntity
100
AcDbCircle
  8
electrical
 62
256
370
-1
  6
ByLayer
 10
218.0
 20
444.0
 30
0.0
 40
6.0
  0
ARC
  5
321
100
AcDbEntity
  8
electrical
 62
256
370
-1
  6
ByLayer
100
AcDbCircle
 10
218.25
 20
441.0
 30
0.0
 40
3.0103986446980739
100
AcDbArc
 50
94.7636416907261747
 51
274.7636416907261605
  0
ARC
  5
322
100
AcDbEntity
  8
electrical
 62
256
370
-1
  6
ByLayer
100
AcDbCircle
 10
217.75
 20
447.0
 30
0.0
 40
3.0103986446980739
100
AcDbArc
 50
274.7636416907261605
 51
94.7636416907261747
  0
ARC
  5
323
100
AcDbEntity
  8
electrical
 62
256
370
-1
  6
ByLayer
100
AcDbCircle
 10
215.0
 20
443.75
 30
0.0
 40
3.0103986446980739
100
AcDbArc
 50
4.76364169072622
 51
184.7636416907262173
  0
ARC
  5
324
100
AcDbEntity
  8
electrical
 62
256
370
-1
  6
ByLayer
100
AcDbCircle
 10
221.0
 20
444.25
 30
0.0
 40
3.0103986446980739
100
AcDbArc
 50
184.7636416907262173
 51
4.76364169072622
  0
MTEXT
  5
325
100
AcDbEntity
100
AcDbMText
  8
text
 62
256
370
-1
  6
ByLayer
 10
219.0
 20
440.5
 30
0.0
 40
3.0
 41
100.0
 71
1
 72
2
  1
fan
  7
normallatin1
 50
0.0
 73
0
 44
1.0
  0
CIRCLE
  5
326
100
AcDbEntity
100
AcDbCircle
  8
lighting
 62
256
370
-1
  6
ByLayer
 10
156.0
 20
324.0
 30
0.0
 40
2.0
  0
CIRCLE
  5
327
100
AcDbEntity
100
AcDbCircle
  8
lighting
 62
256
370
-1
  6
ByLayer
 10
156.0
 20
324.0
 30
0.0
 40
1.0
  0
MTEXT
  5
328
100
AcDbEntity
100
AcDbMText
  8
lighting_text
 62
256
370
-1
  6
ByLayer
 10
150.0
 20
320.0
 30
0.0
 40
2.0
 41
100.0
 71
1
 72
2
  1
utility\~light
  7
normallatin1
 50
0.0
 73
0
 44
1.0
  0
CIRCLE
  5
329
100
AcDbEntity
100
AcDbCircle
  8
lighting
 62
256
370
-1
  6
ByLayer
 10
180.0
 20
236.0
 30
0.0
 40
2.0
  0
CIRCLE
  5
32A
100
AcDbEntity
100
AcDbCircle
  8
lighting
 62
256
370
-1
  6
ByLayer
 10
180.0
 20
236.0
 30
0.0
 40
1.0
  0
MTEXT
  5
32B
100
AcDbEntity
100
AcDbMText
  8
lighting_text
 62
256
370
-1
  6
ByLayer
 10
183.0
 20
237.0
 30
0.0
 40
2.0
 41
100.0
 71
1
 72
2
  1
utility\~light
  7
normallatin1
 50
0.0
 73
0
 44
1.0
  0
CIRCLE
  5
32C
100
AcDbEntity
100
AcDbCircle
  8
lighting
 62
256
370
-1
  6
ByLayer
 10
96.0
 20
430.0
 30
0.0
 40
2.0
  0
CIRCLE
  5
32D
100
AcDbEntity
100
AcDbCircle
  8
lighting
 62
256
370
-1
  6
ByLayer
 10
96.0
 20
430.0
 30
0.0
 40
1.0
  0
MTEXT
  5
32E
100
AcDbEntity
100
AcDbMText
  8
lighting_text
 62
256
370
-1
  6
ByLayer
 10
90.0
 20
426.0
 30
0.0
 40
2.0
 41
100.0
 71
1
 72
2
  1
utility\~light
  7
normallatin1
 50
0.0
 73
0
 44
1.0
  0
CIRCLE
  5
32F
100
AcDbEntity
100
AcDbCircle
  8
lighting
 62
256
370
-1
  6
ByLayer
 10
72.0
 20
380.0
 30
0.0
 40
2.0
  0
CIRCLE
  5
330
100
AcDbEntity
100
AcDbCircle
  8
lighting
 62
256
370
-1
  6
ByLayer
 10
72.0
 20
380.0
 30
0.0
 40
1.0
  0
MTEXT
  5
331
100
AcDbEntity
100
AcDbMText
  8
lighting_text
 62
256
370
-1
  6
ByLayer
 10
66.0
 20
376.0
 30
0.0
 40
2.0
 41
100.0
 71
1
 72
2
  1
utility\~light
  7
normallatin1
 50
0.0
 73
0
 44
1.0
  0
CIRCLE
  5
332
100
AcDbEntity
100
AcDbCircle
  8
lighting
 62
256
370
-1
  6
ByLayer
 10
72.0
 20
228.0
 30
0.0
 40
2.0
  0
CIRCLE
  5
333
100
AcDbEntity
100
AcDbCircle
  8
lighting
 62
256
370
-1
  6
ByLayer
 10
72.0
 20
228.0
 30
0.0
 40
1.0
  0
MTEXT
  5
334
100
AcDbEntity
100
AcDbMText
  8
lighting_text
 62
256
370
-1
  6
ByLayer
 10
66.0
 20
224.0
 30
0.0
 40
2.0
 41
100.0
 71
1
 72
2
  1
utility\~light
  7
normallatin1
 50
0.0
 73
0
 44
1.0
  0
CIRCLE
  5
335
100
AcDbEntity
100
AcDbCircle
  8
lighting
 62
256
370
-1
  6
ByLayer
 10
72.0
 20
84.0
 30
0.0
 40
2.0
  0
CIRCLE
  5
336
100
AcDbEntity
100
AcDbCircle
  8
lighting
 62
256
370
-1
  6
ByLayer
 10
72.0
 20
84.0
 30
0.0
 40
1.0
  0
MTEXT
  5
337
100
AcDbEntity
100
AcDbMText
  8
lighting_text
 62
256
370
-1
  6
ByLayer
 10
66.0
 20
90.0
 30
0.0
 40
2.0
 41
100.0
 71
1
 72
2
  1
utility\~light
  7
normallatin1
 50
0.0
 73
0
 44
1.0
  0
CIRCLE
  5
338
100
AcDbEntity
100
AcDbCircle
  8
lighting
 62
256
370
-1
  6
ByLayer
 10
-60.0
 20
388.0
 30
0.0
 40
2.0
  0
CIRCLE
  5
339
100
AcDbEntity
100
AcDbCircle
  8
lighting
 62
256
370
-1
  6
ByLayer
 10
-60.0
 20
388.0
 30
0.0
 40
1.0
  0
MTEXT
  5
33A
100
AcDbEntity
100
AcDbMText
  8
lighting_text
 62
256
370
-1
  6
ByLayer
 10
-66.0
 20
384.0
 30
0.0
 40
2.0
 41
100.0
 71
1
 72
2
  1
utility\~light
  7
normallatin1
 50
0.0
 73
0
 44
1.0
  0
CIRCLE
  5
33B
100
AcDbEntity
100
AcDbCircle
  8
lighting
 62
256
370
-1
  6
ByLayer
 10
195.0625
 20
412.875
 30
0.0
 40
3.0
  0
LINE
  5
33C
100
AcDbEntity
100
AcDbLine
  8
lighting
 62
256
370
-1
  6
ByLayer
 10
195.0625
 20
416.875
 30
0.0
 11
195.0625
 21
408.875
 31
0.0
  0
LINE
  5
33D
100
AcDbEntity
100
AcDbLine
  8
lighting
 62
256
370
-1
  6
ByLayer
 10
191.0625
 20
412.875
 30
0.0
 11
199.0625
 21
412.875
 31
0.0
  0
LINE
  5
33E
100
AcDbEntity
100
AcDbLine
  8
lighting
 62
256
370
-1
  6
ByLayer
 10
297.5
 20
444.0
 30
0.0
 11
296.0
 21
444.0
 31
0.0
  0
LINE
  5
33F
100
AcDbEntity
100
AcDbLine
  8
lighting
 62
256
370
-1
  6
ByLayer
 10
296.0
 20
444.0
 30
0.0
 11
296.0
 21
408.0
 31
0.0
  0
LINE
  5
340
100
AcDbEntity
100
AcDbLine
  8
lighting
 62
256
370
-1
  6
ByLayer
 10
296.0
 20
408.0
 30
0.0
 11
297.5
 21
408.0
 31
0.0
  0
LINE
  5
341
100
AcDbEntity
100
AcDbLine
  8
lighting
 62
256
370
-1
  6
ByLayer
 10
297.5
 20
408.0
 30
0.0
 11
297.5
 21
444.0
 31
0.0
  0
LINE
  5
342
100
AcDbEntity
100
AcDbLine
  8
lighting
 62
256
370
-1
  6
ByLayer
 10
296.0
 20
440.0
 30
0.0
 11
295.0
 21
440.0
 31
0.0
  0
LINE
  5
343
100
AcDbEntity
100
AcDbLine
  8
lighting
 62
256
370
-1
  6
ByLayer
 10
295.0
 20
440.0
 30
0.0
 11
295.0
 21
436.0
 31
0.0
  0
LINE
  5
344
100
AcDbEntity
100
AcDbLine
  8
lighting
 62
256
370
-1
  6
ByLayer
 10
295.0
 20
436.0
 30
0.0
 11
296.0
 21
436.0
 31
0.0
  0
LINE
  5
345
100
AcDbEntity
100
AcDbLine
  8
lighting
 62
256
370
-1
  6
ByLayer
 10
296.0
 20
436.0
 30
0.0
 11
296.0
 21
440.0
 31
0.0
  0
LINE
  5
346
100
AcDbEntity
100
AcDbLine
  8
lighting
 62
256
370
-1
  6
ByLayer
 10
296.0
 20
428.0
 30
0.0
 11
295.0
 21
428.0
 31
0.0
  0
LINE
  5
347
100
AcDbEntity
100
AcDbLine
  8
lighting
 62
256
370
-1
  6
ByLayer
 10
295.0
 20
428.0
 30
0.0
 11
295.0
 21
424.0
 31
0.0
  0
LINE
  5
348
100
AcDbEntity
100
AcDbLine
  8
lighting
 62
256
370
-1
  6
ByLayer
 10
295.0
 20
424.0
 30
0.0
 11
296.0
 21
424.0
 31
0.0
  0
LINE
  5
349
100
AcDbEntity
100
AcDbLine
  8
lighting
 62
256
370
-1
  6
ByLayer
 10
296.0
 20
424.0
 30
0.0
 11
296.0
 21
428.0
 31
0.0
  0
LINE
  5
34A
100
AcDbEntity
100
AcDbLine
  8
lighting
 62
256
370
-1
  6
ByLayer
 10
296.0
 20
416.0
 30
0.0
 11
295.0
 21
416.0
 31
0.0
  0
LINE
  5
34B
100
AcDbEntity
100
AcDbLine
  8
lighting
 62
256
370
-1
  6
ByLayer
 10
295.0
 20
416.0
 30
0.0
 11
295.0
 21
412.0
 31
0.0
  0
LINE
  5
34C
100
AcDbEntity
100
AcDbLine
  8
lighting
 62
256
370
-1
  6
ByLayer
 10
295.0
 20
412.0
 30
0.0
 11
296.0
 21
412.0
 31
0.0
  0
LINE
  5
34D
100
AcDbEntity
100
AcDbLine
  8
lighting
 62
256
370
-1
  6
ByLayer
 10
296.0
 20
412.0
 30
0.0
 11
296.0
 21
416.0
 31
0.0
  0
MTEXT
  5
34E
100
AcDbEntity
100
AcDbMText
  8
text
 62
256
370
-1
  6
ByLayer
 10
252.0
 20
422.0
 30
0.0
 40
5.0
 41
100.0
 71
1
 72
2
  1
bath
  7
normallatin1
 50
0.0
 73
0
 44
1.0
  0
CIRCLE
  5
34F
100
AcDbEntity
100
AcDbCircle
  8
lighting
 62
256
370
-1
  6
ByLayer
 10
240.0
 20
422.0
 30
0.0
 40
3.0
  0
LINE
  5
350
100
AcDbEntity
100
AcDbLine
  8
lighting
 62
256
370
-1
  6
ByLayer
 10
240.0
 20
426.0
 30
0.0
 11
240.0
 21
418.0
 31
0.0
  0
LINE
  5
351
100
AcDbEntity
100
AcDbLine
  8
lighting
 62
256
370
-1
  6
ByLayer
 10
236.0
 20
422.0
 30
0.0
 11
244.0
 21
422.0
 31
0.0
  0
MTEXT
  5
352
100
AcDbEntity
100
AcDbMText
  8
text
 62
256
370
-1
  6
ByLayer
 10
269.8190293724260869
 20
180.6614370580591924
 30
0.0
 40
3.0
 41
100.0
 71
1
 72
2
  1
87\~1/2"\~soffit
  7
normallatin1
 50
0.0
 73
1
 44
1.0
  0
LEADER
  5
353
  8
text
 62
256
370
-1
  6
ByLayer
100
AcDbEntity
100
AcDbLeader
  3
Standard
 71
1
 72
0
 73
3
 74
0
 75
0
 40
1.0
 41
10.0
 76
4
 10
290.9186414077057634
 20
190.3313585922942366
 10
282.0
 20
188.0
 10
278.0
 20
184.0
 10
278.0
 20
184.0
  0
MTEXT
  5
354
100
AcDbEntity
100
AcDbMText
  8
text
 62
256
370
-1
  6
ByLayer
 10
228.0
 20
152.0
 30
0.0
 40
3.0
 41
100.0
 71
1
 72
2
  1
87\~1/2"\~soffit
  7
normallatin1
 50
0.0
 73
1
 44
1.0
  0
LEADER
  5
355
  8
text
 62
256
370
-1
  6
ByLayer
100
AcDbEntity
100
AcDbLeader
  3
Standard
 71
1
 72
0
 73
3
 74
0
 75
0
 40
1.0
 41
10.0
 76
3
 10
216.0
 20
140.0
 10
244.0
 20
144.0
 10
244.0
 20
144.0
  0
MTEXT
  5
356
100
AcDbEntity
100
AcDbMText
  8
text
 62
256
370
-1
  6
ByLayer
 10
220.0
 20
418.0
 30
0.0
 40
3.0
 41
100.0
 71
1
 72
2
  1
drywall\~ceiling\P87\~1/2"
  7
normallatin1
 50
0.0
 73
0
 44
1.0
  0
MTEXT
  5
357
100
AcDbEntity
100
AcDbMText
  8
text
 62
256
370
-1
  6
ByLayer
 10
260.0
 20
208.0
 30
0.0
 40
3.0
 41
100.0
 71
1
 72
2
  1
arm\Pwall
  7
normallatin1
 50
0.0
 73
0
 44
1.0
  0
MTEXT
  5
358
100
AcDbEntity
100
AcDbMText
  8
text
 62
256
370
-1
  6
ByLayer
 10
202.0
 20
200.0
 30
0.0
 40
3.0
 41
100.0
 71
1
 72
2
  1
arm\Pwall
  7
normallatin1
 50
0.0
 73
0
 44
1.0
  0
POINT
  5
359
100
AcDbEntity
100
AcDbPoint
  8
foundation
 62
256
370
-1
  6
ByLayer
 10
-180.0
 20
-12.0
 30
0.0
  0
POINT
  5
35A
100
AcDbEntity
100
AcDbPoint
  8
foundation
 62
256
370
-1
  6
ByLayer
 10
-168.0
 20
12.0
 30
0.0
  0
LINE
  5
35B
100
AcDbEntity
100
AcDbLine
  8
scale
 62
256
370
-1
  6
ByLayer
 10
-108.6339933747849784
 20
29.5270108659281902
 30
0.0
 11
-120.6339933747849784
 21
29.5270108659281902
 31
0.0
  0
LINE
  5
35C
100
AcDbEntity
100
AcDbLine
  8
scale
 62
256
370
-1
  6
ByLayer
 10
-120.6339933747849784
 20
29.5270108659281902
 30
0.0
 11
-120.6339933747849784
 21
-90.4729891340718098
 31
0.0
  0
LINE
  5
35D
100
AcDbEntity
100
AcDbLine
  8
scale
 62
256
370
-1
  6
ByLayer
 10
-120.6339933747849784
 20
-90.4729891340718098
 30
0.0
 11
-108.6339933747849784
 21
-90.4729891340718098
 31
0.0
  0
LINE
  5
35E
100
AcDbEntity
100
AcDbLine
  8
scale
 62
256
370
-1
  6
ByLayer
 10
-108.6339933747849784
 20
-90.4729891340718098
 30
0.0
 11
-108.6339933747849784
 21
29.5270108659281902
 31
0.0
  0
LINE
  5
35F
100
AcDbEntity
100
AcDbLine
  8
scale
 62
256
370
-1
  6
ByLayer
 10
-144.6339933747849784
 20
-30.4729891340718098
 30
0.0
 11
-132.6339933747849784
 21
-30.4729891340718098
 31
0.0
  0
LINE
  5
360
100
AcDbEntity
100
AcDbLine
  8
scale
 62
256
370
-1
  6
ByLayer
 10
-132.6339933747849784
 20
-30.4729891340718098
 30
0.0
 11
-132.6339933747849784
 21
-90.4729891340718098
 31
0.0
  0
LINE
  5
361
100
AcDbEntity
100
AcDbLine
  8
scale
 62
256
370
-1
  6
ByLayer
 10
-132.6339933747849784
 20
-90.4729891340718098
 30
0.0
 11
-144.6339933747849784
 21
-90.4729891340718098
 31
0.0
  0
LINE
  5
362
100
AcDbEntity
100
AcDbLine
  8
scale
 62
256
370
-1
  6
ByLayer
 10
-144.6339933747849784
 20
-90.4729891340718098
 30
0.0
 11
-144.6339933747849784
 21
-30.4729891340718098
 31
0.0
  0
LINE
  5
363
100
AcDbEntity
100
AcDbLine
  8
scale
 62
256
370
-1
  6
ByLayer
 10
-168.6339933747849784
 20
-78.4729891340718098
 30
0.0
 11
-156.6339933747849784
 21
-78.4729891340718098
 31
0.0
  0
LINE
  5
364
100
AcDbEntity
100
AcDbLine
  8
scale
 62
256
370
-1
  6
ByLayer
 10
-156.6339933747849784
 20
-78.4729891340718098
 30
0.0
 11
-156.6339933747849784
 21
-90.4729891340718098
 31
0.0
  0
LINE
  5
365
100
AcDbEntity
100
AcDbLine
  8
scale
 62
256
370
-1
  6
ByLayer
 10
-156.6339933747849784
 20
-90.4729891340718098
 30
0.0
 11
-168.6339933747849784
 21
-90.4729891340718098
 31
0.0
  0
LINE
  5
366
100
AcDbEntity
100
AcDbLine
  8
scale
 62
256
370
-1
  6
ByLayer
 10
-168.6339933747849784
 20
-90.4729891340718098
 30
0.0
 11
-168.6339933747849784
 21
-78.4729891340718098
 31
0.0
  0
MTEXT
  5
367
100
AcDbEntity
100
AcDbMText
  8
text
 62
256
370
-1
  6
ByLayer
 10
-124.6339933747849784
 20
37.5270108659281902
 30
0.0
 40
4.0
 41
100.0
 71
1
 72
2
  1
10'\~x\~1'
  7
normallatin1
 50
0.0
 73
0
 44
1.0
  0
MTEXT
  5
368
100
AcDbEntity
100
AcDbMText
  8
text
 62
256
370
-1
  6
ByLayer
 10
-172.6339933747849784
 20
-70.4729891340718098
 30
0.0
 40
4.0
 41
100.0
 71
1
 72
2
  1
1'\~x\~1'
  7
normallatin1
 50
0.0
 73
0
 44
1.0
  0
MTEXT
  5
369
100
AcDbEntity
100
AcDbMText
  8
text
 62
256
370
-1
  6
ByLayer
 10
-148.6339933747849784
 20
-22.4729891340718098
 30
0.0
 40
4.0
 41
100.0
 71
1
 72
2
  1
5'\~x\~1'
  7
normallatin1
 50
0.0
 73
0
 44
1.0
  0
MTEXT
  5
36A
100
AcDbEntity
100
AcDbMText
  8
text
 62
256
370
-1
  6
ByLayer
 10
-166.2353190812907258
 20
25.692292667679709
 30
0.0
 40
4.0
 41
100.0
 71
1
 72
2
  1
scale\Ph\~x\~w
  7
normallatin1
 50
0.0
 73
0
 44
1.0
  0
LINE
  5
36B
100
AcDbEntity
100
AcDbLine
  8
scale
 62
256
370
-1
  6
ByLayer
 10
-180.0
 20
41.9596428443361162
 30
0.0
 11
-101.4787520319084564
 21
41.9596428443361162
 31
0.0
  0
LINE
  5
36C
100
AcDbEntity
100
AcDbLine
  8
scale
 62
256
370
-1
  6
ByLayer
 10
-101.4787520319084564
 20
41.9596428443361162
 30
0.0
 11
-101.4787520319084564
 21
-96.0
 31
0.0
  0
LINE
  5
36D
100
AcDbEntity
100
AcDbLine
  8
scale
 62
256
370
-1
  6
ByLayer
 10
-101.4787520319084564
 20
-96.0
 30
0.0
 11
-180.0
 21
-96.0
 31
0.0
  0
LINE
  5
36E
100
AcDbEntity
100
AcDbLine
  8
scale
 62
256
370
-1
  6
ByLayer
 10
-180.0
 20
-96.0
 30
0.0
 11
-180.0
 21
41.9596428443361162
 31
0.0
  0
MTEXT
  5
36F
100
AcDbEntity
100
AcDbMText
  8
text
 62
256
370
-1
  6
ByLayer
 10
276.0
 20
73.5
 30
0.0
 40
3.0
 41
100.0
 71
1
 72
2
  1
support\Ppost
  7
normallatin1
 50
0.0
 73
1
 44
1.0
  0
MTEXT
  5
370
100
AcDbEntity
100
AcDbMText
  8
text
 62
256
370
-1
  6
ByLayer
 10
332.0
 20
279.5
 30
0.0
 40
3.0
 41
100.0
 71
1
 72
2
  1
57"\~cue\~stick\Pclearance\~point\P
  7
normallatin1
 50
0.0
 73
1
 44
1.0
  0
MTEXT
  5
371
100
AcDbEntity
100
AcDbMText
  8
text
 62
256
370
-1
  6
ByLayer
 10
372.0000444444444838
 20
284.8888888888889142
 30
0.0
 40
4.0
 41
100.0
 71
1
 72
2
  1
Ceiling\~1/2"\~wall\~board\Pw/\~textured\~knock-down\~finish\Pconsistent\~with\~upper\~levels
  7
normallatin1
 50
0.0
 73
0
 44
1.0
  0
LINE
  5
372
100
AcDbEntity
100
AcDbLine
  8
lighting
 62
256
370
-1
  6
ByLayer
 10
338.0
 20
353.0
 30
0.0
 11
338.0
 21
347.0
 31
0.0
  0
LINE
  5
373
100
AcDbEntity
100
AcDbLine
  8
lighting
 62
256
370
-1
  6
ByLayer
 10
335.0
 20
350.0
 30
0.0
 11
341.0
 21
350.0
 31
0.0
  0
LINE
  5
374
100
AcDbEntity
100
AcDbLine
  8
lighting
 62
256
370
-1
  6
ByLayer
 10
362.0
 20
353.0
 30
0.0
 11
362.0
 21
347.0
 31
0.0
  0
LINE
  5
375
100
AcDbEntity
100
AcDbLine
  8
lighting
 62
256
370
-1
  6
ByLayer
 10
359.0
 20
350.0
 30
0.0
 11
365.0
 21
350.0
 31
0.0
  0
LINE
  5
376
100
AcDbEntity
100
AcDbLine
  8
lighting
 62
256
370
-1
  6
ByLayer
 10
386.0
 20
353.0
 30
0.0
 11
386.0
 21
347.0
 31
0.0
  0
LINE
  5
377
100
AcDbEntity
100
AcDbLine
  8
lighting
 62
256
370
-1
  6
ByLayer
 10
383.0
 20
350.0
 30
0.0
 11
389.0
 21
350.0
 31
0.0
  0
POINT
  5
378
100
AcDbEntity
100
AcDbPoint
  8
text
 62
256
370
-1
  6
ByLayer
 10
378.0
 20
364.0
 30
0.0
  0
MTEXT
  5
379
100
AcDbEntity
100
AcDbMText
  8
lighting_text
 62
256
370
-1
  6
ByLayer
 10
376.0
 20
366.0
 30
0.0
 40
3.0
 41
100.0
 71
1
 72
2
  1
hanging\~bar\Plights
  7
normallatin1
 50
0.0
 73
0
 44
1.0
  0
LEADER
  5
37A
  8
text
 62
256
370
-1
  6
ByLayer
100
AcDbEntity
100
AcDbLeader
  3
Standard
 71
1
 72
0
 73
3
 74
0
 75
0
 40
1.0
 41
10.0
 76
2
 10
342.0
 20
359.0
 10
354.0
 20
392.0
  0
MTEXT
  5
37B
100
AcDbEntity
100
AcDbMText
  8
text
 62
256
370
-1
  6
ByLayer
 10
308.0
 20
462.0
 30
0.0
 40
3.0
 41
100.0
 71
1
 72
2
  1
switched\Pac\~outlets\Pabove\~cabinets
  7
normallatin1
 50
0.0
 73
1
 44
1.0
  0
MTEXT
  5
37C
100
AcDbEntity
100
AcDbMText
  8
text
 62
256
370
-1
  6
ByLayer
 10
268.0
 20
96.0
 30
0.0
 40
3.0
 41
100.0
 71
1
 72
2
  1
audio\~jacks\Pspeakers\~and\Pheadphones
  7
normallatin1
 50
0.0
 73
1
 44
1.0
  0
LEADER
  5
37D
  8
text
 62
256
370
-1
  6
ByLayer
100
AcDbEntity
100
AcDbLeader
  3
Standard
 71
1
 72
0
 73
3
 74
0
 75
0
 40
1.0
 41
10.0
 76
2
 10
308.0
 20
72.0
 10
280.0
 20
80.0
  0
LINE
  5
37E
100
AcDbEntity
100
AcDbLine
  8
partition_wall
 62
256
370
-1
  6
ByLayer
 10
195.0
 20
458.0
 30
0.0
 11
195.0
 21
462.0
 31
0.0
  0
LINE
  5
37F
100
AcDbEntity
100
AcDbLine
  8
partition_wall
 62
256
370
-1
  6
ByLayer
 10
195.0
 20
462.0
 30
0.0
 11
302.0
 21
462.0
 31
0.0
  0
LINE
  5
380
100
AcDbEntity
100
AcDbLine
  8
partition_wall
 62
256
370
-1
  6
ByLayer
 10
213.5
 20
430.875
 30
0.0
 11
213.5
 21
435.5
 31
0.0
  0
LINE
  5
381
100
AcDbEntity
100
AcDbLine
  8
partition_wall
 62
256
370
-1
  6
ByLayer
 10
199.5
 20
435.5
 30
0.0
 11
199.5
 21
458.0
 31
0.0
  0
LINE
  5
382
100
AcDbEntity
100
AcDbLine
  8
partition_wall
 62
256
370
-1
  6
ByLayer
 10
213.5
 20
435.5
 30
0.0
 11
199.5
 21
435.5
 31
0.0
  0
DIMENSION
  5
383
100
AcDbEntity
  8
dimensions
 62
256
370
-1
  6
ByLayer
100
AcDbDimension
 10
199.5
 20
441.1487137753495062
 30
0.0
 11
206.5
 21
444.1487137753495062
 31
0.0
 70
0
 71
5
 72
1
 41
1.0
 42
0.0
  1

  3
Standard
100
AcDbAlignedDimension
 13
213.5
 23
435.5
 33
0.0
 14
199.5
 24
441.1487137753495062
 34
0.0
 50
0.0
100
AcDbRotatedDimension
  0
DIMENSION
  5
384
100
AcDbEntity
  8
dimensions
 62
256
370
-1
  6
ByLayer
100
AcDbDimension
 10
205.9517804740196709
 20
435.125
 30
0.0
 11
202.9517804740196709
 21
446.75
 31
0.0
 70
0
 71
5
 72
0
 41
1.0
 42
0.0
  1

  3
Standard
100
AcDbAlignedDimension
 13
206.0
 23
458.0
 33
0.0
 14
205.9517804740196709
 24
435.5
 34
0.0
 50
90.0
100
AcDbRotatedDimension
  0
DIMENSION
  5
385
100
AcDbEntity
  8
dimensions
 62
256
370
-1
  6
ByLayer
100
AcDbDimension
 10
192.7579945374027943
 20
435.125
 30
0.0
 11
189.7579945374027943
 21
449.0
 31
0.0
 70
0
 71
5
 72
0
 41
1.0
 42
0.0
  1

  3
Standard
100
AcDbAlignedDimension
 13
192.7579945374027943
 23
462.5
 33
0.0
 14
192.7579945374027943
 24
435.5
 34
0.0
 50
90.0
100
AcDbRotatedDimension
  0
LINE
  5
386
100
AcDbEntity
100
AcDbLine
  8
partition_wall
 62
256
370
-1
  6
ByLayer
 10
195.0
 20
458.0
 30
0.0
 11
195.0
 21
435.5
 31
0.0
  0
LINE
  5
387
100
AcDbEntity
100
AcDbLine
  8
partition_wall
 62
256
370
-1
  6
ByLayer
 10
172.5
 20
387.0
 30
0.0
 11
177.0
 21
387.0
 31
0.0
  0
LINE
  5
388
100
AcDbEntity
100
AcDbLine
  8
partition_wall
 62
256
370
-1
  6
ByLayer
 10
177.0
 20
357.0
 30
0.0
 11
172.5
 21
357.0
 31
0.0
  0
DIMENSION
  5
389
100
AcDbEntity
  8
dimensions
 62
256
370
-1
  6
ByLayer
100
AcDbDimension
 10
234.0
 20
384.0
 30
0.0
 11
203.25
 21
387.0
 31
0.0
 70
0
 71
5
 72
1
 41
1.0
 42
0.0
  1

  3
Standard
100
AcDbAlignedDimension
 13
172.5
 23
387.0
 33
0.0
 14
234.0
 24
390.25
 34
0.0
 50
0.0
100
AcDbRotatedDimension
  0
DIMENSION
  5
38A
100
AcDbEntity
  8
dimensions
 62
256
370
-1
  6
ByLayer
100
AcDbDimension
 10
219.5
 20
360.0
 30
0.0
 11
196.0
 21
363.0
 31
0.0
 70
0
 71
5
 72
1
 41
1.0
 42
0.0
  1

  3
Standard
100
AcDbAlignedDimension
 13
172.5
 23
357.0
 33
0.0
 14
219.5
 24
354.0
 34
0.0
 50
0.0
100
AcDbRotatedDimension
  0
LINE
  5
38B
100
AcDbEntity
100
AcDbLine
  8
partition_wall
 62
256
370
-1
  6
ByLayer
 10
172.5
 20
357.0
 30
0.0
 11
172.5
 21
354.0
 31
0.0
  0
LINE
  5
38C
100
AcDbEntity
100
AcDbLine
  8
partition_wall
 62
256
370
-1
  6
ByLayer
 10
172.5
 20
354.0
 30
0.0
 11
127.0
 21
354.0
 31
0.0
  0
LINE
  5
38D
100
AcDbEntity
100
AcDbLine
  8
partition_wall
 62
256
370
-1
  6
ByLayer
 10
172.5
 20
387.0
 30
0.0
 11
172.5
 21
357.0
 31
0.0
  0
DIMENSION
  5
38E
100
AcDbEntity
  8
dimensions
 62
256
370
-1
  6
ByLayer
100
AcDbDimension
 10
164.0
 20
357.0
 30
0.0
 11
161.0
 21
372.0
 31
0.0
 70
0
 71
5
 72
1
 41
1.0
 42
0.0
  1

  3
Standard
100
AcDbAlignedDimension
 13
172.5
 23
387.0
 33
0.0
 14
172.5
 24
357.0
 34
0.0
 50
90.0
100
AcDbRotatedDimension
  0
LINE
  5
38F
100
AcDbEntity
100
AcDbLine
  8
partition_wall
 62
256
370
-1
  6
ByLayer
 10
159.0000000000000284
 20
382.2487113059642638
 30
0.0
 11
172.5
 21
358.0
 31
0.0
  0
LINE
  5
390
100
AcDbEntity
100
AcDbLine
  8
partition_wall
 62
256
370
-1
  6
ByLayer
 10
172.5
 20
358.0
 30
0.0
 11
174.5155444566227345
 21
358.8749999999999432
 31
0.0
  0
LINE
  5
391
100
AcDbEntity
100
AcDbLine
  8
partition_wall
 62
256
370
-1
  6
ByLayer
 10
172.5
 20
387.0
 30
0.0
 11
172.5
 21
435.5
 31
0.0
  0
LINE
  5
392
100
AcDbEntity
100
AcDbLine
  8
partition_wall
 62
256
370
-1
  6
ByLayer
 10
195.0
 20
435.5
 30
0.0
 11
172.5
 21
435.5
 31
0.0
  0
DIMENSION
  5
393
100
AcDbEntity
  8
dimensions
 62
256
370
-1
  6
ByLayer
100
AcDbDimension
 10
195.5
 20
441.0663330631599024
 30
0.0
 11
183.75
 21
444.0663330631599024
 31
0.0
 70
0
 71
5
 72
1
 41
1.0
 42
0.0
  1

  3
Standard
100
AcDbAlignedDimension
 13
172.5
 23
435.5
 33
0.0
 14
195.0
 24
441.0663330631599024
 34
0.0
 50
0.0
100
AcDbRotatedDimension
  0
LINE
  5
394
100
AcDbEntity
100
AcDbLine
  8
partition_wall
 62
256
370
-1
  6
ByLayer
 10
151.5000000000000284
 20
229.0
 30
0.0
 11
216.0
 21
229.0
 31
0.0
  0
LINE
  5
395
100
AcDbEntity
100
AcDbLine
  8
partition_wall
 62
256
370
-1
  6
ByLayer
 10
147.0
 20
181.0
 30
0.0
 11
151.5
 21
181.0
 31
0.0
  0
LINE
  5
396
100
AcDbEntity
100
AcDbLine
  8
partition_wall
 62
256
370
-1
  6
ByLayer
 10
151.5
 20
147.0
 30
0.0
 11
147.0
 21
147.0
 31
0.0
  0
LINE
  5
397
100
AcDbEntity
100
AcDbLine
  8
partition_wall
 62
256
370
-1
  6
ByLayer
 10
151.5
 20
4.5
 30
0.0
 11
151.5
 21
147.0
 31
0.0
  0
LINE
  5
398
100
AcDbEntity
100
AcDbLine
  8
partition_wall
 62
256
370
-1
  6
ByLayer
 10
151.5
 20
4.5
 30
0.0
 11
164.0
 21
4.5
 31
0.0
  0
POINT
  5
399
100
AcDbEntity
100
AcDbPoint
  8
text
 62
256
370
-1
  6
ByLayer
 10
151.5000000000000284
 20
181.0
 30
0.0
  0
POINT
  5
39A
100
AcDbEntity
100
AcDbPoint
  8
text
 62
256
370
-1
  6
ByLayer
 10
151.5
 20
147.0
 30
0.0
  0
DIMENSION
  5
39B
100
AcDbEntity
  8
dimensions
 62
256
370
-1
  6
ByLayer
100
AcDbDimension
 10
164.0
 20
20.0
 30
0.0
 11
157.75
 21
23.0
 31
0.0
 70
0
 71
5
 72
1
 41
1.0
 42
0.0
  1

  3
Standard
100
AcDbAlignedDimension
 13
151.5
 23
4.5
 33
0.0
 14
164.0
 24
4.5
 34
0.0
 50
0.0
100
AcDbRotatedDimension
  0
DIMENSION
  5
39C
100
AcDbEntity
  8
dimensions
 62
256
370
-1
  6
ByLayer
100
AcDbDimension
 10
467.75
 20
136.0
 30
0.0
 11
309.625
 21
139.0
 31
0.0
 70
0
 71
5
 72
1
 41
1.0
 42
0.0
  1

  3
Standard
100
AcDbAlignedDimension
 13
151.5
 23
136.0
 33
0.0
 14
467.75
 24
136.0
 34
0.0
 50
0.0
100
AcDbRotatedDimension
  0
DIMENSION
  5
39D
100
AcDbEntity
  8
dimensions
 62
256
370
-1
  6
ByLayer
100
AcDbDimension
 10
256.5
 20
16.0
 30
0.0
 11
204.0
 21
19.0
 31
0.0
 70
0
 71
5
 72
1
 41
1.0
 42
0.0
  1

  3
Standard
100
AcDbAlignedDimension
 13
151.5
 23
16.126736510741722
 33
0.0
 14
256.5
 24
4.5
 34
0.0
 50
0.0
100
AcDbRotatedDimension
  0
DIMENSION
  5
39E
100
AcDbEntity
  8
dimensions
 62
256
370
-1
  6
ByLayer
100
AcDbDimension
 10
158.0
 20
147.0
 30
0.0
 11
155.0
 21
164.0
 31
0.0
 70
0
 71
5
 72
0
 41
1.0
 42
0.0
  1

  3
Standard
100
AcDbAlignedDimension
 13
151.5
 23
181.0
 33
0.0
 14
151.5
 24
147.0
 34
0.0
 50
90.0
100
AcDbRotatedDimension
  0
LINE
  5
39F
100
AcDbEntity
100
AcDbLine
  8
ceiling
 62
256
370
-1
  6
ByLayer
 10
151.5000000000000284
 20
181.0
 30
0.0
 11
151.5
 21
147.0
 31
0.0
  0
LINE
  5
3A0
100
AcDbEntity
100
AcDbLine
  8
partition_wall
 62
256
370
-1
  6
ByLayer
 10
151.5000000000000284
 20
181.0
 30
0.0
 11
151.5000000000000284
 21
229.0
 31
0.0
  0
MTEXT
  5
3A1
100
AcDbEntity
100
AcDbMText
  8
text
 62
256
370
-1
  6
ByLayer
 10
156.0
 20
316.0
 30
0.0
 40
3.0
 41
100.0
 71
1
 72
0
  1
walls\~insulated\Pfoil-backed\~insulation\Punfinished\~(no\~wall\~board)
  7
normallatin1
 50
0.0
 73
1
 44
1.0
  0
MTEXT
  5
3A2
100
AcDbEntity
100
AcDbMText
  8
text
 62
256
370
-1
  6
ByLayer
 10
96.0
 20
264.0
 30
0.0
 40
3.0
 41
100.0
 71
1
 72
0
  1
finished\~wall\P1/2"\~wall\~board
  7
normallatin1
 50
0.0
 73
1
 44
1.0
  0
MTEXT
  5
3A3
100
AcDbEntity
100
AcDbMText
  8
text
 62
256
370
-1
  6
ByLayer
 10
132.0
 20
420.0
 30
0.0
 40
3.0
 41
100.0
 71
1
 72
0
  1
finished\~wall\P1/2"\~wall\~board
  7
normallatin1
 50
0.0
 73
1
 44
1.0
  0
MTEXT
  5
3A4
100
AcDbEntity
100
AcDbMText
  8
text
 62
256
370
-1
  6
ByLayer
 10
432.0
 20
256.0
 30
0.0
 40
3.0
 41
100.0
 71
1
 72
0
  1
finished\~wall\P1/2"\~wall\~board
  7
normallatin1
 50
0.0
 73
1
 44
1.0
  0
MTEXT
  5
3A5
100
AcDbEntity
100
AcDbMText
  8
text
 62
256
370
-1
  6
ByLayer
 10
468.0
 20
204.0
 30
0.0
 40
3.0
 41
100.0
 71
1
 72
0
  1
All\~walls\~along\Pfoundation\~insulated\Pr-13\~paper-backed
  7
normallatin1
 50
0.0
 73
1
 44
1.0
  0
LEADER
  5
3A6
  8
text
 62
256
370
-1
  6
ByLayer
100
AcDbEntity
100
AcDbLeader
  3
Standard
 71
1
 72
0
 73
3
 74
0
 75
0
 40
1.0
 41
10.0
 76
3
 10
446.0
 20
194.0
 10
464.0
 20
198.0
 10
464.0
 20
198.0
  0
LEADER
  5
3A7
  8
text
 62
256
370
-1
  6
ByLayer
100
AcDbEntity
100
AcDbLeader
  3
Standard
 71
1
 72
0
 73
3
 74
0
 75
0
 40
1.0
 41
10.0
 76
3
 10
127.0
 20
283.0
 10
115.0
 20
276.0
 10
114.0
 20
265.0
  0
LEADER
  5
3A8
  8
text
 62
256
370
-1
  6
ByLayer
100
AcDbEntity
100
AcDbLeader
  3
Standard
 71
1
 72
0
 73
3
 74
0
 75
0
 40
1.0
 41
10.0
 76
2
 10
135.1374815762726485
 20
270.7056641742349825
 10
124.0
 20
262.0
  0
LEADER
  5
3A9
  8
text
 62
256
370
-1
  6
ByLayer
100
AcDbEntity
100
AcDbLeader
  3
Standard
 71
1
 72
0
 73
3
 74
0
 75
0
 40
1.0
 41
10.0
 76
2
 10
147.0
 20
251.4020885188693342
 10
129.0
 20
256.0
  0
LINE
  5
3AA
100
AcDbEntity
100
AcDbLine
  8
partition_wall
 62
256
370
-1
  6
ByLayer
 10
211.5
 20
229.0
 30
0.0
 11
211.5
 21
194.0
 31
0.0
  0
LINE
  5
3AB
100
AcDbEntity
100
AcDbLine
  8
partition_wall
 62
256
370
-1
  6
ByLayer
 10
211.5
 20
194.0
 30
0.0
 11
216.0
 21
194.0
 31
0.0
  0
LINE
  5
3AC
100
AcDbEntity
100
AcDbLine
  8
partition_wall
 62
256
370
-1
  6
ByLayer
 10
253.0
 20
229.0
 30
0.0
 11
257.5
 21
229.0
 31
0.0
  0
LINE
  5
3AD
100
AcDbEntity
100
AcDbLine
  8
partition_wall
 62
256
370
-1
  6
ByLayer
 10
253.0
 20
194.0
 30
0.0
 11
257.5
 21
194.0
 31
0.0
  0
LINE
  5
3AE
100
AcDbEntity
100
AcDbLine
  8
partition_wall
 62
256
370
-1
  6
ByLayer
 10
257.5
 20
194.0
 30
0.0
 11
257.5
 21
229.0
 31
0.0
  0
DIMENSION
  5
3AF
100
AcDbEntity
  8
dimensions
 62
256
370
-1
  6
ByLayer
100
AcDbDimension
 10
468.0
 20
287.25
 30
0.0
 11
362.75
 21
290.25
 31
0.0
 70
0
 71
5
 72
1
 41
1.0
 42
0.0
  1

  3
Standard
100
AcDbAlignedDimension
 13
257.5
 23
287.2803372371268438
 33
0.0
 14
468.0
 24
287.2574940975841287
 34
0.0
 50
0.0
100
AcDbRotatedDimension
  0
LINE
  5
3B0
100
AcDbEntity
100
AcDbLine
  8
partition_wall
 62
256
370
-1
  6
ByLayer
 10
216.0
 20
229.0
 30
0.0
 11
216.0
 21
349.5
 31
0.0
  0
LINE
  5
3B1
100
AcDbEntity
100
AcDbLine
  8
partition_wall
 62
256
370
-1
  6
ByLayer
 10
219.5
 20
349.5
 30
0.0
 11
219.5
 21
354.0
 31
0.0
  0
LINE
  5
3B2
100
AcDbEntity
100
AcDbLine
  8
partition_wall
 62
256
370
-1
  6
ByLayer
 10
216.0
 20
349.5
 30
0.0
 11
219.5
 21
349.5
 31
0.0
  0
LINE
  5
3B3
100
AcDbEntity
100
AcDbLine
  8
partition_wall
 62
256
370
-1
  6
ByLayer
 10
253.0
 20
229.0
 30
0.0
 11
253.0
 21
349.5
 31
0.0
  0
LINE
  5
3B4
100
AcDbEntity
100
AcDbLine
  8
partition_wall
 62
256
370
-1
  6
ByLayer
 10
249.5
 20
354.0
 30
0.0
 11
249.5
 21
349.5
 31
0.0
  0
LINE
  5
3B5
100
AcDbEntity
100
AcDbLine
  8
partition_wall
 62
256
370
-1
  6
ByLayer
 10
249.5
 20
349.5
 30
0.0
 11
253.0
 21
349.5
 31
0.0
  0
DIMENSION
  5
3B6
100
AcDbEntity
  8
dimensions
 62
256
370
-1
  6
ByLayer
100
AcDbDimension
 10
249.5
 20
344.0
 30
0.0
 11
234.5
 21
347.0
 31
0.0
 70
0
 71
5
 72
1
 41
1.0
 42
0.0
  1

  3
Standard
100
AcDbAlignedDimension
 13
219.5
 23
349.5
 33
0.0
 14
249.5
 24
349.5
 34
0.0
 50
0.0
100
AcDbRotatedDimension
  0
LINE
  5
3B7
100
AcDbEntity
100
AcDbLine
  8
ceiling
 62
256
370
-1
  6
ByLayer
 10
219.5
 20
349.5
 30
0.0
 11
249.5
 21
349.5
 31
0.0
  0
LINE
  5
3B8
100
AcDbEntity
100
AcDbLine
  8
partition_wall
 62
256
370
-1
  6
ByLayer
 10
263.5
 20
349.5
 30
0.0
 11
263.5
 21
354.0
 31
0.0
  0
LINE
  5
3B9
100
AcDbEntity
100
AcDbLine
  8
partition_wall
 62
256
370
-1
  6
ByLayer
 10
257.5
 20
229.0
 30
0.0
 11
257.5
 21
349.5
 31
0.0
  0
LINE
  5
3BA
100
AcDbEntity
100
AcDbLine
  8
partition_wall
 62
256
370
-1
  6
ByLayer
 10
257.5
 20
349.5
 30
0.0
 11
263.5
 21
349.5
 31
0.0
  0
LINE
  5
3BB
100
AcDbEntity
100
AcDbLine
  8
partition_wall
 62
256
370
-1
  6
ByLayer
 10
293.5
 20
354.0
 30
0.0
 11
293.5
 21
349.5
 31
0.0
  0
POINT
  5
3BC
100
AcDbEntity
100
AcDbPoint
  8
partition_wall
 62
256
370
-1
  6
ByLayer
 10
293.5
 20
349.5
 30
0.0
  0
LINE
  5
3BD
100
AcDbEntity
100
AcDbLine
  8
ceiling
 62
256
370
-1
  6
ByLayer
 10
263.5
 20
349.5
 30
0.0
 11
293.5
 21
349.5
 31
0.0
  0
LINE
  5
3BE
100
AcDbEntity
100
AcDbLine
  8
fixtures
 62
256
370
-1
  6
ByLayer
 10
318.0
 20
345.0
 30
0.0
 11
318.0
 21
336.0
 31
0.0
  0
DIMENSION
  5
3BF
100
AcDbEntity
  8
dimensions
 62
256
370
-1
  6
ByLayer
100
AcDbDimension
 10
429.5
 20
432.2487168945717144
 30
0.0
 11
366.0
 21
435.2487168945717144
 31
0.0
 70
0
 71
5
 72
1
 41
1.0
 42
0.0
  1

  3
Standard
100
AcDbAlignedDimension
 13
302.5
 23
435.4637899954404361
 33
0.0
 14
429.5
 24
435.4637899954404361
 34
0.0
 50
0.0
100
AcDbRotatedDimension
  0
DIMENSION
  5
3C0
100
AcDbEntity
  8
dimensions
 62
256
370
-1
  6
ByLayer
100
AcDbDimension
 10
325.0
 20
376.0
 30
0.0
 11
313.75
 21
379.0
 31
0.0
 70
0
 71
5
 72
0
 41
1.0
 42
0.0
  1

  3
Standard
100
AcDbAlignedDimension
 13
302.5
 23
376.0
 33
0.0
 14
325.0
 24
376.0
 34
0.0
 50
0.0
100
AcDbRotatedDimension
  0
DIMENSION
  5
3C1
100
AcDbEntity
  8
dimensions
 62
256
370
-1
  6
ByLayer
100
AcDbDimension
 10
327.0
 20
422.0
 30
0.0
 11
314.75
 21
425.0
 31
0.0
 70
0
 71
5
 72
0
 41
1.0
 42
0.0
  1

  3
Standard
100
AcDbAlignedDimension
 13
302.5
 23
422.0
 33
0.0
 14
327.0
 24
422.0
 34
0.0
 50
0.0
100
AcDbRotatedDimension
  0
LINE
  5
3C2
100
AcDbEntity
100
AcDbLine
  8
partition_wall
 62
256
370
-1
  6
ByLayer
 10
302.5
 20
440.0
 30
0.0
 11
429.5
 21
440.0
 31
0.0
  0
LINE
  5
3C3
100
AcDbEntity
100
AcDbLine
  8
partition_wall
 62
256
370
-1
  6
ByLayer
 10
293.5
 20
349.5
 30
0.0
 11
302.5
 21
349.5
 31
0.0
  0
LINE
  5
3C4
100
AcDbEntity
100
AcDbLine
  8
partition_wall
 62
256
370
-1
  6
ByLayer
 10
302.5
 20
349.5
 30
0.0
 11
302.5
 21
440.0
 31
0.0
  0
LINE
  5
3C5
100
AcDbEntity
100
AcDbLine
  8
fixtures
 62
256
370
-1
  6
ByLayer
 10
302.625
 20
439.875
 30
0.0
 11
327.1250000000000568
 21
439.875
 31
0.0
  0
LINE
  5
3C6
100
AcDbEntity
100
AcDbLine
  8
fixtures
 62
256
370
-1
  6
ByLayer
 10
302.625
 20
350.0
 30
0.0
 11
302.625
 21
439.875
 31
0.0
  0
LINE
  5
3C7
100
AcDbEntity
100
AcDbLine
  8
fixtures
 62
256
370
-1
  6
ByLayer
 10
327.1249999999997726
 20
350.0
 30
0.0
 11
302.625
 21
350.0
 31
0.0
  0
LINE
  5
3C8
100
AcDbEntity
100
AcDbLine
  8
fixtures
 62
256
370
-1
  6
ByLayer
 10
302.625
 20
351.0
 30
0.0
 11
404.0
 21
351.0
 31
0.0
  0
LINE
  5
3C9
100
AcDbEntity
100
AcDbLine
  8
fixtures
 62
256
370
-1
  6
ByLayer
 10
302.625
 20
350.0
 30
0.0
 11
302.625
 21
351.0
 31
0.0
  0
DIMENSION
  5
3CA
100
AcDbEntity
  8
dimensions
 62
256
370
-1
  6
ByLayer
100
AcDbDimension
 10
399.1875
 20
357.928060057642881
 30
0.0
 11
350.90625
 21
360.928060057642881
 31
0.0
 70
0
 71
5
 72
1
 41
1.0
 42
0.0
  1

  3
Standard
100
AcDbAlignedDimension
 13
302.625
 23
357.853735307541001
 33
0.0
 14
399.1875
 24
357.928060057642881
 34
0.0
 50
0.0
100
AcDbRotatedDimension
  0
LINE
  5
3CB
100
AcDbEntity
100
AcDbLine
  8
fixtures
 62
256
370
-1
  6
ByLayer
 10
302.625
 20
350.0
 30
0.0
 11
302.625
 21
349.0
 31
0.0
  0
LINE
  5
3CC
100
AcDbEntity
100
AcDbLine
  8
fixtures
 62
256
370
-1
  6
ByLayer
 10
302.625
 20
349.0
 30
0.0
 11
302.625
 21
349.0
 31
0.0
  0
DIMENSION
  5
3CD
100
AcDbEntity
  8
dimensions
 62
256
370
-1
  6
ByLayer
100
AcDbDimension
 10
318.0
 20
340.3518438452323949
 30
0.0
 11
310.3125
 21
343.3518438452323949
 31
0.0
 70
0
 71
5
 72
0
 41
1.0
 42
0.0
  1

  3
Standard
100
AcDbAlignedDimension
 13
302.625
 23
350.0808279952792077
 33
0.0
 14
318.0
 24
340.3518438452323949
 34
0.0
 50
0.0
100
AcDbRotatedDimension
  0
LINE
  5
3CE
100
AcDbEntity
100
AcDbLine
  8
fixtures
 62
256
370
-1
  6
ByLayer
 10
302.625
 20
349.0
 30
0.0
 11
302.625
 21
349.0
 31
0.0
  0
LINE
  5
3CF
100
AcDbEntity
100
AcDbLine
  8
fixtures
 62
256
370
-1
  6
ByLayer
 10
318.0
 20
345.0
 30
0.0
 11
306.625
 21
345.0
 31
0.0
  0
ARC
  5
3D0
100
AcDbEntity
  8
fixtures
 62
256
370
-1
  6
ByLayer
100
AcDbCircle
 10
306.625
 20
349.0
 30
0.0
 40
4.0
100
AcDbArc
 50
180.0
 51
270.0
  0
DIMENSION
  5
3D1
100
AcDbEntity
  8
dimensions
 62
256
370
-1
  6
ByLayer
100
AcDbDimension
 10
306.625
 20
349.0
 30
0.0
 11
299.6318859954324125
 21
347.247383338805605
 31
0.0
 70
4
 71
5
 72
1
 41
1.0
 42
0.0
  1

  3
Standard
100
AcDbRadialDimension
 15
303.5015247622278594
 25
346.5012198097822989
 35
0.0
 40
0.0
  0
DIMENSION
  5
3D2
100
AcDbEntity
  8
dimensions
 62
256
370
-1
  6
ByLayer
100
AcDbDimension
 10
306.6269250453800055
 20
351.0
 30
0.0
 11
303.6269250453800055
 21
350.0
 31
0.0
 70
0
 71
5
 72
1
 41
1.0
 42
0.0
  1

  3
Standard
100
AcDbAlignedDimension
 13
306.625
 23
349.0
 33
0.0
 14
306.6269250453800055
 24
351.0
 34
0.0
 50
90.0
100
AcDbRotatedDimension
  0
MTEXT
  5
3D3
100
AcDbEntity
100
AcDbMText
  8
text
 62
256
370
-1
  6
ByLayer
 10
348.1875
 20
340.0
 30
0.0
 40
3.0
 41
100.0
 71
1
 72
2
  1
raised\~bar
  7
normallatin1
 50
0.0
 73
0
 44
1.0
  0
LINE
  5
3D4
100
AcDbEntity
100
AcDbLine
  8
partition_wall
 62
256
370
-1
  6
ByLayer
 10
429.5
 20
425.0
 30
0.0
 11
433.5
 21
425.0
 31
0.0
  0
LINE
  5
3D5
100
AcDbEntity
100
AcDbLine
  8
partition_wall
 62
256
370
-1
  6
ByLayer
 10
429.5
 20
440.0
 30
0.0
 11
429.5
 21
425.0
 31
0.0
  0
LINE
  5
3D6
100
AcDbEntity
100
AcDbLine
  8
partition_wall
 62
256
370
-1
  6
ByLayer
 10
433.5
 20
444.0
 30
0.0
 11
433.5
 21
425.0
 31
0.0
  0
LEADER
  5
3D7
  8
text
 62
256
370
-1
  6
ByLayer
100
AcDbEntity
100
AcDbLeader
  3
Standard
 71
1
 72
0
 73
3
 74
0
 75
0
 40
1.0
 41
10.0
 76
2
 10
430.0
 20
416.0
 10
463.0
 20
442.0
  0
LINE
  5
3D8
100
AcDbEntity
100
AcDbLine
  8
partition_wall
 62
256
370
-1
  6
ByLayer
 10
444.0
 20
399.0
 30
0.0
 11
443.0
 21
399.0
 31
0.0
  0
LINE
  5
3D9
100
AcDbEntity
100
AcDbLine
  8
partition_wall
 62
256
370
-1
  6
ByLayer
 10
443.0
 20
399.0
 30
0.0
 11
443.0
 21
403.0
 31
0.0
  0
LINE
  5
3DA
100
AcDbEntity
100
AcDbLine
  8
partition_wall
 62
256
370
-1
  6
ByLayer
 10
443.0
 20
403.0
 30
0.0
 11
448.0
 21
403.0
 31
0.0
  0
LINE
  5
3DB
100
AcDbEntity
100
AcDbLine
  8
partition_wall
 62
256
370
-1
  6
ByLayer
 10
429.5
 20
399.0
 30
0.0
 11
433.5
 21
399.0
 31
0.0
  0
LINE
  5
3DC
100
AcDbEntity
100
AcDbLine
  8
partition_wall
 62
256
370
-1
  6
ByLayer
 10
433.5
 20
399.0
 30
0.0
 11
433.5
 21
403.0
 31
0.0
  0
LINE
  5
3DD
100
AcDbEntity
100
AcDbLine
  8
ceiling
 62
256
370
-1
  6
ByLayer
 10
433.5
 20
399.0
 30
0.0
 11
443.0
 21
399.0
 31
0.0
  0
LINE
  5
3DE
100
AcDbEntity
100
AcDbLine
  8
partition_wall
 62
256
370
-1
  6
ByLayer
 10
429.5
 20
403.0
 30
0.0
 11
433.5
 21
403.0
 31
0.0
  0
LINE
  5
3DF
100
AcDbEntity
100
AcDbLine
  8
partition_wall
 62
256
370
-1
  6
ByLayer
 10
429.5
 20
403.0
 30
0.0
 11
429.5
 21
399.0
 31
0.0
  0
LINE
  5
3E0
100
AcDbEntity
100
AcDbLine
  8
partition_wall
 62
256
370
-1
  6
ByLayer
 10
433.5
 20
403.0
 30
0.0
 11
433.5
 21
403.0
 31
0.0
  0
LINE
  5
3E1
100
AcDbEntity
100
AcDbLine
  8
ceiling
 62
256
370
-1
  6
ByLayer
 10
429.5
 20
425.0
 30
0.0
 11
429.5
 21
403.0
 31
0.0
  0
MTEXT
  5
3E2
100
AcDbEntity
100
AcDbMText
  8
text
 62
256
370
-1
  6
ByLayer
 10
464.0
 20
444.0
 30
0.0
 40
3.0
 41
100.0
 71
1
 72
2
  1
service\~panels
  7
normallatin1
 50
0.0
 73
0
 44
1.0
  0
LEADER
  5
3E3
  8
text
 62
256
370
-1
  6
ByLayer
100
AcDbEntity
100
AcDbLeader
  3
Standard
 71
1
 72
0
 73
3
 74
0
 75
0
 40
1.0
 41
10.0
 76
2
 10
439.0
 20
399.0
 10
432.0
 20
416.0
  0
MTEXT
  5
3E4
100
AcDbEntity
100
AcDbMText
  8
text
 62
256
370
-1
  6
ByLayer
 10
488.0
 20
440.0
 30
0.0
 40
4.0
 41
100.0
 71
1
 72
2
  1
water\Pservice\Pmeter\P(main\~valves)
  7
normallatin1
 50
0.0
 73
1
 44
1.0
  0
MTEXT
  5
3E5
100
AcDbEntity
100
AcDbMText
  8
text
 62
256
370
-1
  6
ByLayer
 10
-179.9999444444444521
 20
216.0
 30
0.0
 40
7.0
 41
100.0
 71
1
 72
2
  1
Zahorec\PBasement\~Improvement\~Plan\Pv\~2009-02-05_01
  7
normallatin1
 50
0.0
 73
0
 44
1.0
  0
ENDSEC
  0
SECTION
  2
OBJECTS
  0
DICTIONARY
  5
C
100
AcDbDictionary
280
0
281
1
  3
ACAD_GROUP
350
D
  3
ACAD_LAYOUT
350
1A
  3
ACAD_MLINESTYLE
350
17
  3
ACAD_PLOTSETTINGS
350
19
  3
ACAD_PLOTSTYLENAME
350
E
  3
AcDbVariableDictionary
350
3E6
  0
DICTIONARY
  5
D
100
AcDbDictionary
280
0
281
1
  0
ACDBDICTIONARYWDFLT
  5
E
100
AcDbDictionary
281
1
  3
Normal
350
F
100
AcDbDictionaryWithDefault
340
F
  0
ACDBPLACEHOLDER
  5
F
  0
DICTIONARY
  5
17
100
AcDbDictionary
280
0
281
1
  3
Standard
350
18
  0
MLINESTYLE
  5
18
100
AcDbMlineStyle
  2
STANDARD
 70
0
  3

 62
256
 51
90.0
 52
90.0
 71
2
 49
0.5
 62
256
  6
BYLAYER
 49
-0.5
 62
256
  6
BYLAYER
  0
DICTIONARY
  5
19
100
AcDbDictionary
280
0
281
1
  0
DICTIONARY
  5
1A
100
AcDbDictionary
281
1
  3
Layout1
350
1E
  3
Layout2
350
26
  3
Model
350
22
  0
LAYOUT
  5
1E
100
AcDbPlotSettings
  1

  2
C:\Program Files\AutoCAD 2002\plotters\DWF ePlot (optimized for plotting).pc3
  4

  6

 40
0.0
 41
0.0
 42
0.0
 43
0.0
 44
0.0
 45
0.0
 46
0.0
 47
0.0
 48
0.0
 49
0.0
140
0.0
141
0.0
142
1.0
143
1.0
 70
688
 72
0
 73
0
 74
5
  7

 75
16
147
1.0
148
0.0
149
0.0
100
AcDbLayout
  1
Layout1
 70
1
 71
1
 10
0.0
 20
0.0
 11
420.0
 21
297.0
 12
0.0
 22
0.0
 32
0.0
 14
100000000000000000000.0
 24
100000000000000000000.0
 34
100000000000000000000.0
 15
-100000000000000000000.0
 25
-100000000000000000000.0
 35
-100000000000000000000.0
146
0.0
 13
0.0
 23
0.0
 33
0.0
 16
1.0
 26
0.0
 36
0.0
 17
0.0
 27
1.0
 37
0.0
 76
0
330
1B
  0
LAYOUT
  5
22
100
AcDbPlotSettings
  1

  2
C:\Program Files\AutoCAD 2002\plotters\DWF ePlot (optimized for plotting).pc3
  4

  6

 40
0.0
 41
0.0
 42
0.0
 43
0.0
 44
0.0
 45
0.0
 46
0.0
 47
0.0
 48
0.0
 49
0.0
140
0.0
141
0.0
142
1.0
143
1.0
 70
1712
 72
0
 73
0
 74
0
  7

 75
0
147
1.0
148
0.0
149
0.0
100
AcDbLayout
  1
Model
 70
1
 71
0
 10
0.0
 20
0.0
 11
12.0
 21
9.0
 12
0.0
 22
0.0
 32
0.0
 14
0.0
 24
0.0
 34
0.0
 15
0.0
 25
0.0
 35
0.0
146
0.0
 13
0.0
 23
0.0
 33
0.0
 16
1.0
 26
0.0
 36
0.0
 17
0.0
 27
1.0
 37
0.0
 76
0
330
1F
  0
LAYOUT
  5
26
100
AcDbPlotSettings
  1

  2
C:\Program Files\AutoCAD 2002\plotters\DWF ePlot (optimized for plotting).pc3
  4

  6

 40
0.0
 41
0.0
 42
0.0
 43
0.0
 44
0.0
 45
0.0
 46
0.0
 47
0.0
 48
0.0
 49
0.0
140
0.0
141
0.0
142
1.0
143
1.0
 70
688
 72
0
 73
0
 74
5
  7

 75
16
147
1.0
148
0.0
149
0.0
100
AcDbLayout
  1
Layout2
 70
1
 71
2
 10
0.0
 20
0.0
 11
12.0
 21
9.0
 12
0.0
 22
0.0
 32
0.0
 14
0.0
 24
0.0
 34
0.0
 15
0.0
 25
0.0
 35
0.0
146
0.0
 13
0.0
 23
0.0
 33
0.0
 16
1.0
 26
0.0
 36
0.0
 17
0.0
 27
1.0
 37
0.0
 76
0
330
23
  0
DICTIONARY
  5
3E6
100
AcDbDictionary
281
1
  3
DIMASSOC
350
3E8
  3
HIDETEXT
350
3E7
  0
DICTIONARYVAR
  5
3E7
100
DictionaryVariables
280
0
  1
2
  0
DICTIONARYVAR
  5
3E8
100
DictionaryVariables
280
0
  1
1
  0
ENDSEC
  0
EOF
